<svg width="20" height="13" viewBox="0 0 20 13" fill="none" xmlns="http://www.w3.org/2000/svg">
<path d="M10.8932 13C4.05996 13 0.162399 8.12012 0 0H3.42286C3.53529 5.95996 6.05871 8.48448 8.05746 9.005V0H11.2805V5.14014C13.2542 4.91892 15.3279 2.57658 16.0275 0H19.2505C18.9869 1.33629 18.4614 2.60153 17.7069 3.71661C16.9524 4.83168 15.9852 5.77259 14.8657 6.48048C16.1153 7.1273 17.2191 8.04282 18.1041 9.16662C18.9891 10.2904 19.6353 11.597 20 13H16.4522C16.1248 11.7814 15.4594 10.6905 14.5394 9.86405C13.6194 9.03764 12.4858 8.51247 11.2805 8.35435V13H10.8932Z" fill="#0177FF"/>
</svg>
