<svg width="20" height="16" viewBox="0 0 20 16" fill="none" xmlns="http://www.w3.org/2000/svg">
<path d="M0.301968 7.44246C2.34804 6.35383 4.632 5.4452 6.76603 4.53196C10.4374 3.03613 14.1233 1.56623 17.8464 0.197773C18.5708 -0.0353846 19.8724 -0.263372 20 0.773533C19.9301 2.24132 19.6426 3.70051 19.4454 5.15971C18.945 8.36861 18.3665 11.5665 17.8024 14.7649C17.608 15.8302 16.2264 16.3817 15.3424 15.6999C13.2178 14.3138 11.0769 12.941 8.97952 11.5227C8.29247 10.8483 8.92958 9.87992 9.54319 9.39835C11.293 7.73262 13.1488 6.31738 14.8071 4.56556C15.2545 3.52212 13.9327 4.40149 13.4967 4.67097C11.1012 6.26555 8.76429 7.9575 6.23864 9.35893C4.94854 10.0449 3.44491 9.45869 2.15539 9.07592C0.999204 8.61351 -0.694959 8.1475 0.301968 7.44246Z" fill="#0867D6"/>
<path d="M0.301968 7.44246C2.34804 6.35383 4.632 5.4452 6.76603 4.53196C10.4374 3.03613 14.1233 1.56623 17.8464 0.197773C18.5708 -0.0353846 19.8724 -0.263372 20 0.773533C19.9301 2.24132 19.6426 3.70051 19.4454 5.15971C18.945 8.36861 18.3665 11.5665 17.8024 14.7649C17.608 15.8302 16.2264 16.3817 15.3424 15.6999C13.2178 14.3138 11.0769 12.941 8.97952 11.5227C8.29247 10.8483 8.92958 9.87992 9.54319 9.39835C11.293 7.73262 13.1488 6.31738 14.8071 4.56556C15.2545 3.52212 13.9327 4.40149 13.4967 4.67097C11.1012 6.26555 8.76429 7.9575 6.23864 9.35893C4.94854 10.0449 3.44491 9.45869 2.15539 9.07592C0.999204 8.61351 -0.694959 8.1475 0.301968 7.44246Z" fill="#0696E7"/>
<path d="M0.301968 7.44246C2.34804 6.35383 4.632 5.4452 6.76603 4.53196C10.4374 3.03613 14.1233 1.56623 17.8464 0.197773C18.5708 -0.0353846 19.8724 -0.263372 20 0.773533C19.9301 2.24132 19.6426 3.70051 19.4454 5.15971C18.945 8.36861 18.3665 11.5665 17.8024 14.7649C17.608 15.8302 16.2264 16.3817 15.3424 15.6999C13.2178 14.3138 11.0769 12.941 8.97952 11.5227C8.29247 10.8483 8.92958 9.87992 9.54319 9.39835C11.293 7.73262 13.1488 6.31738 14.8071 4.56556C15.2545 3.52212 13.9327 4.40149 13.4967 4.67097C11.1012 6.26555 8.76429 7.9575 6.23864 9.35893C4.94854 10.0449 3.44491 9.45869 2.15539 9.07592C0.999204 8.61351 -0.694959 8.1475 0.301968 7.44246Z" fill="#419FD9"/>
</svg>
