<svg width="19" height="18" viewBox="0 0 19 18" fill="none" xmlns="http://www.w3.org/2000/svg">
<path d="M13.2221 6.9891C13.1508 6.41056 12.973 5.9563 12.6572 5.55393C12.2472 5.03581 11.7232 4.72556 10.9474 4.54151C10.4418 4.41884 10.2375 4.43292 10.0546 4.59995C9.88431 4.75645 9.85106 5.07017 9.98122 5.27332C10.0728 5.42077 10.1784 5.4736 10.4721 5.53125C10.8632 5.60321 11.1335 5.69661 11.3794 5.83719C11.9012 6.13853 12.1443 6.61007 12.1703 7.37348C12.1824 7.73192 12.2134 7.84212 12.3386 7.96925C12.5706 8.20164 12.9836 8.15644 13.1588 7.87834C13.2231 7.77353 13.2329 7.72791 13.2396 7.48451C13.2441 7.33383 13.2376 7.10954 13.2221 6.9891Z" fill="#0867D6"/>
<path d="M13.2221 6.9891C13.1508 6.41056 12.973 5.9563 12.6572 5.55393C12.2472 5.03581 11.7232 4.72556 10.9474 4.54151C10.4418 4.41884 10.2375 4.43292 10.0546 4.59995C9.88431 4.75645 9.85106 5.07017 9.98122 5.27332C10.0728 5.42077 10.1784 5.4736 10.4721 5.53125C10.8632 5.60321 11.1335 5.69661 11.3794 5.83719C11.9012 6.13853 12.1443 6.61007 12.1703 7.37348C12.1824 7.73192 12.2134 7.84212 12.3386 7.96925C12.5706 8.20164 12.9836 8.15644 13.1588 7.87834C13.2231 7.77353 13.2329 7.72791 13.2396 7.48451C13.2441 7.33383 13.2376 7.10954 13.2221 6.9891Z" fill="#EEEE36"/>
<path d="M13.2221 6.9891C13.1508 6.41056 12.973 5.9563 12.6572 5.55393C12.2472 5.03581 11.7232 4.72556 10.9474 4.54151C10.4418 4.41884 10.2375 4.43292 10.0546 4.59995C9.88431 4.75645 9.85106 5.07017 9.98122 5.27332C10.0728 5.42077 10.1784 5.4736 10.4721 5.53125C10.8632 5.60321 11.1335 5.69661 11.3794 5.83719C11.9012 6.13853 12.1443 6.61007 12.1703 7.37348C12.1824 7.73192 12.2134 7.84212 12.3386 7.96925C12.5706 8.20164 12.9836 8.15644 13.1588 7.87834C13.2231 7.77353 13.2329 7.72791 13.2396 7.48451C13.2441 7.33383 13.2376 7.10954 13.2221 6.9891Z" fill="#7F4DA0"/>
<path d="M15.2668 7.64086C15.1637 5.86839 14.4705 4.44236 13.2297 3.43902C12.5307 2.87525 11.6857 2.48759 10.7594 2.29906C10.4201 2.23163 9.79544 2.17698 9.68826 2.20824C9.58713 2.23719 9.4441 2.34669 9.38035 2.44572C9.31293 2.5531 9.29773 2.79286 9.35524 2.93155C9.44807 3.16339 9.62076 3.2453 10.1044 3.28761C10.8499 3.35284 11.6189 3.61478 12.2 4.00257C12.8633 4.44409 13.3906 5.04799 13.7318 5.75763C14.0265 6.36736 14.2078 7.24605 14.2027 8.0329C14.2011 8.31748 14.245 8.4782 14.3595 8.5957C14.5322 8.77637 14.784 8.81588 15.0063 8.69588C15.2526 8.56635 15.3102 8.33899 15.2668 7.64086Z" fill="#0867D6"/>
<path d="M15.2668 7.64086C15.1637 5.86839 14.4705 4.44236 13.2297 3.43902C12.5307 2.87525 11.6857 2.48759 10.7594 2.29906C10.4201 2.23163 9.79544 2.17698 9.68826 2.20824C9.58713 2.23719 9.4441 2.34669 9.38035 2.44572C9.31293 2.5531 9.29773 2.79286 9.35524 2.93155C9.44807 3.16339 9.62076 3.2453 10.1044 3.28761C10.8499 3.35284 11.6189 3.61478 12.2 4.00257C12.8633 4.44409 13.3906 5.04799 13.7318 5.75763C14.0265 6.36736 14.2078 7.24605 14.2027 8.0329C14.2011 8.31748 14.245 8.4782 14.3595 8.5957C14.5322 8.77637 14.784 8.81588 15.0063 8.69588C15.2526 8.56635 15.3102 8.33899 15.2668 7.64086Z" fill="#EEEE36"/>
<path d="M15.2668 7.64086C15.1637 5.86839 14.4705 4.44236 13.2297 3.43902C12.5307 2.87525 11.6857 2.48759 10.7594 2.29906C10.4201 2.23163 9.79544 2.17698 9.68826 2.20824C9.58713 2.23719 9.4441 2.34669 9.38035 2.44572C9.31293 2.5531 9.29773 2.79286 9.35524 2.93155C9.44807 3.16339 9.62076 3.2453 10.1044 3.28761C10.8499 3.35284 11.6189 3.61478 12.2 4.00257C12.8633 4.44409 13.3906 5.04799 13.7318 5.75763C14.0265 6.36736 14.2078 7.24605 14.2027 8.0329C14.2011 8.31748 14.245 8.4782 14.3595 8.5957C14.5322 8.77637 14.784 8.81588 15.0063 8.69588C15.2526 8.56635 15.3102 8.33899 15.2668 7.64086Z" fill="#7F4DA0"/>
<path d="M17.5281 14.4665C17.4934 14.3652 17.4125 14.2089 17.3547 14.1192C16.9906 13.5694 15.0343 12.0384 14.0576 11.5377C13.4999 11.2512 13.0867 11.1557 12.7803 11.2454C12.4509 11.3381 12.2775 11.4914 11.7256 12.1773C11.5031 12.4523 11.2748 12.7098 11.2141 12.7503C11.0638 12.8545 10.7691 12.9385 10.5611 12.9385C10.0785 12.9355 9.20289 12.623 8.52958 12.212C8.00655 11.8937 7.33618 11.3236 6.82178 10.7592C6.21492 10.0965 5.80174 9.51189 5.47517 8.85203C5.0533 8.00408 4.94638 7.48602 5.12263 7.10688C5.16598 7.01138 5.22379 6.91012 5.24976 6.87824C5.27578 6.84934 5.54743 6.62647 5.84793 6.38336C6.43745 5.91455 6.5328 5.80747 6.6426 5.48622C6.78131 5.07813 6.74376 4.66139 6.52992 4.24177C6.36519 3.92341 5.93464 3.22883 5.62256 2.78026C5.20933 2.18989 4.18059 0.928078 3.9754 0.757278C3.60552 0.456324 3.13166 0.404198 2.60857 0.606825C2.05668 0.820992 1.02214 1.65447 0.580007 2.23619C0.181228 2.7629 0.028123 3.13622 0.00498168 3.62822C-0.015232 4.03337 0.0194316 4.20123 0.233274 4.71929C1.90641 8.78256 4.40307 12.0268 7.83318 14.6026C9.62478 15.9483 11.4829 16.9728 13.4103 17.6732C14.5344 18.0812 15.0227 18.1015 15.5978 17.7658C15.8405 17.6211 16.4416 17.0046 16.7768 16.5561C17.3316 15.8094 17.5368 15.465 17.5946 15.1901C17.635 15.0019 17.6032 14.6749 17.5281 14.4665Z" fill="#0867D6"/>
<path d="M17.5281 14.4665C17.4934 14.3652 17.4125 14.2089 17.3547 14.1192C16.9906 13.5694 15.0343 12.0384 14.0576 11.5377C13.4999 11.2512 13.0867 11.1557 12.7803 11.2454C12.4509 11.3381 12.2775 11.4914 11.7256 12.1773C11.5031 12.4523 11.2748 12.7098 11.2141 12.7503C11.0638 12.8545 10.7691 12.9385 10.5611 12.9385C10.0785 12.9355 9.20289 12.623 8.52958 12.212C8.00655 11.8937 7.33618 11.3236 6.82178 10.7592C6.21492 10.0965 5.80174 9.51189 5.47517 8.85203C5.0533 8.00408 4.94638 7.48602 5.12263 7.10688C5.16598 7.01138 5.22379 6.91012 5.24976 6.87824C5.27578 6.84934 5.54743 6.62647 5.84793 6.38336C6.43745 5.91455 6.5328 5.80747 6.6426 5.48622C6.78131 5.07813 6.74376 4.66139 6.52992 4.24177C6.36519 3.92341 5.93464 3.22883 5.62256 2.78026C5.20933 2.18989 4.18059 0.928078 3.9754 0.757278C3.60552 0.456324 3.13166 0.404198 2.60857 0.606825C2.05668 0.820992 1.02214 1.65447 0.580007 2.23619C0.181228 2.7629 0.028123 3.13622 0.00498168 3.62822C-0.015232 4.03337 0.0194316 4.20123 0.233274 4.71929C1.90641 8.78256 4.40307 12.0268 7.83318 14.6026C9.62478 15.9483 11.4829 16.9728 13.4103 17.6732C14.5344 18.0812 15.0227 18.1015 15.5978 17.7658C15.8405 17.6211 16.4416 17.0046 16.7768 16.5561C17.3316 15.8094 17.5368 15.465 17.5946 15.1901C17.635 15.0019 17.6032 14.6749 17.5281 14.4665Z" fill="#EEEE36"/>
<path d="M17.5281 14.4665C17.4934 14.3652 17.4125 14.2089 17.3547 14.1192C16.9906 13.5694 15.0343 12.0384 14.0576 11.5377C13.4999 11.2512 13.0867 11.1557 12.7803 11.2454C12.4509 11.3381 12.2775 11.4914 11.7256 12.1773C11.5031 12.4523 11.2748 12.7098 11.2141 12.7503C11.0638 12.8545 10.7691 12.9385 10.5611 12.9385C10.0785 12.9355 9.20289 12.623 8.52958 12.212C8.00655 11.8937 7.33618 11.3236 6.82178 10.7592C6.21492 10.0965 5.80174 9.51189 5.47517 8.85203C5.0533 8.00408 4.94638 7.48602 5.12263 7.10688C5.16598 7.01138 5.22379 6.91012 5.24976 6.87824C5.27578 6.84934 5.54743 6.62647 5.84793 6.38336C6.43745 5.91455 6.5328 5.80747 6.6426 5.48622C6.78131 5.07813 6.74376 4.66139 6.52992 4.24177C6.36519 3.92341 5.93464 3.22883 5.62256 2.78026C5.20933 2.18989 4.18059 0.928078 3.9754 0.757278C3.60552 0.456324 3.13166 0.404198 2.60857 0.606825C2.05668 0.820992 1.02214 1.65447 0.580007 2.23619C0.181228 2.7629 0.028123 3.13622 0.00498168 3.62822C-0.015232 4.03337 0.0194316 4.20123 0.233274 4.71929C1.90641 8.78256 4.40307 12.0268 7.83318 14.6026C9.62478 15.9483 11.4829 16.9728 13.4103 17.6732C14.5344 18.0812 15.0227 18.1015 15.5978 17.7658C15.8405 17.6211 16.4416 17.0046 16.7768 16.5561C17.3316 15.8094 17.5368 15.465 17.5946 15.1901C17.635 15.0019 17.6032 14.6749 17.5281 14.4665Z" fill="#7F4DA0"/>
<path d="M17.3461 8.04746C17.3091 7.04485 17.1403 6.22247 16.7883 5.30558C16.4408 4.40366 16.0891 3.81512 15.4249 3.01909C14.7969 2.27272 14.3091 1.84656 13.5356 1.37218C12.4563 0.711235 11.1428 0.273848 9.67083 0.0899009C9.16885 0.0256123 9.05528 0.0302051 8.90128 0.132964C8.60284 0.327628 8.60683 0.813165 8.9062 1.00491C9.0053 1.06591 9.09324 1.08813 9.49478 1.14068C10.1112 1.22367 10.5075 1.30188 10.9778 1.4302C12.8221 1.93435 14.2403 2.96484 15.1885 4.49456C15.9819 5.7696 16.3113 7.04473 16.2645 8.67328C16.2483 9.22384 16.2601 9.32074 16.3442 9.45301C16.5054 9.69958 16.9305 9.74834 17.1485 9.54375C17.2842 9.41907 17.3098 9.32545 17.3365 8.85423C17.3493 8.60841 17.352 8.24554 17.3461 8.04746Z" fill="#0867D6"/>
<path d="M17.3461 8.04746C17.3091 7.04485 17.1403 6.22247 16.7883 5.30558C16.4408 4.40366 16.0891 3.81512 15.4249 3.01909C14.7969 2.27272 14.3091 1.84656 13.5356 1.37218C12.4563 0.711235 11.1428 0.273848 9.67083 0.0899009C9.16885 0.0256123 9.05528 0.0302051 8.90128 0.132964C8.60284 0.327628 8.60683 0.813165 8.9062 1.00491C9.0053 1.06591 9.09324 1.08813 9.49478 1.14068C10.1112 1.22367 10.5075 1.30188 10.9778 1.4302C12.8221 1.93435 14.2403 2.96484 15.1885 4.49456C15.9819 5.7696 16.3113 7.04473 16.2645 8.67328C16.2483 9.22384 16.2601 9.32074 16.3442 9.45301C16.5054 9.69958 16.9305 9.74834 17.1485 9.54375C17.2842 9.41907 17.3098 9.32545 17.3365 8.85423C17.3493 8.60841 17.352 8.24554 17.3461 8.04746Z" fill="#EEEE36"/>
<path d="M17.3461 8.04746C17.3091 7.04485 17.1403 6.22247 16.7883 5.30558C16.4408 4.40366 16.0891 3.81512 15.4249 3.01909C14.7969 2.27272 14.3091 1.84656 13.5356 1.37218C12.4563 0.711235 11.1428 0.273848 9.67083 0.0899009C9.16885 0.0256123 9.05528 0.0302051 8.90128 0.132964C8.60284 0.327628 8.60683 0.813165 8.9062 1.00491C9.0053 1.06591 9.09324 1.08813 9.49478 1.14068C10.1112 1.22367 10.5075 1.30188 10.9778 1.4302C12.8221 1.93435 14.2403 2.96484 15.1885 4.49456C15.9819 5.7696 16.3113 7.04473 16.2645 8.67328C16.2483 9.22384 16.2601 9.32074 16.3442 9.45301C16.5054 9.69958 16.9305 9.74834 17.1485 9.54375C17.2842 9.41907 17.3098 9.32545 17.3365 8.85423C17.3493 8.60841 17.352 8.24554 17.3461 8.04746Z" fill="#7F4DA0"/>
</svg>
