<svg width="21" height="22" viewBox="0 0 21 22" fill="none" xmlns="http://www.w3.org/2000/svg">
<path fill-rule="evenodd" clip-rule="evenodd" d="M10.544 20.9197H10.5396C8.78967 20.9191 7.07016 20.48 5.54293 19.647L0 21.101L1.48338 15.6828C0.568359 14.097 0.0868796 12.2983 0.0876643 10.4554C0.089958 4.69035 4.78056 0 10.5439 0C13.341 0.00120721 15.9663 1.09012 17.9404 3.06654C19.9145 5.04286 21.0011 7.66987 21 10.4637C20.9977 16.2275 16.3089 20.9173 10.544 20.9197ZM5.79981 17.7538L6.11716 17.9422C7.45149 18.734 8.98103 19.153 10.5405 19.1536H10.544C15.3341 19.1536 19.2327 15.2548 19.2346 10.4628C19.2355 8.14064 18.3324 5.95718 16.6916 4.31445C15.0508 2.67173 12.8687 1.76661 10.5474 1.76581C5.7537 1.76581 1.85503 5.66412 1.85313 10.4558C1.85245 12.0979 2.31192 13.6972 3.18187 15.0808L3.38851 15.4097L2.51056 18.6167L5.79981 17.7538ZM15.4547 12.7149C15.6369 12.803 15.76 12.8625 15.8125 12.9502C15.8778 13.0591 15.8778 13.5822 15.6602 14.1926C15.4424 14.8029 14.3987 15.3598 13.8967 15.4348C13.4466 15.5021 12.877 15.5302 12.2511 15.3313C11.8717 15.2109 11.385 15.0502 10.7617 14.781C8.31244 13.7234 6.65723 11.3495 6.34439 10.9008C6.32248 10.8694 6.30715 10.8474 6.2986 10.836L6.29649 10.8332C6.15824 10.6487 5.2318 9.41262 5.2318 8.13332C5.2318 6.92988 5.82295 6.2991 6.09506 6.00874C6.1137 5.98885 6.13084 5.97056 6.1462 5.95379C6.38567 5.69222 6.66873 5.62683 6.84289 5.62683C7.01705 5.62683 7.19141 5.62844 7.34363 5.63609C7.36241 5.63703 7.38195 5.63692 7.40215 5.6368C7.5544 5.6359 7.74421 5.63479 7.93145 6.08457C8.00349 6.25767 8.1089 6.51429 8.22008 6.78494C8.44489 7.33226 8.69327 7.93696 8.73697 8.02447C8.8023 8.15525 8.84583 8.30777 8.75875 8.48221C8.74568 8.50836 8.73359 8.53305 8.72204 8.55663C8.65663 8.69017 8.60851 8.7884 8.4975 8.91802C8.45385 8.96898 8.40873 9.02393 8.36362 9.07887C8.27373 9.18833 8.18386 9.29779 8.1056 9.37575C7.9748 9.50603 7.83865 9.64738 7.99105 9.90894C8.14345 10.1705 8.66779 11.026 9.44447 11.7188C10.2794 12.4635 11.005 12.7783 11.3728 12.9378C11.4446 12.969 11.5028 12.9942 11.5455 13.0156C11.8067 13.1464 11.9591 13.1245 12.1115 12.9502C12.2639 12.7758 12.7646 12.1873 12.9387 11.9258C13.1129 11.6643 13.2871 11.7078 13.5266 11.795C13.7661 11.8823 15.0506 12.5142 15.3118 12.645C15.3628 12.6705 15.4105 12.6936 15.4547 12.7149Z" fill="#0867D6"/>
<path fill-rule="evenodd" clip-rule="evenodd" d="M10.544 20.9197H10.5396C8.78967 20.9191 7.07016 20.48 5.54293 19.647L0 21.101L1.48338 15.6828C0.568359 14.097 0.0868796 12.2983 0.0876643 10.4554C0.089958 4.69035 4.78056 0 10.5439 0C13.341 0.00120721 15.9663 1.09012 17.9404 3.06654C19.9145 5.04286 21.0011 7.66987 21 10.4637C20.9977 16.2275 16.3089 20.9173 10.544 20.9197ZM5.79981 17.7538L6.11716 17.9422C7.45149 18.734 8.98103 19.153 10.5405 19.1536H10.544C15.3341 19.1536 19.2327 15.2548 19.2346 10.4628C19.2355 8.14064 18.3324 5.95718 16.6916 4.31445C15.0508 2.67173 12.8687 1.76661 10.5474 1.76581C5.7537 1.76581 1.85503 5.66412 1.85313 10.4558C1.85245 12.0979 2.31192 13.6972 3.18187 15.0808L3.38851 15.4097L2.51056 18.6167L5.79981 17.7538ZM15.4547 12.7149C15.6369 12.803 15.76 12.8625 15.8125 12.9502C15.8778 13.0591 15.8778 13.5822 15.6602 14.1926C15.4424 14.8029 14.3987 15.3598 13.8967 15.4348C13.4466 15.5021 12.877 15.5302 12.2511 15.3313C11.8717 15.2109 11.385 15.0502 10.7617 14.781C8.31244 13.7234 6.65723 11.3495 6.34439 10.9008C6.32248 10.8694 6.30715 10.8474 6.2986 10.836L6.29649 10.8332C6.15824 10.6487 5.2318 9.41262 5.2318 8.13332C5.2318 6.92988 5.82295 6.2991 6.09506 6.00874C6.1137 5.98885 6.13084 5.97056 6.1462 5.95379C6.38567 5.69222 6.66873 5.62683 6.84289 5.62683C7.01705 5.62683 7.19141 5.62844 7.34363 5.63609C7.36241 5.63703 7.38195 5.63692 7.40215 5.6368C7.5544 5.6359 7.74421 5.63479 7.93145 6.08457C8.00349 6.25767 8.1089 6.51429 8.22008 6.78494C8.44489 7.33226 8.69327 7.93696 8.73697 8.02447C8.8023 8.15525 8.84583 8.30777 8.75875 8.48221C8.74568 8.50836 8.73359 8.53305 8.72204 8.55663C8.65663 8.69017 8.60851 8.7884 8.4975 8.91802C8.45385 8.96898 8.40873 9.02393 8.36362 9.07887C8.27373 9.18833 8.18386 9.29779 8.1056 9.37575C7.9748 9.50603 7.83865 9.64738 7.99105 9.90894C8.14345 10.1705 8.66779 11.026 9.44447 11.7188C10.2794 12.4635 11.005 12.7783 11.3728 12.9378C11.4446 12.969 11.5028 12.9942 11.5455 13.0156C11.8067 13.1464 11.9591 13.1245 12.1115 12.9502C12.2639 12.7758 12.7646 12.1873 12.9387 11.9258C13.1129 11.6643 13.2871 11.7078 13.5266 11.795C13.7661 11.8823 15.0506 12.5142 15.3118 12.645C15.3628 12.6705 15.4105 12.6936 15.4547 12.7149Z" fill="#0696E7"/>
<path fill-rule="evenodd" clip-rule="evenodd" d="M10.544 20.9197H10.5396C8.78967 20.9191 7.07016 20.48 5.54293 19.647L0 21.101L1.48338 15.6828C0.568359 14.097 0.0868796 12.2983 0.0876643 10.4554C0.089958 4.69035 4.78056 0 10.5439 0C13.341 0.00120721 15.9663 1.09012 17.9404 3.06654C19.9145 5.04286 21.0011 7.66987 21 10.4637C20.9977 16.2275 16.3089 20.9173 10.544 20.9197ZM5.79981 17.7538L6.11716 17.9422C7.45149 18.734 8.98103 19.153 10.5405 19.1536H10.544C15.3341 19.1536 19.2327 15.2548 19.2346 10.4628C19.2355 8.14064 18.3324 5.95718 16.6916 4.31445C15.0508 2.67173 12.8687 1.76661 10.5474 1.76581C5.7537 1.76581 1.85503 5.66412 1.85313 10.4558C1.85245 12.0979 2.31192 13.6972 3.18187 15.0808L3.38851 15.4097L2.51056 18.6167L5.79981 17.7538ZM15.4547 12.7149C15.6369 12.803 15.76 12.8625 15.8125 12.9502C15.8778 13.0591 15.8778 13.5822 15.6602 14.1926C15.4424 14.8029 14.3987 15.3598 13.8967 15.4348C13.4466 15.5021 12.877 15.5302 12.2511 15.3313C11.8717 15.2109 11.385 15.0502 10.7617 14.781C8.31244 13.7234 6.65723 11.3495 6.34439 10.9008C6.32248 10.8694 6.30715 10.8474 6.2986 10.836L6.29649 10.8332C6.15824 10.6487 5.2318 9.41262 5.2318 8.13332C5.2318 6.92988 5.82295 6.2991 6.09506 6.00874C6.1137 5.98885 6.13084 5.97056 6.1462 5.95379C6.38567 5.69222 6.66873 5.62683 6.84289 5.62683C7.01705 5.62683 7.19141 5.62844 7.34363 5.63609C7.36241 5.63703 7.38195 5.63692 7.40215 5.6368C7.5544 5.6359 7.74421 5.63479 7.93145 6.08457C8.00349 6.25767 8.1089 6.51429 8.22008 6.78494C8.44489 7.33226 8.69327 7.93696 8.73697 8.02447C8.8023 8.15525 8.84583 8.30777 8.75875 8.48221C8.74568 8.50836 8.73359 8.53305 8.72204 8.55663C8.65663 8.69017 8.60851 8.7884 8.4975 8.91802C8.45385 8.96898 8.40873 9.02393 8.36362 9.07887C8.27373 9.18833 8.18386 9.29779 8.1056 9.37575C7.9748 9.50603 7.83865 9.64738 7.99105 9.90894C8.14345 10.1705 8.66779 11.026 9.44447 11.7188C10.2794 12.4635 11.005 12.7783 11.3728 12.9378C11.4446 12.969 11.5028 12.9942 11.5455 13.0156C11.8067 13.1464 11.9591 13.1245 12.1115 12.9502C12.2639 12.7758 12.7646 12.1873 12.9387 11.9258C13.1129 11.6643 13.2871 11.7078 13.5266 11.795C13.7661 11.8823 15.0506 12.5142 15.3118 12.645C15.3628 12.6705 15.4105 12.6936 15.4547 12.7149Z" fill="#25D366"/>
</svg>
