<svg width="20" height="20" viewBox="0 0 20 20" fill="none" xmlns="http://www.w3.org/2000/svg">
<path fill-rule="evenodd" clip-rule="evenodd" d="M13.75 1.75C13.1973 1.75 12.75 2.19734 12.75 2.75V6.25C12.75 6.80266 13.1973 7.25 13.75 7.25H17.25C17.8027 7.25 18.25 6.80266 18.25 6.25V2.75C18.25 2.19734 17.8027 1.75 17.25 1.75H13.75ZM11.25 2.75C11.25 1.36891 12.3689 0.25 13.75 0.25H17.25C18.6311 0.25 19.75 1.36891 19.75 2.75V6.25C19.75 7.63109 18.6311 8.75 17.25 8.75H13.75C12.3689 8.75 11.25 7.63109 11.25 6.25V2.75Z" fill="#747883"/>
<path fill-rule="evenodd" clip-rule="evenodd" d="M13.75 12.75C13.1973 12.75 12.75 13.1973 12.75 13.75V17.25C12.75 17.8027 13.1973 18.25 13.75 18.25H17.25C17.8027 18.25 18.25 17.8027 18.25 17.25V13.75C18.25 13.1973 17.8027 12.75 17.25 12.75H13.75ZM11.25 13.75C11.25 12.3689 12.3689 11.25 13.75 11.25H17.25C18.6311 11.25 19.75 12.3689 19.75 13.75V17.25C19.75 18.6311 18.6311 19.75 17.25 19.75H13.75C12.3689 19.75 11.25 18.6311 11.25 17.25V13.75Z" fill="#747883"/>
<path fill-rule="evenodd" clip-rule="evenodd" d="M2.75 12.75C2.19734 12.75 1.75 13.1973 1.75 13.75V17.25C1.75 17.8027 2.19734 18.25 2.75 18.25H6.25C6.80266 18.25 7.25 17.8027 7.25 17.25V13.75C7.25 13.1973 6.80266 12.75 6.25 12.75H2.75ZM0.25 13.75C0.25 12.3689 1.36891 11.25 2.75 11.25H6.25C7.63109 11.25 8.75 12.3689 8.75 13.75V17.25C8.75 18.6311 7.63109 19.75 6.25 19.75H2.75C1.36891 19.75 0.25 18.6311 0.25 17.25V13.75Z" fill="#747883"/>
<path fill-rule="evenodd" clip-rule="evenodd" d="M2.75 1.75C2.19734 1.75 1.75 2.19734 1.75 2.75V6.25C1.75 6.80266 2.19734 7.25 2.75 7.25H6.25C6.80266 7.25 7.25 6.80266 7.25 6.25V2.75C7.25 2.19734 6.80266 1.75 6.25 1.75H2.75ZM0.25 2.75C0.25 1.36891 1.36891 0.25 2.75 0.25H6.25C7.63109 0.25 8.75 1.36891 8.75 2.75V6.25C8.75 7.63109 7.63109 8.75 6.25 8.75H2.75C1.36891 8.75 0.25 7.63109 0.25 6.25V2.75Z" fill="#747883"/>
</svg>
