<svg width="20" height="22" viewBox="0 0 20 22" fill="none" xmlns="http://www.w3.org/2000/svg">
<path fill-rule="evenodd" clip-rule="evenodd" d="M9.3747 1.83569C9.37461 1.83574 9.37479 1.83564 9.3747 1.83569L2.37497 5.87654C1.98842 6.09947 1.75 6.5118 1.75 6.959V15.041C1.75 15.488 1.98808 15.9007 2.37549 16.1248L9.3747 20.1653C9.37479 20.1654 9.37461 20.1653 9.3747 20.1653C9.76167 20.3884 10.2381 20.3885 10.625 20.1655C10.6251 20.1654 10.6249 20.1655 10.625 20.1655L17.625 16.1245C18.0116 15.9015 18.25 15.4892 18.25 15.042V6.959C18.25 6.51259 18.0117 6.09952 17.6253 5.87669L10.6253 1.83569C10.6252 1.83564 10.6254 1.83574 10.6253 1.83569C10.2383 1.61264 9.76167 1.61264 9.3747 1.83569ZM8.6253 0.536309C9.4762 0.0455649 10.5238 0.0455649 11.3747 0.536309L18.3747 4.57731C18.3748 4.57736 18.3746 4.57726 18.3747 4.57731C19.2262 5.06852 19.75 5.97751 19.75 6.959V15.042C19.75 16.0248 19.2262 16.9326 18.3747 17.4237L11.375 21.4645C10.5241 21.9553 9.4762 21.9554 8.6253 21.4647L1.62503 17.4235C0.774443 16.9316 0.25 16.024 0.25 15.041V6.959C0.25 5.97631 0.773733 5.06857 1.62503 4.57746C1.62512 4.57741 1.62494 4.57752 1.62503 4.57746L8.6253 0.536309Z" fill="#3A3F43"/>
<path fill-rule="evenodd" clip-rule="evenodd" d="M4.85047 2.83102C5.05757 2.4723 5.51626 2.34937 5.87498 2.55647L14.865 7.74647C15.097 7.88044 15.24 8.12804 15.24 8.396V11.86C15.24 12.2742 14.9042 12.61 14.49 12.61C14.0758 12.61 13.74 12.2742 13.74 11.86V8.82903L5.12502 3.85553C4.7663 3.64844 4.64338 3.18975 4.85047 2.83102Z" fill="#3A3F43"/>
<path fill-rule="evenodd" clip-rule="evenodd" d="M3.35093 13.8642C3.55847 13.5058 4.01731 13.3834 4.37578 13.5909L7.41578 15.3509C7.77425 15.5585 7.89661 16.0173 7.68907 16.3758C7.48154 16.7342 7.0227 16.8566 6.66423 16.6491L3.62423 14.8891C3.26575 14.6815 3.1434 14.2227 3.35093 13.8642Z" fill="#3A3F43"/>
<path fill-rule="evenodd" clip-rule="evenodd" d="M10 10.25C10.4142 10.25 10.75 10.5858 10.75 11V21.08C10.75 21.4942 10.4142 21.83 10 21.83C9.58579 21.83 9.25 21.4942 9.25 21.08V11C9.25 10.5858 9.58579 10.25 10 10.25Z" fill="#3A3F43"/>
<path fill-rule="evenodd" clip-rule="evenodd" d="M0.618476 5.58403C0.82557 5.2253 1.28426 5.10238 1.64298 5.30947L10 10.134L18.357 5.30947C18.7158 5.10238 19.1744 5.2253 19.3815 5.58403C19.5886 5.94275 19.4657 6.40144 19.107 6.60854L10.375 11.6495C10.1429 11.7835 9.85707 11.7835 9.62503 11.6495L0.893032 6.60854C0.534305 6.40144 0.411382 5.94275 0.618476 5.58403Z" fill="#3A3F43"/>
</svg>
