<svg width="22" height="22" viewBox="0 0 22 22" fill="none" xmlns="http://www.w3.org/2000/svg">
<path fill-rule="evenodd" clip-rule="evenodd" d="M2.67163 0.00856771C2.80497 0.0187742 2.9908 0.0447499 3.18984 0.135717C3.45155 0.255319 3.67333 0.447671 3.82874 0.689832C3.94695 0.874014 3.99894 1.0543 4.0279 1.18486C4.0525 1.29573 4.07045 1.42174 4.08515 1.52493C4.08614 1.53187 4.08711 1.53871 4.08807 1.54544L4.43872 4L20.0597 3.99999C20.2018 3.99994 20.3657 3.99988 20.5079 4.01228C20.6678 4.02622 20.9081 4.06242 21.1511 4.20405C21.4582 4.38305 21.6918 4.66531 21.8102 5.0005C21.9038 5.26569 21.8944 5.5085 21.8782 5.66823C21.8638 5.81023 21.833 5.97124 21.8064 6.11081L20.4714 13.1194C20.3887 13.5537 20.3166 13.9323 20.2329 14.2435C20.1438 14.5749 20.0249 14.8978 19.8159 15.2013C19.5003 15.6598 19.0633 16.0213 18.5539 16.2456C18.2167 16.3941 17.8772 16.4505 17.535 16.476C17.2136 16.5 16.8282 16.5 16.3861 16.5H7.75873C7.29386 16.5 6.88978 16.5 6.55391 16.4742C6.19707 16.4468 5.84288 16.3864 5.49387 16.2261C4.96847 15.9847 4.52401 15.5966 4.21399 15.1085C4.00806 14.7843 3.90043 14.4415 3.82517 14.0916C3.75433 13.7623 3.69987 13.3619 3.63722 12.9013L2.58101 5.1381L2.1327 2H1C0.447715 2 0 1.55228 0 0.999996C0 0.447711 0.447715 -4.09768e-06 1 -4.09768e-06H2.30616C2.31296 -4.09768e-06 2.31987 -6.8395e-06 2.32688 -9.58131e-06C2.43112 -5.02317e-05 2.55839 -9.99421e-05 2.67163 0.00856771ZM4.7167 6L5.61419 12.5966C5.683 13.1023 5.7277 13.4258 5.78045 13.671C5.83057 13.904 5.87359 13.9911 5.90221 14.0362C6.00555 14.1989 6.1537 14.3282 6.32884 14.4087C6.37734 14.431 6.46944 14.4619 6.70706 14.4801C6.95716 14.4993 7.28371 14.5 7.79411 14.5H16.352C16.8381 14.5 17.1481 14.4994 17.386 14.4816C17.6114 14.4647 17.7001 14.4363 17.748 14.4152C17.9178 14.3404 18.0634 14.2199 18.1686 14.0671C18.1983 14.024 18.2429 13.9422 18.3016 13.724C18.3635 13.4935 18.4222 13.1892 18.5131 12.7116L19.7915 6H4.7167ZM6 20C6 18.8954 6.89543 18 8 18C9.10457 18 10 18.8954 10 20C10 21.1046 9.10457 22 8 22C6.89543 22 6 21.1046 6 20ZM14 20C14 18.8954 14.8954 18 16 18C17.1046 18 18 18.8954 18 20C18 21.1046 17.1046 22 16 22C14.8954 22 14 21.1046 14 20Z" fill="#747883"/>
</svg>
