<svg width="20" height="20" viewBox="0 0 20 20" fill="none" xmlns="http://www.w3.org/2000/svg">
<path fill-rule="evenodd" clip-rule="evenodd" d="M7 0C7.55228 0 8 0.447715 8 1L8 19C8 19.5523 7.55229 20 7 20C6.44772 20 6 19.5523 6 19L6 1C6 0.447715 6.44772 0 7 0ZM19 0C19.5523 0 20 0.447715 20 1V19C20 19.5523 19.5523 20 19 20C18.4477 20 18 19.5523 18 19V1C18 0.447715 18.4477 0 19 0ZM1 8C1.55228 8 2 8.44772 2 9L2 19C2 19.5523 1.55229 20 1 20C0.447716 20 5.36442e-07 19.5523 5.36442e-07 19L0 9C0 8.44772 0.447715 8 1 8ZM13 8C13.5523 8 14 8.44772 14 9L14 19C14 19.5523 13.5523 20 13 20C12.4477 20 12 19.5523 12 19L12 9C12 8.44772 12.4477 8 13 8Z" fill="#747883"/>
</svg>
