<svg width="22" height="19" viewBox="0 0 22 19" fill="none" xmlns="http://www.w3.org/2000/svg">
<path fill-rule="evenodd" clip-rule="evenodd" d="M17.1732 15.8259C16.8485 15.5006 16.3207 15.5 15.9943 15.8263L15.9939 15.8268C15.6686 16.1515 15.668 16.6793 15.9943 17.0057L15.9948 17.0061C16.3195 17.3314 16.8473 17.332 17.1737 17.0057L17.1741 17.0052C17.4994 16.6805 17.5 16.1527 17.1737 15.8263M18.2343 18.0663C19.1466 17.1551 19.1458 15.6773 18.2345 14.7658ZM14.9337 14.7657C14.0215 15.6769 14.0222 17.1546 14.9335 18.0661ZM18.2343 14.7657C17.3232 13.8535 15.8457 13.8542 14.9341 14.7652Z" fill="#747883"/>
<path fill-rule="evenodd" clip-rule="evenodd" d="M6.17367 15.8263C5.8481 15.5008 5.32065 15.5005 4.9939 15.8268C4.66915 16.151 4.6683 16.6791 4.99476 17.0061C5.31953 17.3314 5.84732 17.332 6.17367 17.0057L6.1741 17.0052C6.49939 16.6805 6.50001 16.1527 6.17367 15.8263ZM7.23433 14.7657C6.32189 13.8532 4.84535 13.8555 3.9341 14.7652C3.02085 15.677 3.0237 17.1549 3.93324 18.0659C4.84443 18.9786 6.32257 18.978 7.23423 18.0664C7.23412 18.0665 7.23401 18.0666 7.2339 18.0668L6.704 17.536L7.23433 18.0663M7.23433 18.0663C8.1466 17.1551 8.14584 15.6772 7.23433 14.7657Z" fill="#747883"/>
<path fill-rule="evenodd" clip-rule="evenodd" d="M8.25 1C8.25 0.585786 8.58579 0.25 9 0.25H13C13.9662 0.25 14.75 1.03379 14.75 2V12C14.75 12.4142 14.4142 12.75 14 12.75H1C0.585786 12.75 0.25 12.4142 0.25 12C0.25 11.5858 0.585786 11.25 1 11.25H13.25V2C13.25 1.86221 13.1378 1.75 13 1.75H9C8.58579 1.75 8.25 1.41421 8.25 1Z" fill="#747883"/>
<path fill-rule="evenodd" clip-rule="evenodd" d="M1 9.25C1.41421 9.25 1.75 9.58579 1.75 10V15.416C1.75 15.5538 1.86221 15.666 2 15.666H4C4.41421 15.666 4.75 16.0018 4.75 16.416C4.75 16.8302 4.41421 17.166 4 17.166H2C1.03379 17.166 0.25 16.3822 0.25 15.416V10C0.25 9.58579 0.585786 9.25 1 9.25Z" fill="#747883"/>
<path fill-rule="evenodd" clip-rule="evenodd" d="M13.25 4C13.25 3.58579 13.5858 3.25 14 3.25H18.323C19.038 3.25 19.6826 3.68514 19.9476 4.35115C19.9478 4.35145 19.9475 4.35086 19.9476 4.35115L21.5538 8.36548C21.6824 8.68855 21.75 9.03465 21.75 9.385V15.333C21.75 16.2992 20.9662 17.083 20 17.083H18.169C17.7548 17.083 17.419 16.7472 17.419 16.333C17.419 15.9188 17.7548 15.583 18.169 15.583H20C20.1378 15.583 20.25 15.4708 20.25 15.333V9.385C20.25 9.22749 20.2196 9.06972 20.1604 8.92092C20.1603 8.92078 20.1604 8.92105 20.1604 8.92092L18.5547 4.9076L18.554 4.90596C18.5169 4.81248 18.4257 4.75 18.323 4.75H14C13.5858 4.75 13.25 4.41421 13.25 4Z" fill="#747883"/>
<path fill-rule="evenodd" clip-rule="evenodd" d="M6.42 16.42C6.42 16.0058 6.75578 15.67 7.17 15.67H15C15.4142 15.67 15.75 16.0058 15.75 16.42C15.75 16.8342 15.4142 17.17 15 17.17H7.17C6.75578 17.17 6.42 16.8342 6.42 16.42Z" fill="#747883"/>
<path fill-rule="evenodd" clip-rule="evenodd" d="M16.25 7C16.25 6.58579 16.5858 6.25 17 6.25H20.2C20.6142 6.25 20.95 6.58579 20.95 7C20.95 7.41421 20.6142 7.75 20.2 7.75H17.75V10.25H21C21.4142 10.25 21.75 10.5858 21.75 11C21.75 11.4142 21.4142 11.75 21 11.75H17C16.5858 11.75 16.25 11.4142 16.25 11V7Z" fill="#747883"/>
<path fill-rule="evenodd" clip-rule="evenodd" d="M0.25 1C0.25 0.585786 0.585786 0.25 1 0.25H6C6.41421 0.25 6.75 0.585786 6.75 1C6.75 1.41421 6.41421 1.75 6 1.75H1C0.585786 1.75 0.25 1.41421 0.25 1Z" fill="#747883"/>
<path fill-rule="evenodd" clip-rule="evenodd" d="M0.25 4C0.25 3.58579 0.585786 3.25 1 3.25H4C4.41421 3.25 4.75 3.58579 4.75 4C4.75 4.41421 4.41421 4.75 4 4.75H1C0.585786 4.75 0.25 4.41421 0.25 4Z" fill="#747883"/>
<path fill-rule="evenodd" clip-rule="evenodd" d="M0.25 7C0.25 6.58579 0.585786 6.25 1 6.25H2C2.41421 6.25 2.75 6.58579 2.75 7C2.75 7.41421 2.41421 7.75 2 7.75H1C0.585786 7.75 0.25 7.41421 0.25 7Z" fill="#747883"/>
</svg>
