<svg width="22" height="22" viewBox="0 0 22 22" fill="none" xmlns="http://www.w3.org/2000/svg">
<path fill-rule="evenodd" clip-rule="evenodd" d="M7.25 4.5C7.25 4.08579 7.58579 3.75 8 3.75H14C14.4142 3.75 14.75 4.08579 14.75 4.5C14.75 4.91421 14.4142 5.25 14 5.25H8C7.58579 5.25 7.25 4.91421 7.25 4.5Z" fill="#747883"/>
<path fill-rule="evenodd" clip-rule="evenodd" d="M4.25 8C4.25 7.58579 4.58579 7.25 5 7.25H17C17.4142 7.25 17.75 7.58579 17.75 8C17.75 8.41421 17.4142 8.75 17 8.75H5C4.58579 8.75 4.25 8.41421 4.25 8Z" fill="#747883"/>
<path fill-rule="evenodd" clip-rule="evenodd" d="M4.25 13.5C4.25 13.0858 4.58579 12.75 5 12.75H8C8.41421 12.75 8.75 13.0858 8.75 13.5C8.75 13.9142 8.41421 14.25 8 14.25H5C4.58579 14.25 4.25 13.9142 4.25 13.5Z" fill="#747883"/>
<path fill-rule="evenodd" clip-rule="evenodd" d="M15.591 12.409C14.7123 11.5304 13.2877 11.5304 12.409 12.409C11.5303 13.2877 11.5303 14.7123 12.409 15.591C13.2877 16.4697 14.7123 16.4697 15.591 15.591C16.4696 14.7123 16.4696 13.2877 15.591 12.409ZM16.6516 11.3484C15.1872 9.88391 12.8128 9.88391 11.3483 11.3484C9.88385 12.8128 9.88385 15.1872 11.3483 16.6517C12.8128 18.1161 15.1872 18.1161 16.6516 16.6517C18.1161 15.1872 18.1161 12.8128 16.6516 11.3484Z" fill="#747883"/>
<path fill-rule="evenodd" clip-rule="evenodd" d="M12 15.471C12.4142 15.471 12.75 15.8068 12.75 16.221V19.7865L13.6646 19.3292C13.8757 19.2236 14.1243 19.2236 14.3354 19.3292L15.25 19.7865V16.221C15.25 15.8068 15.5858 15.471 16 15.471C16.4142 15.471 16.75 15.8068 16.75 16.221V21C16.75 21.2599 16.6154 21.5013 16.3943 21.638C16.1732 21.7747 15.8971 21.7871 15.6646 21.6708L14 20.8385L12.3354 21.6708C12.1029 21.7871 11.8268 21.7747 11.6057 21.638C11.3846 21.5013 11.25 21.2599 11.25 21V16.221C11.25 15.8068 11.5858 15.471 12 15.471Z" fill="#747883"/>
<path fill-rule="evenodd" clip-rule="evenodd" d="M0.25 3C0.25 1.48079 1.48079 0.25 3 0.25H19C20.5192 0.25 21.75 1.48079 21.75 3V16C21.75 17.5192 20.5192 18.75 19 18.75H16C15.5858 18.75 15.25 18.4142 15.25 18C15.25 17.5858 15.5858 17.25 16 17.25H19C19.6908 17.25 20.25 16.6908 20.25 16V3C20.25 2.30921 19.6908 1.75 19 1.75H3C2.30921 1.75 1.75 2.30921 1.75 3V16C1.75 16.6908 2.30921 17.25 3 17.25H12C12.4142 17.25 12.75 17.5858 12.75 18C12.75 18.4142 12.4142 18.75 12 18.75H3C1.48079 18.75 0.25 17.5192 0.25 16V3Z" fill="#747883"/>
</svg>
