<svg width="22" height="16" viewBox="0 0 22 16" fill="none" xmlns="http://www.w3.org/2000/svg">
<path fill-rule="evenodd" clip-rule="evenodd" d="M5.35868 4.24291C3.85239 5.50007 2.79828 6.97738 2.26562 7.8208C2.23028 7.87676 2.20556 7.91596 2.1849 7.94998C2.17127 7.97243 2.16227 7.98796 2.15625 7.99879C2.15625 7.99919 2.15625 7.99959 2.15625 8C2.15625 8.00041 2.15625 8.00081 2.15625 8.00121C2.16227 8.01204 2.17127 8.02757 2.1849 8.05002C2.20556 8.08404 2.23028 8.12324 2.26562 8.1792C2.79828 9.02263 3.85239 10.4999 5.35868 11.7571C6.86262 13.0123 8.75707 14 11.0004 14C13.2437 14 15.1382 13.0123 16.6421 11.7571C18.1484 10.4999 19.2025 9.02262 19.7352 8.1792C19.7705 8.12324 19.7952 8.08404 19.8159 8.05002C19.8295 8.02757 19.8385 8.01204 19.8446 8.00121C19.8446 8.00081 19.8446 8.0004 19.8446 8C19.8446 7.9996 19.8446 7.99919 19.8446 7.99879C19.8385 7.98796 19.8295 7.97243 19.8159 7.94998C19.7952 7.91596 19.7705 7.87676 19.7352 7.8208C19.2025 6.97738 18.1484 5.50007 16.6421 4.24291C15.1382 2.9877 13.2437 2 11.0004 2C8.75707 2 6.86262 2.9877 5.35868 4.24291ZM4.07715 2.70743C5.80575 1.26472 8.13873 0 11.0004 0C13.8621 0 16.1951 1.26472 17.9237 2.70743C19.6499 4.14818 20.8334 5.81429 21.4262 6.75285C21.434 6.76525 21.4421 6.77791 21.4503 6.79084C21.5679 6.97598 21.7206 7.21636 21.7978 7.55317C21.8601 7.82512 21.8601 8.17488 21.7978 8.44683C21.7206 8.78365 21.5679 9.02403 21.4503 9.20917C21.4421 9.22209 21.434 9.23475 21.4262 9.24715C20.8334 10.1857 19.6499 11.8518 17.9237 13.2926C16.1951 14.7353 13.8621 16 11.0004 16C8.13873 16 5.80575 14.7353 4.07715 13.2926C2.3509 11.8518 1.16737 10.1857 0.574622 9.24715C0.56679 9.23475 0.558749 9.2221 0.550537 9.20917C0.432917 9.02403 0.280202 8.78365 0.203001 8.44683C0.140666 8.17488 0.140666 7.82512 0.203001 7.55317C0.280202 7.21635 0.432917 6.97597 0.550537 6.79083C0.558749 6.7779 0.56679 6.76525 0.574622 6.75285C1.16737 5.81429 2.3509 4.14818 4.07715 2.70743ZM11.0004 6C9.89583 6 9.0004 6.89543 9.0004 8C9.0004 9.10457 9.89583 10 11.0004 10C12.105 10 13.0004 9.10457 13.0004 8C13.0004 6.89543 12.105 6 11.0004 6ZM7.0004 8C7.0004 5.79086 8.79126 4 11.0004 4C13.2095 4 15.0004 5.79086 15.0004 8C15.0004 10.2091 13.2095 12 11.0004 12C8.79126 12 7.0004 10.2091 7.0004 8Z" fill="#747883"/>
</svg>
