<svg width="22" height="20" viewBox="0 0 22 20" fill="none" xmlns="http://www.w3.org/2000/svg">
<path fill-rule="evenodd" clip-rule="evenodd" d="M1.29331 0.292893C1.68383 -0.0976311 2.317 -0.0976311 2.70752 0.292893L6.34625 3.93162C6.40455 3.97793 6.45837 4.03139 6.50637 4.09174L16.8974 14.4828C16.9652 14.5347 17.0272 14.5962 17.0813 14.6667L20.7075 18.2929C21.098 18.6834 21.098 19.3166 20.7075 19.7071C20.317 20.0976 19.6838 20.0976 19.2933 19.7071L16.1396 16.5534C14.6947 17.3988 12.972 18 11.0004 18C8.13874 18 5.80576 16.7353 4.07716 15.2926C2.35091 13.8518 1.16738 12.1857 0.574634 11.2472C0.566801 11.2348 0.558759 11.2221 0.550547 11.2092C0.432912 11.024 0.28018 10.7836 0.202982 10.4467C0.140654 10.1748 0.140674 9.82495 0.203034 9.55299C0.280282 9.21609 0.433445 8.97508 0.551387 8.78949C0.559666 8.77646 0.567773 8.76371 0.575667 8.75121C1.17804 7.79766 2.40132 6.07525 4.19576 4.60955L1.29331 1.70711C0.902784 1.31658 0.902784 0.683418 1.29331 0.292893ZM5.61828 6.03208C3.97911 7.32619 2.83406 8.92098 2.26654 9.81936C2.23105 9.87555 2.20617 9.91499 2.18537 9.94922C2.17149 9.97207 2.16235 9.98785 2.15625 9.99883C2.15625 9.99921 2.15625 9.99959 2.15625 9.99998C2.15625 10.0004 2.15625 10.0008 2.15625 10.0012C2.16227 10.012 2.17127 10.0276 2.1849 10.05C2.20556 10.084 2.23029 10.1232 2.26563 10.1792C2.7983 11.0226 3.8524 12.4999 5.35869 13.7571C6.86263 15.0123 8.75708 16 11.0004 16C12.3533 16 13.5778 15.6414 14.6674 15.0812L13.0322 13.446C12.4368 13.7977 11.7418 14 11.0004 14C8.79128 14 7.00042 12.2091 7.00042 10C7.00042 9.25862 7.20271 8.56362 7.55438 7.96818L5.61828 6.03208ZM9.068 9.4818C9.02388 9.64699 9.00042 9.82065 9.00042 10C9.00042 11.1046 9.89585 12 11.0004 12C11.1798 12 11.3534 11.9765 11.5186 11.9324L9.068 9.4818ZM11.0004 4C10.6186 4 10.2482 4.02849 9.8892 4.08156C9.34286 4.16234 8.83448 3.78492 8.7537 3.23858C8.67292 2.69223 9.05034 2.18385 9.59669 2.10307C10.0505 2.03597 10.5187 2 11.0004 2C13.8621 2 16.1951 3.26472 17.9237 4.70743C19.6499 6.14818 20.8335 7.81429 21.4262 8.75285C21.434 8.76525 21.4421 8.77791 21.4503 8.79083C21.5679 8.97601 21.7207 9.21643 21.7979 9.55331C21.8602 9.82529 21.8602 10.1751 21.7978 10.4471C21.7205 10.7841 21.5671 11.0254 21.449 11.2113C21.4407 11.2243 21.4325 11.2371 21.4246 11.2497C21.1063 11.7536 20.6232 12.4581 19.9832 13.2224C19.6287 13.6459 18.998 13.7017 18.5745 13.3472C18.1511 12.9926 18.0952 12.3619 18.4498 11.9385C19.0211 11.2561 19.4524 10.6267 19.7338 10.1814C19.7694 10.1251 19.7943 10.0855 19.8152 10.0512C19.8292 10.0281 19.8384 10.0122 19.8446 10.0012C19.8446 10.0008 19.8446 10.0004 19.8446 10C19.8446 9.99963 19.8446 9.99922 19.8446 9.99882C19.8386 9.98799 19.8296 9.97245 19.8159 9.95C19.7953 9.91598 19.7705 9.87677 19.7352 9.8208C19.2025 8.97738 18.1484 7.50007 16.6421 6.24291C15.1382 4.9877 13.2437 4 11.0004 4Z" fill="#747883"/>
</svg>
