<svg width="22" height="20" viewBox="0 0 22 20" fill="none" xmlns="http://www.w3.org/2000/svg">
<path fill-rule="evenodd" clip-rule="evenodd" d="M3.53317 1.46768e-06C3.54816 2.18293e-06 3.56319 2.89819e-06 3.57828 2.89819e-06L18.4663 1.46768e-06C18.9948 -2.46392e-05 19.458 -4.75273e-05 19.8215 0.0326311C20.1702 0.0639859 20.6488 0.137596 21.0366 0.457777C21.5182 0.855444 21.7864 1.45528 21.7616 2.07936C21.7416 2.58184 21.4774 2.98756 21.2682 3.26837C21.0502 3.56102 20.7413 3.90621 20.3889 4.30003L14.6526 10.7112C14.5718 10.8015 14.5318 10.8465 14.504 10.8804C14.5033 10.8813 14.5026 10.8821 14.502 10.8829C14.5019 10.884 14.5019 10.885 14.5018 10.8862C14.5 10.9299 14.4997 10.9902 14.4997 11.1113V16.4584C14.4997 16.4693 14.4999 16.4821 14.5 16.4964C14.5015 16.6339 14.5045 16.9193 14.4051 17.1858C14.3215 17.4099 14.1855 17.6108 14.0085 17.7716C13.798 17.9629 13.5319 18.0661 13.4037 18.1158C13.3903 18.121 13.3784 18.1256 13.3683 18.1296L9.94043 19.5008C9.78153 19.5644 9.60584 19.6347 9.45088 19.681C9.2842 19.7307 9.01038 19.7957 8.69457 19.7301C8.30754 19.6497 7.96791 19.4197 7.7495 19.0903C7.57128 18.8214 7.52997 18.543 7.51425 18.3698C7.49963 18.2088 7.49969 18.0196 7.49974 17.8484L7.49975 11.1113C7.49975 10.9901 7.49954 10.9299 7.49767 10.8862C7.49762 10.885 7.49758 10.884 7.49753 10.8829C7.49687 10.8821 7.49619 10.8813 7.49547 10.8804C7.46768 10.8465 7.42768 10.8015 7.34689 10.7112L1.64065 4.33367C1.63059 4.32242 1.62057 4.31122 1.61057 4.30005C1.25817 3.90622 0.949277 3.56103 0.731272 3.26837C0.522098 2.98756 0.257861 2.58184 0.237907 2.07936C0.213123 1.45528 0.481315 0.855444 0.962935 0.457777C1.35071 0.137596 1.82926 0.0639859 2.178 0.0326311C2.54147 -4.75273e-05 3.00469 -2.46392e-05 3.53317 1.46768e-06ZM2.30342 2.03C2.31297 2.04343 2.32353 2.05796 2.33518 2.0736C2.49273 2.28511 2.73969 2.56258 3.13114 3.00008L8.83737 9.37764C8.84758 9.38904 8.85809 9.40073 8.86885 9.4127C8.9864 9.54342 9.13443 9.70805 9.24433 9.90409C9.33967 10.0742 9.40964 10.2573 9.45199 10.4476C9.50081 10.667 9.50026 10.8884 9.49983 11.0642C9.49979 11.0803 9.49975 11.096 9.49975 11.1113V17.523L12.4997 16.323V11.1113C12.4997 11.096 12.4997 11.0803 12.4997 11.0642C12.4992 10.8884 12.4987 10.667 12.5475 10.4476C12.5899 10.2573 12.6598 10.0742 12.7552 9.90409C12.8651 9.70805 13.0131 9.54342 13.1306 9.4127C13.1414 9.40073 13.1519 9.38904 13.1621 9.37764L18.8684 3.00008C19.2598 2.56259 19.5068 2.28511 19.6643 2.0736C19.676 2.05796 19.6865 2.04343 19.6961 2.03C19.6797 2.02816 19.6618 2.02634 19.6424 2.0246C19.3797 2.00098 19.0083 2 18.4212 2H3.57828C2.99123 2 2.61977 2.00098 2.3571 2.0246C2.33766 2.02634 2.3198 2.02816 2.30342 2.03Z" fill="#747883"/>
</svg>
