<svg width="22" height="21" viewBox="0 0 22 21" fill="none" xmlns="http://www.w3.org/2000/svg">
<path fill-rule="evenodd" clip-rule="evenodd" d="M10.9928 2.71698C8.65285 0.672097 5.19239 0.25364 2.50509 2.54973C-0.401699 5.03336 -0.824029 9.21616 1.47459 12.174C2.34712 13.2968 4.05011 14.9836 5.68672 16.5283C7.34249 18.0912 8.99445 19.568 9.80911 20.2895L9.82462 20.3032C9.90121 20.3711 9.99657 20.4556 10.088 20.5245C10.1974 20.6069 10.3545 20.7092 10.5643 20.7718C10.8432 20.855 11.143 20.855 11.422 20.7718C11.6318 20.7092 11.7889 20.6069 11.8983 20.5245C11.9897 20.4556 12.0851 20.3711 12.1617 20.3032L12.1772 20.2895C12.9918 19.568 14.6438 18.0912 16.2996 16.5283C17.9362 14.9836 19.6392 13.2968 20.5117 12.174C22.8015 9.22753 22.4444 5.01246 19.4708 2.54096C16.7536 0.282535 13.33 0.671319 10.9928 2.71698ZM10.2332 4.78582C8.52816 2.79246 5.81788 2.34983 3.80429 4.07029C1.70097 5.8674 1.41795 8.84178 3.05379 10.9468C3.81689 11.9287 5.40668 13.5138 7.05953 15.0739C8.60258 16.5303 10.1461 17.9145 10.9931 18.6664C11.8402 17.9145 13.3837 16.5303 14.9268 15.0739C16.5796 13.5138 18.1694 11.9287 18.9325 10.9468C20.5772 8.83042 20.315 5.84327 18.1924 4.07906C16.1255 2.36112 13.4506 2.80127 11.7531 4.78582C11.5631 5.00794 11.2854 5.13581 10.9931 5.13581C10.7009 5.13581 10.4232 5.00794 10.2332 4.78582Z" fill="#747883"/>
</svg>
