<svg width="16" height="12" viewBox="0 0 16 12" fill="none" xmlns="http://www.w3.org/2000/svg">
<path fill-rule="evenodd" clip-rule="evenodd" d="M0.25 6C0.25 5.58579 0.585786 5.25 1 5.25H15C15.4142 5.25 15.75 5.58579 15.75 6C15.75 6.41421 15.4142 6.75 15 6.75H1C0.585786 6.75 0.25 6.41421 0.25 6Z" fill="#747883"/>
<path fill-rule="evenodd" clip-rule="evenodd" d="M15.5303 5.46967C15.8232 5.76256 15.8232 6.23744 15.5303 6.53033L10.5303 11.5303C10.2374 11.8232 9.76256 11.8232 9.46967 11.5303C9.17678 11.2374 9.17678 10.7626 9.46967 10.4697L14.4697 5.46967C14.7626 5.17678 15.2374 5.17678 15.5303 5.46967Z" fill="#747883"/>
<path fill-rule="evenodd" clip-rule="evenodd" d="M9.46967 0.46967C9.76256 0.176777 10.2374 0.176777 10.5303 0.46967L15.5303 5.46967C15.8232 5.76256 15.8232 6.23744 15.5303 6.53033C15.2374 6.82322 14.7626 6.82322 14.4697 6.53033L9.46967 1.53033C9.17678 1.23744 9.17678 0.762563 9.46967 0.46967Z" fill="#747883"/>
</svg>
