<svg width="16" height="21" viewBox="0 0 16 21" fill="none" xmlns="http://www.w3.org/2000/svg">
<path fill-rule="evenodd" clip-rule="evenodd" d="M8.52203 0.75C8.93625 0.75 9.27203 1.08579 9.27203 1.5V2.55882C9.27203 2.97303 8.93625 3.30882 8.52203 3.30882C8.10782 3.30882 7.77203 2.97303 7.77203 2.55882V1.5C7.77203 1.08579 8.10782 0.75 8.52203 0.75Z" fill="#747883"/>
<path fill-rule="evenodd" clip-rule="evenodd" d="M1.94852 6.79413C1.94852 6.37991 2.2843 6.04413 2.69852 6.04413H3.75734C4.17155 6.04413 4.50734 6.37991 4.50734 6.79413C4.50734 7.20834 4.17155 7.54413 3.75734 7.54413H2.69852C2.2843 7.54413 1.94852 7.20834 1.94852 6.79413Z" fill="#747883"/>
<path fill-rule="evenodd" clip-rule="evenodd" d="M12.5367 6.79413C12.5367 6.37991 12.8725 6.04413 13.2867 6.04413H14.3456C14.7598 6.04413 15.0956 6.37991 15.0956 6.79413C15.0956 7.20834 14.7598 7.54413 14.3456 7.54413H13.2867C12.8725 7.54413 12.5367 7.20834 12.5367 6.79413Z" fill="#747883"/>
<path fill-rule="evenodd" clip-rule="evenodd" d="M4.06653 2.33863C4.35943 2.04573 4.8343 2.04573 5.12719 2.33863L5.87589 3.08733C6.16879 3.38022 6.16879 3.85509 5.87589 4.14799C5.583 4.44088 5.10813 4.44088 4.81523 4.14799L4.06653 3.39929C3.77364 3.10639 3.77364 2.63152 4.06653 2.33863Z" fill="#747883"/>
<path fill-rule="evenodd" clip-rule="evenodd" d="M12.9775 2.33863C13.2704 2.63152 13.2704 3.10639 12.9775 3.39929L12.2288 4.14799C11.936 4.44088 11.4611 4.44088 11.1682 4.14799C10.8753 3.85509 10.8753 3.38022 11.1682 3.08733L11.9169 2.33863C12.2098 2.04573 12.6847 2.04573 12.9775 2.33863Z" fill="#747883"/>
<path fill-rule="evenodd" clip-rule="evenodd" d="M5.24973 10.6365C5.66394 10.6365 5.99973 10.9723 5.99973 11.3865V19.5C5.99973 19.9142 5.66394 20.25 5.24973 20.25C4.83551 20.25 4.49973 19.9142 4.49973 19.5V11.3865C4.49973 10.9723 4.83551 10.6365 5.24973 10.6365Z" fill="#747883"/>
<path fill-rule="evenodd" clip-rule="evenodd" d="M9.91907 11.3865C9.91907 10.9723 10.2549 10.6365 10.6691 10.6365H12.9165C13.789 10.6365 14.6145 11.0321 15.1611 11.7121C15.7077 12.3921 15.9166 13.2833 15.729 14.1354L14.8806 17.9893C14.59 19.3096 13.4201 20.25 12.0682 20.25C11.654 20.25 11.3182 19.9142 11.3182 19.5C11.3182 19.0858 11.654 18.75 12.0682 18.75C12.7159 18.75 13.2765 18.2994 13.4157 17.6668L14.2641 13.8129L14.9965 13.9742" fill="#747883"/>
<path fill-rule="evenodd" clip-rule="evenodd" d="M2.26799 12.1365C2.09408 12.1365 1.9531 12.2775 1.95309 12.4514C1.95309 12.4514 1.95309 12.4514 1.95309 12.4514V18.4351C1.95309 18.609 2.09408 18.75 2.26799 18.75H12.0682C12.4824 18.75 12.8182 19.0858 12.8182 19.5C12.8182 19.9142 12.4824 20.25 12.0682 20.25H2.26799C1.26565 20.25 0.453094 19.4374 0.453094 18.4351V12.4514C0.453104 11.4491 1.26566 10.6365 2.26799 10.6365H5.25984C5.67406 10.6365 6.00984 10.9723 6.00984 11.3865C6.00984 11.8007 5.67406 12.1365 5.25984 12.1365H2.26799Z" fill="#747883"/>
<path fill-rule="evenodd" clip-rule="evenodd" d="M6.4927 7.40156C7.12968 6.18048 8.62772 5.69515 9.85974 6.31071L10.219 6.4902L9.88515 7.15834L10.219 6.4902C10.9544 6.85765 11.419 7.60916 11.419 8.43127V11.3865C11.419 11.8007 11.0832 12.1365 10.669 12.1365C10.2548 12.1365 9.91901 11.8007 9.91901 11.3865V8.43127C9.91901 8.17747 9.77558 7.94547 9.54854 7.83204L9.1893 7.65255L9.52452 6.98163L9.1893 7.65255C8.68923 7.40269 8.08117 7.59968 7.82262 8.09532C7.82262 8.09532 7.82262 8.09532 7.82262 8.09532L5.92482 11.7334C5.73325 12.1006 5.28023 12.243 4.91298 12.0515C4.54573 11.8599 4.40332 11.4069 4.5949 11.0396L6.4927 7.40156L6.4927 7.40156Z" fill="#747883"/>
</svg>
