<svg width="20" height="16" viewBox="0 0 20 16" fill="none" xmlns="http://www.w3.org/2000/svg">
<path fill-rule="evenodd" clip-rule="evenodd" d="M5.28029 4.72366e-07H14.7197C15.442 -1.25214e-05 16.0425 -2.31303e-05 16.5325 0.0389044C17.0424 0.079407 17.5189 0.16675 17.9697 0.390029C18.6635 0.733729 19.2329 1.28484 19.5915 1.96908C19.8152 2.3961 19.9088 2.84667 19.9535 3.32286C20.0033 3.47961 20.0126 3.64415 19.9842 3.80185C20 4.19521 20 4.64665 20 5.15859V10.8414C20 11.5412 20 12.128 19.9597 12.6078C19.9175 13.1097 19.8261 13.5832 19.5915 14.0309C19.2329 14.7152 18.6635 15.2663 17.9697 15.61C17.5189 15.8333 17.0424 15.9206 16.5325 15.9611C16.0425 16 15.442 16 14.7197 16H5.2803C4.55801 16 3.95753 16 3.46747 15.9611C2.95758 15.9206 2.48107 15.8333 2.03034 15.61C1.33652 15.2663 0.767156 14.7152 0.408557 14.0309C0.173935 13.5832 0.0824772 13.1097 0.0403038 12.6078C-2.31229e-05 12.128 -1.0129e-05 11.5412 5.24895e-06 10.8414V5.15857C-5.95672e-06 4.64663 -1.59703e-05 4.1952 0.0157676 3.80185C-0.0125779 3.64415 -0.00327122 3.47961 0.0464674 3.32286C0.0912244 2.84667 0.184763 2.3961 0.408557 1.96908C0.767156 1.28484 1.33652 0.733729 2.03034 0.390029C2.48107 0.16675 2.95758 0.079407 3.46747 0.0389044C3.95753 -2.31303e-05 4.558 -1.25214e-05 5.28029 4.72366e-07ZM2.00001 5.51517V10.8C2.00001 11.552 2.00083 12.0542 2.03328 12.4404C2.06468 12.814 2.12036 12.9887 2.18002 13.1025C2.33914 13.4061 2.59587 13.6582 2.91812 13.8178C3.04496 13.8806 3.23527 13.9364 3.62584 13.9674C4.02728 13.9993 4.54789 14 5.32001 14H14.68C15.4521 14 15.9727 13.9993 16.3742 13.9674C16.7647 13.9364 16.9551 13.8806 17.0819 13.8178C17.4041 13.6582 17.6609 13.4061 17.82 13.1025C17.8797 12.9887 17.9353 12.814 17.9667 12.4404C17.9992 12.0542 18 11.552 18 10.8V5.51517L12.2142 9.45273C12.1782 9.47723 12.1425 9.50163 12.107 9.52588C11.6209 9.85786 11.1768 10.1612 10.6709 10.2838C10.2302 10.3906 9.76976 10.3906 9.32912 10.2838C8.82322 10.1612 8.37912 9.85786 7.89305 9.52588C7.85754 9.50163 7.82181 9.47723 7.78581 9.45273L2.00001 5.51517ZM17.91 3.15718L11.089 7.7993C10.4276 8.24939 10.3042 8.31472 10.1998 8.34003C10.0688 8.3718 9.93126 8.3718 9.80017 8.34003C9.69576 8.31472 9.5724 8.24938 8.91106 7.7993L2.08998 3.15718C2.1167 3.0383 2.14778 2.959 2.18002 2.89747C2.33914 2.59386 2.59587 2.34182 2.91812 2.18219C3.04496 2.11936 3.23527 2.06365 3.62584 2.03262C4.02728 2.00074 4.54789 2 5.32001 2H14.68C15.4521 2 15.9727 2.00074 16.3742 2.03262C16.7647 2.06365 16.9551 2.11936 17.0819 2.18219C17.4041 2.34182 17.6609 2.59386 17.82 2.89747C17.8522 2.959 17.8833 3.0383 17.91 3.15718Z" fill="#9A9C9E"/>
</svg>
