<svg width="18" height="22" viewBox="0 0 18 22" fill="none" xmlns="http://www.w3.org/2000/svg">
<path fill-rule="evenodd" clip-rule="evenodd" d="M9 2C5.13401 2 2 5.13401 2 9C2 10.8921 2.85317 12.678 4.29228 14.5467C5.50741 16.1245 7.06274 17.6673 8.73228 19.3233C8.8212 19.4115 8.91046 19.5 9 19.5889C9.08954 19.5 9.1788 19.4115 9.26773 19.3233C10.9373 17.6673 12.4926 16.1245 13.7077 14.5467C15.1468 12.678 16 10.8921 16 9C16 5.13401 12.866 2 9 2ZM0 9C0 4.02944 4.02944 0 9 0C13.9706 0 18 4.02944 18 9C18 11.5262 16.8532 13.7402 15.2923 15.767C13.988 17.4607 12.3185 19.1156 10.6508 20.7689C10.3354 21.0816 10.02 21.3943 9.70711 21.7071C9.31658 22.0976 8.68342 22.0976 8.29289 21.7071C7.98004 21.3943 7.66463 21.0816 7.34917 20.7689C5.68147 19.1156 4.01205 17.4607 2.70772 15.767C1.14683 13.7402 0 11.5262 0 9ZM9 7C7.89543 7 7 7.89543 7 9C7 10.1046 7.89543 11 9 11C10.1046 11 11 10.1046 11 9C11 7.89543 10.1046 7 9 7ZM5 9C5 6.79086 6.79086 5 9 5C11.2091 5 13 6.79086 13 9C13 11.2091 11.2091 13 9 13C6.79086 13 5 11.2091 5 9Z" fill="#747883"/>
</svg>
