<svg width="20" height="20" viewBox="0 0 20 20" fill="none" xmlns="http://www.w3.org/2000/svg">
<path fill-rule="evenodd" clip-rule="evenodd" d="M4.6501 11.2635C4.9464 11.5529 4.95195 12.0278 4.6625 12.3241L2.19971 14.8452L3.88588 15.8569C3.99144 15.9202 4.07979 16.0086 4.14313 16.1141L5.13622 17.7693L8.35584 14.3878C8.64146 14.0878 9.11619 14.0762 9.41618 14.3618C9.71616 14.6474 9.7278 15.1222 9.44218 15.4222L5.54318 19.5172C5.38169 19.6868 5.15026 19.7712 4.9175 19.7454C4.68474 19.7197 4.47737 19.5867 4.35689 19.3859L2.95335 17.0466L0.614134 15.6431C0.417415 15.5251 0.285535 15.3235 0.256174 15.096C0.226812 14.8685 0.303199 14.64 0.463509 14.4759L3.58951 11.2759C3.87896 10.9796 4.3538 10.974 4.6501 11.2635Z" fill="#747883"/>
<path fill-rule="evenodd" clip-rule="evenodd" d="M15.3499 11.2635C15.6462 10.974 16.1211 10.9796 16.4105 11.2759L19.5365 14.4759C19.6968 14.64 19.7732 14.8685 19.7438 15.096C19.7145 15.3235 19.5826 15.5251 19.3859 15.6431L17.0467 17.0466L15.6431 19.3859C15.5226 19.5867 15.3153 19.7197 15.0825 19.7454C14.8498 19.7712 14.6183 19.6868 14.4568 19.5172L10.5578 15.4222C10.2722 15.1222 10.2839 14.6474 10.5838 14.3618C10.8838 14.0762 11.3586 14.0878 11.6442 14.3878L14.8638 17.7693L15.8569 16.1141C15.9202 16.0086 16.0086 15.9202 16.1141 15.8569L17.8003 14.8452L15.3375 12.3241C15.0481 12.0278 15.0536 11.5529 15.3499 11.2635Z" fill="#747883"/>
<path fill-rule="evenodd" clip-rule="evenodd" d="M14.4194 3.58058C11.9786 1.13981 8.02133 1.13981 5.58055 3.58058C3.13978 6.02136 3.13978 9.97864 5.58055 12.4194C8.02133 14.8602 11.9786 14.8602 14.4194 12.4194C16.8602 9.97864 16.8602 6.02136 14.4194 3.58058ZM15.48 2.51992C12.4535 -0.506641 7.54645 -0.506641 4.51989 2.51992C1.49333 5.54649 1.49333 10.4535 4.51989 13.4801C7.54645 16.5066 12.4535 16.5066 15.48 13.4801C18.5066 10.4535 18.5066 5.54649 15.48 2.51992Z" fill="#747883"/>
<path fill-rule="evenodd" clip-rule="evenodd" d="M8.90035 4.3493C9.35039 3.43655 10.6507 3.43658 11.1007 4.3494L11.8242 5.81655L13.4429 6.05181C14.4497 6.19859 14.8498 7.43579 14.1227 8.14494L12.9509 9.2861L13.2272 10.898C13.2272 10.8981 13.2272 10.8979 13.2272 10.898C13.3992 11.9008 12.3472 12.6649 11.4472 12.192L10.001 11.4322L8.55301 12.1929C8.55294 12.1929 8.55307 12.1928 8.55301 12.1929C7.65302 12.6658 6.60074 11.902 6.77279 10.8993C6.77281 10.8992 6.77277 10.8994 6.77279 10.8993L7.04914 9.2871L5.87775 8.14632C5.15061 7.43717 5.54996 6.19964 6.55682 6.05286L8.17671 5.81672L8.90035 4.3493C8.90037 4.34927 8.90034 4.34934 8.90035 4.3493ZM10.3591 9.92598C10.347 9.9194 10.3347 9.91314 10.3222 9.90722C10.095 9.7987 9.8277 9.81124 9.61113 9.94211C9.60904 9.94337 9.60696 9.94463 9.60489 9.94591L8.34461 10.608L8.59423 9.15173C8.63595 8.90833 8.55518 8.66 8.37827 8.48771L7.32033 7.45741L8.78319 7.24417C9.02742 7.20857 9.23851 7.05509 9.34767 6.83373L10.0005 5.50987L10.6534 6.83373C10.7626 7.05518 10.9738 7.2087 11.2181 7.24422L12.6795 7.45662L11.6217 8.48671C11.4448 8.659 11.3641 8.90733 11.4058 9.15073L11.6554 10.607L10.3591 9.92598ZM11.7488 11.1517C11.7488 11.1518 11.7488 11.1517 11.7488 11.1517Z" fill="#747883"/>
</svg>
