<svg width="18" height="18" viewBox="0 0 18 18" fill="none" xmlns="http://www.w3.org/2000/svg">
<path fill-rule="evenodd" clip-rule="evenodd" d="M3.87631 1.75C3.51491 1.75 3.13501 1.89425 2.73555 2.28688L2.72987 2.29247L2.72407 2.29793C2.37472 2.62701 2.13553 2.984 1.98622 3.36295L1.98466 3.36691C1.83025 3.75236 1.75 4.17703 1.75 4.632C1.75 5.34651 1.91487 6.119 2.26749 6.95553C2.62633 7.79877 3.12483 8.66157 3.75452 9.5359C4.39539 10.4146 5.11446 11.2564 5.91251 12.0613C6.71885 12.8584 7.56272 13.5771 8.45212 14.2258C9.32438 14.8598 10.1965 15.3584 11.0603 15.7259C11.9064 16.0859 12.6798 16.25 13.3786 16.25C13.8444 16.25 14.2669 16.1641 14.6528 16.0035L14.6569 16.0019C15.0305 15.849 15.3732 15.607 15.6995 15.2479M1.68981 1.21149C2.31468 0.599604 3.05445 0.25 3.87631 0.25C4.20368 0.25 4.53781 0.31932 4.84431 0.465219C5.16067 0.611991 5.45051 0.83748 5.67571 1.16073L7.53082 3.77156C7.70012 4.00664 7.83472 4.23952 7.93299 4.47787C8.03311 4.71277 8.10353 4.98028 8.10353 5.256C8.10353 5.59502 8.00463 5.9169 7.83211 6.20375C7.68772 6.45607 7.49297 6.69591 7.2719 6.91737L6.79451 7.41286C6.9124 7.60798 7.10945 7.87821 7.40227 8.22398C7.75291 8.62846 8.12424 9.0377 8.52451 9.44531C8.949 9.86119 9.34942 10.2374 9.75271 10.5793C10.1029 10.8752 10.3775 11.0685 10.5796 11.1847L11.0558 10.7154C11.2799 10.4919 11.5254 10.2894 11.7924 10.1464C12.0738 9.97966 12.3844 9.882 12.7296 9.882C12.9916 9.882 13.248 9.93796 13.5019 10.0417C13.7411 10.1394 13.9723 10.2726 14.2005 10.4275L14.2067 10.4318L16.8616 12.3138C17.1645 12.5241 17.4067 12.794 17.5581 13.1376L17.5633 13.1492L17.568 13.1611C17.6756 13.4297 17.75 13.7249 17.75 14.064C17.75 14.4647 17.6606 14.87 17.4777 15.2566C17.3117 15.6077 17.095 15.9423 16.8102 16.2561C16.3521 16.7602 15.8299 17.1422 15.2271 17.3893C14.6521 17.6282 14.0337 17.75 13.3786 17.75C12.4429 17.75 11.4697 17.5302 10.473 17.1061C9.49422 16.6897 8.52378 16.1324 7.5695 15.4386L7.56857 15.438C6.61627 14.7434 5.71449 13.975 4.85521 13.1253L4.85006 13.1202C3.99919 12.2623 3.22934 11.3616 2.54121 10.4179L2.53867 10.4144C1.85525 9.4657 1.29676 8.50546 0.886721 7.5416L0.885792 7.53942C0.469564 6.55236 0.25 5.58119 0.25 4.632C0.25 3.9997 0.361798 3.38505 0.59143 2.81107C0.825822 2.21709 1.19335 1.6806 1.68981 1.21149ZM3.87631 1.75C3.9958 1.75 4.10844 1.77591 4.20114 1.82033ZM4.44575 2.01934C4.38411 1.93044 4.30838 1.86985 4.21138 1.82515L4.20114 1.82033M4.44575 2.01934L6.3095 4.64241ZM6.54735 5.05234C6.50192 4.94146 6.42955 4.80893 6.31254 4.64666L6.3095 4.64241M6.60353 5.256C6.60353 5.22995 6.59497 5.16355 6.55216 5.06381L6.54735 5.05234M6.60353 5.256C6.60353 5.29679 6.59273 5.35513 6.54489 5.43361ZM6.54489 5.43361L6.53857 5.44398ZM6.53857 5.44398L6.53259 5.45454ZM6.53259 5.45454C6.4704 5.56441 6.36496 5.70322 6.20667 5.86127ZM6.20667 5.86127L6.20154 5.8664ZM6.20154 5.8664L6.1965 5.87163ZM6.1965 5.87163L5.59153 6.49953ZM5.59153 6.49953C5.35536 6.73866 5.2495 7.03647 5.2495 7.344C5.2495 7.47916 5.26762 7.59685 5.29599 7.71016L5.30638 7.75165L5.32142 7.79169C5.33832 7.83668 5.35529 7.87664 5.36524 7.90004C5.36624 7.9024 5.36717 7.90459 5.36802 7.9066C5.37403 7.92079 5.37672 7.92743 5.37757 7.92952L5.39739 7.98889L5.42944 8.04755C5.60916 8.37655 5.89476 8.76521 6.26057 9.19688L6.26599 9.2032C6.63417 9.62802 7.02948 10.064 7.45953 10.5017L7.46449 10.5067L7.46954 10.5117C7.90823 10.9416 8.33926 11.3475 8.7834 11.7241L8.78437 11.7249C9.22321 12.0957 9.61362 12.3725 9.95145 12.5511L9.98672 12.5697L10.0233 12.5843C10.0236 12.5844 10.0256 12.5853 10.03 12.5872L10.0559 12.599C10.0773 12.6088 10.1127 12.6251 10.1511 12.6415L10.167 12.6483L10.1832 12.6544C10.3568 12.7194 10.5164 12.734 10.6465 12.734C10.9908 12.734 11.2819 12.6004 11.5028 12.3808L12.1103 11.7822L12.1138 11.7787C12.2837 11.609 12.4149 11.5133 12.5073 11.4652L12.5292 11.4537L12.5503 11.4409C12.6318 11.3914 12.6829 11.382 12.7296 11.382C12.7721 11.382 12.8361 11.39 12.9347 11.4303C13.0467 11.4761 13.1822 11.5497 13.3518 11.6644L15.9974 13.5399L16.0047 13.5449C16.1101 13.6178 16.1559 13.68 16.1811 13.7329C16.2298 13.8578 16.25 13.959 16.25 14.064C16.25 14.2393 16.2113 14.426 16.1217 14.6154C16.0154 14.8402 15.8793 15.0498 15.6995 15.2479" fill="#747883"/>
</svg>
