<svg width="22" height="20" viewBox="0 0 22 20" fill="none" xmlns="http://www.w3.org/2000/svg">
<path fill-rule="evenodd" clip-rule="evenodd" d="M11 0C11.5523 0 12 0.447715 12 1V4.81954L16.8356 4.01361C17.2485 3.94479 17.6606 4.14042 17.8683 4.50386L21.4466 10.766C21.4555 10.7816 21.4644 10.797 21.4731 10.8123C21.6043 11.0416 21.7201 11.244 21.8041 11.4648C21.878 11.659 21.9315 11.8605 21.9637 12.0658C22.0003 12.2991 22.0002 12.5323 22 12.7964C22 12.8141 22 12.8319 22 12.8498V13C22 15.7614 19.7614 18 17 18C14.2386 18 12 15.7614 12 13V12.8498C12 12.8319 12 12.8141 12 12.7964C11.9998 12.5323 11.9997 12.2991 12.0363 12.0658C12.0686 11.8605 12.1221 11.659 12.1959 11.4648C12.2799 11.244 12.3957 11.0416 12.5269 10.8124C12.5357 10.797 12.5445 10.7816 12.5534 10.766L15.0867 6.33267L11.183 6.9833C11.1715 6.98543 11.1599 6.98736 11.1482 6.9891L6.58055 7.75037L9.44663 12.766C9.45553 12.7816 9.46437 12.797 9.47314 12.8124C9.60434 13.0416 9.72014 13.244 9.80409 13.4648C9.87797 13.659 9.93146 13.8605 9.9637 14.0658C10.0003 14.2991 10.0002 14.5323 10 14.7964C10 14.8141 10 14.8319 10 14.8498V15C10 17.7614 7.76144 20 5.00001 20C2.23859 20 1.23689e-05 17.7614 1.23689e-05 15V14.8498C1.23689e-05 14.8319 1.52085e-06 14.8141 -9.32719e-06 14.7964C-0.000170975 14.5323 -0.000313669 14.2991 0.036323 14.0658C0.0685629 13.8605 0.122054 13.659 0.195933 13.4648C0.279889 13.244 0.395683 13.0416 0.526888 12.8124C0.535655 12.797 0.544492 12.7816 0.553391 12.766L4.13177 6.50386C4.28083 6.24301 4.53927 6.063 4.83561 6.01361L10 5.15287V1C10 0.447715 10.4477 0 11 0ZM2.72319 13L5.00001 9.01556L7.27683 13H2.72319ZM8.00001 15H2.00001C2.00001 16.6569 3.34316 18 5.00001 18C6.65687 18 8.00001 16.6569 8.00001 15ZM17 7.01556L14.7232 11H19.2768L17 7.01556ZM20 13H14C14 14.6569 15.3432 16 17 16C18.6569 16 20 14.6569 20 13Z" fill="#747883"/>
</svg>
