<svg width="19" height="19" viewBox="0 0 19 19" fill="none" xmlns="http://www.w3.org/2000/svg">
<path fill-rule="evenodd" clip-rule="evenodd" d="M8.5 1.75C4.77208 1.75 1.75 4.77208 1.75 8.5C1.75 12.2279 4.77208 15.25 8.5 15.25C12.2279 15.25 15.25 12.2279 15.25 8.5C15.25 4.77208 12.2279 1.75 8.5 1.75ZM0.25 8.5C0.25 3.94365 3.94365 0.25 8.5 0.25C13.0563 0.25 16.75 3.94365 16.75 8.5C16.75 13.0563 13.0563 16.75 8.5 16.75C3.94365 16.75 0.25 13.0563 0.25 8.5Z" fill="#747883"/>
<path fill-rule="evenodd" clip-rule="evenodd" d="M13.4697 13.4697C13.7626 13.1768 14.2374 13.1768 14.5303 13.4697L18.5303 17.4697C18.8232 17.7626 18.8232 18.2374 18.5303 18.5303C18.2374 18.8232 17.7626 18.8232 17.4697 18.5303L13.4697 14.5303C13.1768 14.2374 13.1768 13.7626 13.4697 13.4697Z" fill="#747883"/>
</svg>
