<svg width="22" height="22" viewBox="0 0 22 22" fill="none" xmlns="http://www.w3.org/2000/svg">
<path fill-rule="evenodd" clip-rule="evenodd" d="M11 0.5C11.3992 0.5 11.7602 0.737477 11.9183 1.1041L14.5263 7.15332L21.0923 7.76162C21.4901 7.79847 21.8278 8.06857 21.9511 8.44855C22.0745 8.82854 21.9599 9.24549 21.6596 9.509L16.7063 13.8556L18.1558 20.2799C18.2437 20.6695 18.0914 21.074 17.7684 21.3088C17.4454 21.5436 17.0137 21.5638 16.6702 21.3601L11 17.997L5.3298 21.3601C4.98633 21.5638 4.55457 21.5436 4.23158 21.3088C3.90859 21.074 3.75629 20.6695 3.84418 20.2799L5.29371 13.8556L0.340428 9.509C0.0401391 9.24549 -0.0744958 8.82854 0.0488746 8.44855C0.172245 8.06857 0.509944 7.79847 0.907751 7.76162L7.47375 7.15332L10.0817 1.1041C10.2398 0.737477 10.6008 0.5 11 0.5ZM11 4.0259L9.07534 8.49019C8.93047 8.82621 8.61365 9.05628 8.24929 9.09003L3.40653 9.53868L7.05957 12.7443C7.3349 12.9859 7.4561 13.3587 7.37548 13.716L6.30605 18.4557L10.4899 15.9742C10.8044 15.7877 11.1956 15.7877 11.5101 15.9742L15.6939 18.4557L14.6245 13.716C14.5439 13.3587 14.6651 12.9859 14.9404 12.7443L18.5935 9.53868L13.7507 9.09003C13.3864 9.05628 13.0695 8.82621 12.9247 8.49019L11 4.0259Z" fill="#0867D6"/>
<path fill-rule="evenodd" clip-rule="evenodd" d="M11 0.5C11.3992 0.5 11.7602 0.737477 11.9183 1.1041L14.5263 7.15332L21.0923 7.76162C21.4901 7.79847 21.8278 8.06857 21.9511 8.44855C22.0745 8.82854 21.9599 9.24549 21.6596 9.509L16.7063 13.8556L18.1558 20.2799C18.2437 20.6695 18.0914 21.074 17.7684 21.3088C17.4454 21.5436 17.0137 21.5638 16.6702 21.3601L11 17.997L5.3298 21.3601C4.98633 21.5638 4.55457 21.5436 4.23158 21.3088C3.90859 21.074 3.75629 20.6695 3.84418 20.2799L5.29371 13.8556L0.340428 9.509C0.0401391 9.24549 -0.0744958 8.82854 0.0488746 8.44855C0.172245 8.06857 0.509944 7.79847 0.907751 7.76162L7.47375 7.15332L10.0817 1.1041C10.2398 0.737477 10.6008 0.5 11 0.5ZM11 4.0259L9.07534 8.49019C8.93047 8.82621 8.61365 9.05628 8.24929 9.09003L3.40653 9.53868L7.05957 12.7443C7.3349 12.9859 7.4561 13.3587 7.37548 13.716L6.30605 18.4557L10.4899 15.9742C10.8044 15.7877 11.1956 15.7877 11.5101 15.9742L15.6939 18.4557L14.6245 13.716C14.5439 13.3587 14.6651 12.9859 14.9404 12.7443L18.5935 9.53868L13.7507 9.09003C13.3864 9.05628 13.0695 8.82621 12.9247 8.49019L11 4.0259Z" fill="#EEEE36"/>
<path fill-rule="evenodd" clip-rule="evenodd" d="M11 0.5C11.3992 0.5 11.7602 0.737477 11.9183 1.1041L14.5263 7.15332L21.0923 7.76162C21.4901 7.79847 21.8278 8.06857 21.9511 8.44855C22.0745 8.82854 21.9599 9.24549 21.6596 9.509L16.7063 13.8556L18.1558 20.2799C18.2437 20.6695 18.0914 21.074 17.7684 21.3088C17.4454 21.5436 17.0137 21.5638 16.6702 21.3601L11 17.997L5.3298 21.3601C4.98633 21.5638 4.55457 21.5436 4.23158 21.3088C3.90859 21.074 3.75629 20.6695 3.84418 20.2799L5.29371 13.8556L0.340428 9.509C0.0401391 9.24549 -0.0744958 8.82854 0.0488746 8.44855C0.172245 8.06857 0.509944 7.79847 0.907751 7.76162L7.47375 7.15332L10.0817 1.1041C10.2398 0.737477 10.6008 0.5 11 0.5ZM11 4.0259L9.07534 8.49019C8.93047 8.82621 8.61365 9.05628 8.24929 9.09003L3.40653 9.53868L7.05957 12.7443C7.3349 12.9859 7.4561 13.3587 7.37548 13.716L6.30605 18.4557L10.4899 15.9742C10.8044 15.7877 11.1956 15.7877 11.5101 15.9742L15.6939 18.4557L14.6245 13.716C14.5439 13.3587 14.6651 12.9859 14.9404 12.7443L18.5935 9.53868L13.7507 9.09003C13.3864 9.05628 13.0695 8.82621 12.9247 8.49019L11 4.0259Z" fill="#F1DA09"/>
</svg>
