<svg width="20" height="20" viewBox="0 0 20 20" fill="none" xmlns="http://www.w3.org/2000/svg">
<path fill-rule="evenodd" clip-rule="evenodd" d="M10 2.5C5.85786 2.5 2.5 5.85786 2.5 10C2.5 14.1421 5.85786 17.5 10 17.5C14.1421 17.5 17.5 14.1421 17.5 10C17.5 5.85786 14.1421 2.5 10 2.5ZM0.5 10C0.5 4.75329 4.75329 0.5 10 0.5C15.2467 0.5 19.5 4.75329 19.5 10C19.5 15.2467 15.2467 19.5 10 19.5C4.75329 19.5 0.5 15.2467 0.5 10ZM10 3.9C10.5523 3.9 11 4.34772 11 4.9V9.38197L13.8472 10.8056C14.3412 11.0526 14.5414 11.6532 14.2944 12.1472C14.0474 12.6412 13.4468 12.8414 12.9528 12.5944L9.55279 10.8944C9.214 10.725 9 10.3788 9 10V4.9C9 4.34772 9.44772 3.9 10 3.9Z" fill="#747883"/>
</svg>
