<svg width="20" height="22" viewBox="0 0 20 22" fill="none" xmlns="http://www.w3.org/2000/svg">
<path fill-rule="evenodd" clip-rule="evenodd" d="M11.3982 0.0826934C11.8054 0.259462 12.0473 0.683531 11.9923 1.12403L11.1328 8L17.3278 7.99999C17.5688 7.99995 17.8129 7.9999 18.0123 8.01796C18.2009 8.03503 18.5621 8.08021 18.8753 8.33332C19.2338 8.62308 19.4393 9.06164 19.4323 9.52261C19.4262 9.92527 19.2297 10.2316 19.1221 10.3875C19.0083 10.5522 18.852 10.7397 18.6977 10.9248L9.76822 21.6402C9.48403 21.9812 9.00902 22.0941 8.60181 21.9173C8.19459 21.7405 7.95266 21.3165 8.00772 20.876L8.86722 14L2.67223 14C2.43123 14 2.18714 14.0001 1.98771 13.982C1.79911 13.965 1.43794 13.9198 1.12473 13.6667C0.766151 13.3769 0.56074 12.9383 0.567691 12.4774C0.573763 12.0747 0.770271 11.7684 0.877896 11.6125C0.991701 11.4478 1.14801 11.2603 1.30233 11.0751C1.30997 11.066 1.31761 11.0568 1.32523 11.0477L10.2318 0.35981C10.516 0.0187764 10.991 -0.0940753 11.3982 0.0826934ZM3.13504 12H10C10.2868 12 10.5599 12.1232 10.7497 12.3382C10.9395 12.5532 11.0279 12.8394 10.9923 13.124L10.4153 17.7395L16.865 10H10C9.71317 10 9.44015 9.87683 9.25032 9.6618C9.0605 9.44677 8.97214 9.16058 9.00772 8.87596L9.58466 4.26045L3.13504 12Z" fill="#747883"/>
</svg>
