<svg width="64" height="64" viewBox="0 0 64 64" fill="none" xmlns="http://www.w3.org/2000/svg">
<path d="M48.9463 45.5653C58.3517 36.3253 58.3517 21.5013 48.9463 12.2613C39.541 3.0213 24.4557 3.0213 15.053 12.2613C5.65033 21.5013 5.64767 36.3253 15.053 45.5653" stroke="#0867D6" stroke-width="2" stroke-linecap="round" stroke-linejoin="round"/>
<path d="M48.9463 45.5653C58.3517 36.3253 58.3517 21.5013 48.9463 12.2613C39.541 3.0213 24.4557 3.0213 15.053 12.2613C5.65033 21.5013 5.64767 36.3253 15.053 45.5653" stroke="#0696E7" stroke-width="2" stroke-linecap="round" stroke-linejoin="round"/>
<path d="M48.9463 45.5653C58.3517 36.3253 58.3517 21.5013 48.9463 12.2613C39.541 3.0213 24.4557 3.0213 15.053 12.2613C5.65033 21.5013 5.64767 36.3253 15.053 45.5653" stroke="#208EE2" stroke-width="2" stroke-linecap="round" stroke-linejoin="round"/>
<path fill-rule="evenodd" clip-rule="evenodd" d="M10.9336 56H53.6003H10.9336Z" stroke="#0867D6" stroke-width="2" stroke-linecap="round" stroke-linejoin="round"/>
<path fill-rule="evenodd" clip-rule="evenodd" d="M10.9336 56H53.6003H10.9336Z" stroke="#0696E7" stroke-width="2" stroke-linecap="round" stroke-linejoin="round"/>
<path fill-rule="evenodd" clip-rule="evenodd" d="M10.9336 56H53.6003H10.9336Z" stroke="#208EE2" stroke-width="2" stroke-linecap="round" stroke-linejoin="round"/>
<path d="M34.666 37.3333H22.666" stroke="#0867D6" stroke-width="2" stroke-linecap="round" stroke-linejoin="round"/>
<path d="M34.666 37.3333H22.666" stroke="#0696E7" stroke-width="2" stroke-linecap="round" stroke-linejoin="round"/>
<path d="M34.666 37.3333H22.666" stroke="#208EE2" stroke-width="2" stroke-linecap="round" stroke-linejoin="round"/>
<path d="M27.1967 42.6666V18.6666H35.6687V18.6666C38.7967 18.6666 41.3327 21.2026 41.3327 24.3306V24.3306C41.3327 27.4586 38.7967 29.9946 35.6687 29.9946V29.9946H22.666" stroke="#0867D6" stroke-width="2" stroke-linecap="round" stroke-linejoin="round"/>
<path d="M27.1967 42.6666V18.6666H35.6687V18.6666C38.7967 18.6666 41.3327 21.2026 41.3327 24.3306V24.3306C41.3327 27.4586 38.7967 29.9946 35.6687 29.9946V29.9946H22.666" stroke="#0696E7" stroke-width="2" stroke-linecap="round" stroke-linejoin="round"/>
<path d="M27.1967 42.6666V18.6666H35.6687V18.6666C38.7967 18.6666 41.3327 21.2026 41.3327 24.3306V24.3306C41.3327 27.4586 38.7967 29.9946 35.6687 29.9946V29.9946H22.666" stroke="#208EE2" stroke-width="2" stroke-linecap="round" stroke-linejoin="round"/>
</svg>
