<svg width="64" height="64" viewBox="0 0 64 64" fill="none" xmlns="http://www.w3.org/2000/svg">
<path fill-rule="evenodd" clip-rule="evenodd" d="M40.8908 50.6745L36.4462 53.3422L31.999 50.6745L27.5519 53.3422L23.1073 50.6745L18.6602 53.3422V18.6611H45.3379V53.3422L40.8908 50.6745Z" stroke="#0867D6" stroke-width="2" stroke-linecap="round" stroke-linejoin="round"/>
<path fill-rule="evenodd" clip-rule="evenodd" d="M40.8908 50.6745L36.4462 53.3422L31.999 50.6745L27.5519 53.3422L23.1073 50.6745L18.6602 53.3422V18.6611H45.3379V53.3422L40.8908 50.6745Z" stroke="#0696E7" stroke-width="2" stroke-linecap="round" stroke-linejoin="round"/>
<path fill-rule="evenodd" clip-rule="evenodd" d="M40.8908 50.6745L36.4462 53.3422L31.999 50.6745L27.5519 53.3422L23.1073 50.6745L18.6602 53.3422V18.6611H45.3379V53.3422L40.8908 50.6745Z" stroke="#208EE2" stroke-width="2" stroke-linecap="round" stroke-linejoin="round"/>
<path d="M26.6641 42.6712H37.3352" stroke="#0867D6" stroke-width="2" stroke-linecap="round" stroke-linejoin="round"/>
<path d="M26.6641 42.6712H37.3352" stroke="#0696E7" stroke-width="2" stroke-linecap="round" stroke-linejoin="round"/>
<path d="M26.6641 42.6712H37.3352" stroke="#208EE2" stroke-width="2" stroke-linecap="round" stroke-linejoin="round"/>
<path d="M45.3388 29.3322H50.6743C53.8253 29.1084 56.2067 26.3864 56.0099 23.2337V14.0885C56.2067 10.9358 53.8253 8.21377 50.6743 7.98999H13.3254C10.1745 8.21377 7.79304 10.9358 7.98989 14.0885V23.2363C7.79308 26.3886 10.1749 29.1098 13.3254 29.3322H18.661" stroke="#0867D6" stroke-width="2" stroke-linecap="round" stroke-linejoin="round"/>
<path d="M45.3388 29.3322H50.6743C53.8253 29.1084 56.2067 26.3864 56.0099 23.2337V14.0885C56.2067 10.9358 53.8253 8.21377 50.6743 7.98999H13.3254C10.1745 8.21377 7.79304 10.9358 7.98989 14.0885V23.2363C7.79308 26.3886 10.1749 29.1098 13.3254 29.3322H18.661" stroke="#0696E7" stroke-width="2" stroke-linecap="round" stroke-linejoin="round"/>
<path d="M45.3388 29.3322H50.6743C53.8253 29.1084 56.2067 26.3864 56.0099 23.2337V14.0885C56.2067 10.9358 53.8253 8.21377 50.6743 7.98999H13.3254C10.1745 8.21377 7.79304 10.9358 7.98989 14.0885V23.2363C7.79308 26.3886 10.1749 29.1098 13.3254 29.3322H18.661" stroke="#208EE2" stroke-width="2" stroke-linecap="round" stroke-linejoin="round"/>
<path d="M36.6674 29.3669L31.2812 34.7505L28.6641 32.1414" stroke="#0867D6" stroke-width="2" stroke-linecap="round" stroke-linejoin="round"/>
<path d="M36.6674 29.3669L31.2812 34.7505L28.6641 32.1414" stroke="#0696E7" stroke-width="2" stroke-linecap="round" stroke-linejoin="round"/>
<path d="M36.6674 29.3669L31.2812 34.7505L28.6641 32.1414" stroke="#208EE2" stroke-width="2" stroke-linecap="round" stroke-linejoin="round"/>
</svg>
