<svg width="64" height="64" viewBox="0 0 64 64" fill="none" xmlns="http://www.w3.org/2000/svg">
<path fill-rule="evenodd" clip-rule="evenodd" d="M45.3391 48.0067V32C45.3395 30.5848 44.7775 29.2274 43.7768 28.2267C42.7761 27.2261 41.4188 26.664 40.0036 26.6644H13.3258C11.9106 26.664 10.5532 27.2261 9.55255 28.2267C8.55186 29.2274 7.98985 30.5848 7.99023 32V48.0067C7.98985 49.4218 8.55186 50.7792 9.55255 51.7799C10.5532 52.7806 11.9106 53.3426 13.3258 53.3422H40.0036C42.9503 53.3422 45.3391 50.9533 45.3391 48.0067Z" stroke="#0867D6" stroke-width="2" stroke-linecap="round" stroke-linejoin="round"/>
<path fill-rule="evenodd" clip-rule="evenodd" d="M45.3391 48.0067V32C45.3395 30.5848 44.7775 29.2274 43.7768 28.2267C42.7761 27.2261 41.4188 26.664 40.0036 26.6644H13.3258C11.9106 26.664 10.5532 27.2261 9.55255 28.2267C8.55186 29.2274 7.98985 30.5848 7.99023 32V48.0067C7.98985 49.4218 8.55186 50.7792 9.55255 51.7799C10.5532 52.7806 11.9106 53.3426 13.3258 53.3422H40.0036C42.9503 53.3422 45.3391 50.9533 45.3391 48.0067Z" stroke="#0696E7" stroke-width="2" stroke-linecap="round" stroke-linejoin="round"/>
<path fill-rule="evenodd" clip-rule="evenodd" d="M45.3391 48.0067V32C45.3395 30.5848 44.7775 29.2274 43.7768 28.2267C42.7761 27.2261 41.4188 26.664 40.0036 26.6644H13.3258C11.9106 26.664 10.5532 27.2261 9.55255 28.2267C8.55186 29.2274 7.98985 30.5848 7.99023 32V48.0067C7.98985 49.4218 8.55186 50.7792 9.55255 51.7799C10.5532 52.7806 11.9106 53.3426 13.3258 53.3422H40.0036C42.9503 53.3422 45.3391 50.9533 45.3391 48.0067Z" stroke="#208EE2" stroke-width="2" stroke-linecap="round" stroke-linejoin="round"/>
<path d="M7.99023 37.5463H45.3391" stroke="#0867D6" stroke-width="2" stroke-linecap="round" stroke-linejoin="round"/>
<path d="M7.99023 37.5463H45.3391" stroke="#0696E7" stroke-width="2" stroke-linecap="round" stroke-linejoin="round"/>
<path d="M7.99023 37.5463H45.3391" stroke="#208EE2" stroke-width="2" stroke-linecap="round" stroke-linejoin="round"/>
<path d="M16.5273 26.6645L19.7554 14.6061C20.1216 13.2395 21.0166 12.0748 22.2429 11.3691C23.4691 10.6634 24.9258 10.4746 26.2914 10.8445L52.0621 17.7541C53.4287 18.1203 54.5934 19.0153 55.2991 20.2416C56.0049 21.4678 56.1936 22.9245 55.8237 24.2901L51.6887 39.7366C50.9528 42.5165 48.1393 44.207 45.3393 43.5515" stroke="#0867D6" stroke-width="2" stroke-linecap="round" stroke-linejoin="round"/>
<path d="M16.5273 26.6645L19.7554 14.6061C20.1216 13.2395 21.0166 12.0748 22.2429 11.3691C23.4691 10.6634 24.9258 10.4746 26.2914 10.8445L52.0621 17.7541C53.4287 18.1203 54.5934 19.0153 55.2991 20.2416C56.0049 21.4678 56.1936 22.9245 55.8237 24.2901L51.6887 39.7366C50.9528 42.5165 48.1393 44.207 45.3393 43.5515" stroke="#0696E7" stroke-width="2" stroke-linecap="round" stroke-linejoin="round"/>
<path d="M16.5273 26.6645L19.7554 14.6061C20.1216 13.2395 21.0166 12.0748 22.2429 11.3691C23.4691 10.6634 24.9258 10.4746 26.2914 10.8445L52.0621 17.7541C53.4287 18.1203 54.5934 19.0153 55.2991 20.2416C56.0049 21.4678 56.1936 22.9245 55.8237 24.2901L51.6887 39.7366C50.9528 42.5165 48.1393 44.207 45.3393 43.5515" stroke="#208EE2" stroke-width="2" stroke-linecap="round" stroke-linejoin="round"/>
</svg>
