<svg width="64" height="64" viewBox="0 0 64 64" fill="none" xmlns="http://www.w3.org/2000/svg">
<path fill-rule="evenodd" clip-rule="evenodd" d="M45.334 32C38.222 39.3813 38.222 51.2827 45.334 58.664C52.446 51.2853 52.446 39.3813 45.334 32Z" stroke="#0867D6" stroke-width="2" stroke-linecap="round" stroke-linejoin="round"/>
<path fill-rule="evenodd" clip-rule="evenodd" d="M45.334 32C38.222 39.3813 38.222 51.2827 45.334 58.664C52.446 51.2853 52.446 39.3813 45.334 32Z" stroke="#0696E7" stroke-width="2" stroke-linecap="round" stroke-linejoin="round"/>
<path fill-rule="evenodd" clip-rule="evenodd" d="M45.334 32C38.222 39.3813 38.222 51.2827 45.334 58.664C52.446 51.2853 52.446 39.3813 45.334 32Z" stroke="#208EE2" stroke-width="2" stroke-linecap="round" stroke-linejoin="round"/>
<path d="M8 18.6667H56" stroke="#0867D6" stroke-width="2" stroke-linecap="round" stroke-linejoin="round"/>
<path d="M8 18.6667H56" stroke="#0696E7" stroke-width="2" stroke-linecap="round" stroke-linejoin="round"/>
<path d="M8 18.6667H56" stroke="#208EE2" stroke-width="2" stroke-linecap="round" stroke-linejoin="round"/>
<path d="M25.5193 29.3333H18.666" stroke="#0867D6" stroke-width="2" stroke-linecap="round" stroke-linejoin="round"/>
<path d="M25.5193 29.3333H18.666" stroke="#0696E7" stroke-width="2" stroke-linecap="round" stroke-linejoin="round"/>
<path d="M25.5193 29.3333H18.666" stroke="#208EE2" stroke-width="2" stroke-linecap="round" stroke-linejoin="round"/>
<path d="M24 45.3333H16C11.5813 45.3333 8 41.752 8 37.3333V16C8 11.5813 11.5813 8 16 8H48C52.4187 8 56 11.5813 56 16V26.6667" stroke="#0867D6" stroke-width="2" stroke-linecap="round" stroke-linejoin="round"/>
<path d="M24 45.3333H16C11.5813 45.3333 8 41.752 8 37.3333V16C8 11.5813 11.5813 8 16 8H48C52.4187 8 56 11.5813 56 16V26.6667" stroke="#0696E7" stroke-width="2" stroke-linecap="round" stroke-linejoin="round"/>
<path d="M24 45.3333H16C11.5813 45.3333 8 41.752 8 37.3333V16C8 11.5813 11.5813 8 16 8H48C52.4187 8 56 11.5813 56 16V26.6667" stroke="#208EE2" stroke-width="2" stroke-linecap="round" stroke-linejoin="round"/>
<path fill-rule="evenodd" clip-rule="evenodd" d="M45.334 32C38.222 39.3813 38.222 51.2827 45.334 58.664C52.446 51.2853 52.446 39.3813 45.334 32Z" stroke="#0867D6" stroke-width="2" stroke-linecap="round" stroke-linejoin="round"/>
<path fill-rule="evenodd" clip-rule="evenodd" d="M45.334 32C38.222 39.3813 38.222 51.2827 45.334 58.664C52.446 51.2853 52.446 39.3813 45.334 32Z" stroke="#0696E7" stroke-width="2" stroke-linecap="round" stroke-linejoin="round"/>
<path fill-rule="evenodd" clip-rule="evenodd" d="M45.334 32C38.222 39.3813 38.222 51.2827 45.334 58.664C52.446 51.2853 52.446 39.3813 45.334 32Z" stroke="#208EE2" stroke-width="2" stroke-linecap="round" stroke-linejoin="round"/>
<path fill-rule="evenodd" clip-rule="evenodd" d="M58.6667 45.3333C58.6667 52.7147 52.7147 58.6667 45.3333 58.6667C37.952 58.6667 32 52.7147 32 45.3333C32 37.952 37.952 32 45.3333 32C52.7147 32 58.6667 37.952 58.6667 45.3333Z" stroke="#0867D6" stroke-width="2" stroke-linecap="round" stroke-linejoin="round"/>
<path fill-rule="evenodd" clip-rule="evenodd" d="M58.6667 45.3333C58.6667 52.7147 52.7147 58.6667 45.3333 58.6667C37.952 58.6667 32 52.7147 32 45.3333C32 37.952 37.952 32 45.3333 32C52.7147 32 58.6667 37.952 58.6667 45.3333Z" stroke="#0696E7" stroke-width="2" stroke-linecap="round" stroke-linejoin="round"/>
<path fill-rule="evenodd" clip-rule="evenodd" d="M58.6667 45.3333C58.6667 52.7147 52.7147 58.6667 45.3333 58.6667C37.952 58.6667 32 52.7147 32 45.3333C32 37.952 37.952 32 45.3333 32C52.7147 32 58.6667 37.952 58.6667 45.3333Z" stroke="#208EE2" stroke-width="2" stroke-linecap="round" stroke-linejoin="round"/>
<path d="M32.0059 45.3333H58.6619" stroke="#0867D6" stroke-width="2" stroke-linecap="round" stroke-linejoin="round"/>
<path d="M32.0059 45.3333H58.6619" stroke="#0696E7" stroke-width="2" stroke-linecap="round" stroke-linejoin="round"/>
<path d="M32.0059 45.3333H58.6619" stroke="#208EE2" stroke-width="2" stroke-linecap="round" stroke-linejoin="round"/>
</svg>
