<svg width="20" height="18" viewBox="0 0 20 18" fill="none" xmlns="http://www.w3.org/2000/svg">
<path d="M1.56252 2.29297H17.1875C18.0469 2.29297 18.75 2.99609 18.75 3.85548V5.7305C18.75 6.58989 18.0469 7.29302 17.1875 7.29302H1.56252C0.703122 7.29294 0 6.58981 0 5.73046V3.85544C0 2.99609 0.703122 2.29297 1.56252 2.29297Z" fill="#A86A3F"/>
<path d="M4.98438 3.96432L14.7656 1.37059C15.0938 1.27684 15.4375 1.47996 15.5312 1.8081L17.1562 7.8081C17.25 8.13624 17.0469 8.47996 16.7187 8.57371L3.98438 11.9643C3.65625 12.0581 3.31252 11.8549 3.21878 11.5268L2.03125 7.12057L4.98438 3.96432Z" fill="#5EBA6D"/>
<path d="M15.4534 7.62041L13.3441 8.18289C13.1722 8.22978 13.0003 8.136 12.9691 7.96413C12.9222 7.79227 13.016 7.62037 13.1878 7.58915L15.0003 7.10478L14.0316 3.47979L12.2191 3.96416C12.0472 4.01105 11.8753 3.91726 11.8441 3.7454C11.7972 3.57354 11.891 3.40163 12.0629 3.37041L14.1722 2.80793C14.3441 2.76104 14.516 2.85482 14.5472 3.02669L15.6722 7.24542C15.719 7.41728 15.6253 7.58915 15.4534 7.62041ZM6.70342 9.97979L4.59405 10.5423C4.42219 10.5892 4.25029 10.4954 4.21906 10.3235L3.09406 6.10479C3.04717 5.93292 3.14096 5.76102 3.31282 5.7298L5.42218 5.16731C5.59405 5.12042 5.76595 5.21421 5.79717 5.38607C5.84406 5.55793 5.75028 5.72984 5.57841 5.76106L3.76592 6.24543L4.73465 9.87042L6.54715 9.38605C6.71901 9.33916 6.89091 9.43294 6.92213 9.60481C6.96903 9.76104 6.87528 9.9329 6.70342 9.97979Z" fill="#B3F0BD"/>
<path d="M0.125046 6.15209C2.90627 4.55832 10.4063 0.167681 10.4063 0.167681C10.7032 -0.00418191 11.0938 0.0895651 11.2657 0.386437L14.3907 5.76144C14.5626 6.05831 14.4532 6.4333 14.1563 6.6052L2.71878 13.1677C2.42191 13.3395 2.03129 13.2458 1.85938 12.9489C1.85938 12.9489 0.984399 11.1677 0.109375 9.66767C0.109415 6.15209 0.125046 7.30832 0.125046 6.15209Z" fill="#5EBA6D"/>
<path d="M12.7971 5.58912L10.6096 1.80786C10.5159 1.65163 10.3284 1.60474 10.1877 1.69849L8.29714 2.79223C8.1409 2.88597 8.09401 3.07347 8.18776 3.21411C8.2815 3.37034 8.469 3.41723 8.60964 3.32348L10.2346 2.38598L12.1097 5.63597L10.4847 6.57348C10.3284 6.66723 10.2815 6.85472 10.3753 6.99536C10.469 7.15159 10.6565 7.19849 10.7972 7.10474L12.6878 6.011C12.8284 5.93288 12.8909 5.74539 12.7971 5.58912ZM4.51588 10.011L2.89088 10.9485L1.01586 7.69848L2.64086 6.76098C2.79709 6.66723 2.84398 6.47973 2.75024 6.3391C2.65649 6.18286 2.469 6.13597 2.32836 6.22972L0.437747 7.32346C0.281515 7.4172 0.234622 7.6047 0.328369 7.74534L2.51585 11.5266C2.6096 11.6828 2.79709 11.7297 2.93773 11.636L4.82834 10.5422C4.98457 10.4485 5.03147 10.261 4.93772 10.1204C4.8596 9.97975 4.67211 9.91723 4.51588 10.011ZM5.31275 4.49538C4.10963 5.18287 3.70338 6.71412 4.39087 7.91724C5.09399 9.12036 6.60961 9.52661 7.81273 8.83912C9.01585 8.15163 9.4221 6.62038 8.73461 5.41726C8.03149 4.22973 6.51586 3.80789 5.31275 4.49538ZM12.7971 5.58912L10.6096 1.80786C10.5159 1.65163 10.3284 1.60474 10.1877 1.69849L8.29714 2.79223C8.1409 2.88597 8.09401 3.07347 8.18776 3.21411C8.2815 3.37034 8.469 3.41723 8.60964 3.32348L10.2346 2.38598L12.1097 5.63597L10.4847 6.57348C10.3284 6.66723 10.2815 6.85472 10.3753 6.99536C10.469 7.15159 10.6565 7.19849 10.7972 7.10474L12.6878 6.011C12.8284 5.93288 12.8909 5.74539 12.7971 5.58912ZM4.51588 10.011L2.89088 10.9485L1.01586 7.69848L2.64086 6.76098C2.79709 6.66723 2.84398 6.47973 2.75024 6.3391C2.65649 6.18286 2.469 6.13597 2.32836 6.22972L0.437747 7.32346C0.281515 7.4172 0.234622 7.6047 0.328369 7.74534L2.51585 11.5266C2.6096 11.6828 2.79709 11.7297 2.93773 11.636L4.82834 10.5422C4.98457 10.4485 5.03147 10.261 4.93772 10.1204C4.8596 9.97975 4.67211 9.91723 4.51588 10.011ZM5.31275 4.49538C4.10963 5.18287 3.70338 6.71412 4.39087 7.91724C5.09399 9.12036 6.60961 9.52661 7.81273 8.83912C9.01585 8.15163 9.4221 6.62038 8.73461 5.41726C8.03149 4.22973 6.51586 3.80789 5.31275 4.49538Z" fill="#B3F0BD"/>
<path d="M17.8125 17.918H1.56252C0.703122 17.918 0 17.2149 0 16.3555V5.10548H17.8125C18.6719 5.10548 19.375 5.8086 19.375 6.66799V16.3555C19.375 17.2149 18.6719 17.918 17.8125 17.918ZM1.25001 5.10548H0V3.85547C0 4.54296 0.562482 5.10548 1.25001 5.10548Z" fill="#C47E4D"/>
<path d="M19.375 14.0117H16.875C15.6719 14.0117 14.6875 13.0273 14.6875 11.8242C14.6875 10.6211 15.6719 9.63672 16.875 9.63672H19.375C19.7187 9.63672 20 9.91796 20 10.2617V13.3867C20 13.7304 19.7187 14.0117 19.375 14.0117Z" fill="#A86A3F"/>
<path d="M16.875 10.5742C17.5625 10.5742 18.125 11.1367 18.125 11.8242C18.125 12.5118 17.5625 13.0742 16.875 13.0742C16.1875 13.0742 15.625 12.5118 15.625 11.8242C15.625 11.1367 16.1875 10.5742 16.875 10.5742Z" fill="#EFC75E"/>
<path d="M17.1875 12.7617C16.5 12.7617 15.9375 12.1992 15.9375 11.5117C15.9375 11.2461 16.0156 10.9961 16.1563 10.793C15.8281 11.0117 15.625 11.3867 15.625 11.8242C15.625 12.5117 16.1875 13.0742 16.875 13.0742C17.2969 13.0742 17.6719 12.8555 17.9063 12.543C17.7031 12.6836 17.4531 12.7617 17.1875 12.7617Z" fill="#D7B354"/>
<path d="M17.8125 17.293H1.56252C0.703122 17.293 0 16.5899 0 15.7305V16.3555C0 17.2149 0.703122 17.918 1.56252 17.918H17.8125C18.6719 17.918 19.375 17.2149 19.375 16.3555V15.7305C19.375 16.5899 18.6719 17.293 17.8125 17.293Z" fill="#B27245"/>
<path d="M17.8125 5.10548H1.25001C0.562482 5.10548 0 4.54296 0 3.85547V4.48047C0 5.16797 0.562482 5.73049 1.25001 5.73049H17.8125C18.6719 5.73049 19.375 6.43361 19.375 7.293V6.668C19.375 5.8086 18.6719 5.10548 17.8125 5.10548Z" fill="#CA8B5F"/>
</svg>
