<svg width="48" height="48" viewBox="0 0 48 48" fill="none" xmlns="http://www.w3.org/2000/svg">
<path d="M47.7388 30.308C47.7309 30.2148 47.7105 30.1231 47.6783 30.0352L47.6518 29.9635C47.491 29.3652 47.2755 28.7832 47.0079 28.2245L41.6925 13.8683C41.2188 12.4259 40.2971 11.1722 39.0615 10.2899L38.8721 8.94658C38.8632 8.88336 38.8486 8.82108 38.8284 8.76049C38.1156 6.63977 36.1238 5.21449 33.8866 5.22417C31.0832 5.22417 28.7503 7.52351 28.6862 10.3498V10.3961L28.731 12.4744C28.2471 13.299 27.9358 14.2131 27.8158 15.1617H20.1862C20.0661 14.2143 19.7553 13.301 19.2723 12.4771L19.3168 10.4351C19.3168 10.4195 19.3168 10.4103 19.3168 10.3947C19.2525 7.56843 16.9195 5.27224 14.1163 5.27224C11.8787 5.2632 9.88708 6.689 9.17449 8.81014C9.15493 8.86905 9.14062 8.92964 9.13168 8.99108L8.94128 10.2898C7.70598 11.1722 6.78448 12.4256 6.31079 13.8678L0.995628 28.2244C0.728013 28.7831 0.51247 29.3652 0.351733 29.9635L0.325224 30.0351C0.292929 30.1232 0.272626 30.2152 0.264737 30.3086C-1.00307 35.7802 2.40471 41.2435 7.87629 42.5113C13.3479 43.7791 18.8111 40.3712 20.0789 34.8997C20.2535 34.1466 20.3415 33.3761 20.3414 32.603C20.3414 32.4926 20.339 32.3821 20.3355 32.2729C20.3396 32.2324 20.3416 32.1916 20.3414 32.1509L20.319 28.6269H27.6853L27.6619 32.3613C27.6619 32.379 27.6635 32.3995 27.6642 32.4169C27.6631 32.4778 27.6619 32.5402 27.6619 32.6013C27.6637 38.2176 32.218 42.7689 37.8342 42.7671C43.4504 42.7653 48.0017 38.211 48 32.5948C47.9996 31.8251 47.912 31.0579 47.7388 30.308ZM14.1162 7.37929C15.7229 7.37929 17.0702 8.65519 17.2031 10.2601C15.4809 9.05335 13.3154 8.66434 11.2807 9.1961C11.7848 8.0843 12.8954 7.37266 14.1162 7.37929ZM8.29054 14.5805C8.29528 14.5676 8.2998 14.5547 8.30401 14.5418C9.17291 11.8928 12.0248 10.4497 14.6738 11.3186C15.7481 11.671 16.673 12.3738 17.3002 13.3144C17.32 13.3492 17.3419 13.3828 17.3656 13.4152C17.8688 14.2078 18.1357 15.1274 18.135 16.0661L18.2005 26.3691C15.0145 22.2569 9.23603 21.2177 4.81692 23.9622L8.29054 14.5805ZM17.4161 36.1501C16.0621 38.9155 13.2516 40.6687 10.1725 40.6684V40.668C5.71686 40.6666 2.10606 37.0535 2.10743 32.5979C2.10764 31.9243 2.19221 31.2534 2.35916 30.6009L2.93036 29.0581C4.88877 25.0579 9.71908 23.4028 13.7192 25.3612C17.7193 27.3196 19.3745 32.1501 17.4161 36.1501ZM27.6975 26.5228H20.3055L20.295 24.9449H27.7081L27.6975 26.5228ZM27.7217 22.841H20.2821L20.247 17.2657H27.7563L27.7217 22.841ZM33.887 7.32806C35.1302 7.32122 36.2565 8.05958 36.7461 9.20231C34.7038 8.66108 32.5268 9.04893 30.7972 10.2621C30.9039 8.63226 32.2623 7.32806 33.887 7.32806ZM29.8682 16.0586C29.8682 13.306 32.1305 11.0667 34.9114 11.0667C35.807 11.0658 36.6867 11.3042 37.4594 11.7572C37.5108 11.7955 37.5656 11.829 37.6232 11.8574C38.6051 12.4846 39.3389 13.4331 39.6992 14.5412C39.7034 14.5546 39.7079 14.5675 39.7126 14.5804L43.1863 23.9621C38.7677 21.2178 32.9899 22.2563 29.8035 26.3676L29.8682 16.0586ZM39.8277 40.4161C39.1752 40.5831 38.5043 40.6676 37.8307 40.6679L37.8309 40.6681C33.3767 40.6694 29.7647 37.0596 29.7634 32.6053C29.762 28.1511 33.3718 24.5391 37.8261 24.5378C40.9067 24.5368 43.7188 26.2909 45.0728 29.058L45.644 30.6007C46.7484 34.9173 44.1444 39.3118 39.8277 40.4161Z" fill="#0867D6"/>
<path d="M47.7388 30.308C47.7309 30.2148 47.7105 30.1231 47.6783 30.0352L47.6518 29.9635C47.491 29.3652 47.2755 28.7832 47.0079 28.2245L41.6925 13.8683C41.2188 12.4259 40.2971 11.1722 39.0615 10.2899L38.8721 8.94658C38.8632 8.88336 38.8486 8.82108 38.8284 8.76049C38.1156 6.63977 36.1238 5.21449 33.8866 5.22417C31.0832 5.22417 28.7503 7.52351 28.6862 10.3498V10.3961L28.731 12.4744C28.2471 13.299 27.9358 14.2131 27.8158 15.1617H20.1862C20.0661 14.2143 19.7553 13.301 19.2723 12.4771L19.3168 10.4351C19.3168 10.4195 19.3168 10.4103 19.3168 10.3947C19.2525 7.56843 16.9195 5.27224 14.1163 5.27224C11.8787 5.2632 9.88708 6.689 9.17449 8.81014C9.15493 8.86905 9.14062 8.92964 9.13168 8.99108L8.94128 10.2898C7.70598 11.1722 6.78448 12.4256 6.31079 13.8678L0.995628 28.2244C0.728013 28.7831 0.51247 29.3652 0.351733 29.9635L0.325224 30.0351C0.292929 30.1232 0.272626 30.2152 0.264737 30.3086C-1.00307 35.7802 2.40471 41.2435 7.87629 42.5113C13.3479 43.7791 18.8111 40.3712 20.0789 34.8997C20.2535 34.1466 20.3415 33.3761 20.3414 32.603C20.3414 32.4926 20.339 32.3821 20.3355 32.2729C20.3396 32.2324 20.3416 32.1916 20.3414 32.1509L20.319 28.6269H27.6853L27.6619 32.3613C27.6619 32.379 27.6635 32.3995 27.6642 32.4169C27.6631 32.4778 27.6619 32.5402 27.6619 32.6013C27.6637 38.2176 32.218 42.7689 37.8342 42.7671C43.4504 42.7653 48.0017 38.211 48 32.5948C47.9996 31.8251 47.912 31.0579 47.7388 30.308ZM14.1162 7.37929C15.7229 7.37929 17.0702 8.65519 17.2031 10.2601C15.4809 9.05335 13.3154 8.66434 11.2807 9.1961C11.7848 8.0843 12.8954 7.37266 14.1162 7.37929ZM8.29054 14.5805C8.29528 14.5676 8.2998 14.5547 8.30401 14.5418C9.17291 11.8928 12.0248 10.4497 14.6738 11.3186C15.7481 11.671 16.673 12.3738 17.3002 13.3144C17.32 13.3492 17.3419 13.3828 17.3656 13.4152C17.8688 14.2078 18.1357 15.1274 18.135 16.0661L18.2005 26.3691C15.0145 22.2569 9.23603 21.2177 4.81692 23.9622L8.29054 14.5805ZM17.4161 36.1501C16.0621 38.9155 13.2516 40.6687 10.1725 40.6684V40.668C5.71686 40.6666 2.10606 37.0535 2.10743 32.5979C2.10764 31.9243 2.19221 31.2534 2.35916 30.6009L2.93036 29.0581C4.88877 25.0579 9.71908 23.4028 13.7192 25.3612C17.7193 27.3196 19.3745 32.1501 17.4161 36.1501ZM27.6975 26.5228H20.3055L20.295 24.9449H27.7081L27.6975 26.5228ZM27.7217 22.841H20.2821L20.247 17.2657H27.7563L27.7217 22.841ZM33.887 7.32806C35.1302 7.32122 36.2565 8.05958 36.7461 9.20231C34.7038 8.66108 32.5268 9.04893 30.7972 10.2621C30.9039 8.63226 32.2623 7.32806 33.887 7.32806ZM29.8682 16.0586C29.8682 13.306 32.1305 11.0667 34.9114 11.0667C35.807 11.0658 36.6867 11.3042 37.4594 11.7572C37.5108 11.7955 37.5656 11.829 37.6232 11.8574C38.6051 12.4846 39.3389 13.4331 39.6992 14.5412C39.7034 14.5546 39.7079 14.5675 39.7126 14.5804L43.1863 23.9621C38.7677 21.2178 32.9899 22.2563 29.8035 26.3676L29.8682 16.0586ZM39.8277 40.4161C39.1752 40.5831 38.5043 40.6676 37.8307 40.6679L37.8309 40.6681C33.3767 40.6694 29.7647 37.0596 29.7634 32.6053C29.762 28.1511 33.3718 24.5391 37.8261 24.5378C40.9067 24.5368 43.7188 26.2909 45.0728 29.058L45.644 30.6007C46.7484 34.9173 44.1444 39.3118 39.8277 40.4161Z" fill="#0696E7"/>
<path d="M47.7388 30.308C47.7309 30.2148 47.7105 30.1231 47.6783 30.0352L47.6518 29.9635C47.491 29.3652 47.2755 28.7832 47.0079 28.2245L41.6925 13.8683C41.2188 12.4259 40.2971 11.1722 39.0615 10.2899L38.8721 8.94658C38.8632 8.88336 38.8486 8.82108 38.8284 8.76049C38.1156 6.63977 36.1238 5.21449 33.8866 5.22417C31.0832 5.22417 28.7503 7.52351 28.6862 10.3498V10.3961L28.731 12.4744C28.2471 13.299 27.9358 14.2131 27.8158 15.1617H20.1862C20.0661 14.2143 19.7553 13.301 19.2723 12.4771L19.3168 10.4351C19.3168 10.4195 19.3168 10.4103 19.3168 10.3947C19.2525 7.56843 16.9195 5.27224 14.1163 5.27224C11.8787 5.2632 9.88708 6.689 9.17449 8.81014C9.15493 8.86905 9.14062 8.92964 9.13168 8.99108L8.94128 10.2898C7.70598 11.1722 6.78448 12.4256 6.31079 13.8678L0.995628 28.2244C0.728013 28.7831 0.51247 29.3652 0.351733 29.9635L0.325224 30.0351C0.292929 30.1232 0.272626 30.2152 0.264737 30.3086C-1.00307 35.7802 2.40471 41.2435 7.87629 42.5113C13.3479 43.7791 18.8111 40.3712 20.0789 34.8997C20.2535 34.1466 20.3415 33.3761 20.3414 32.603C20.3414 32.4926 20.339 32.3821 20.3355 32.2729C20.3396 32.2324 20.3416 32.1916 20.3414 32.1509L20.319 28.6269H27.6853L27.6619 32.3613C27.6619 32.379 27.6635 32.3995 27.6642 32.4169C27.6631 32.4778 27.6619 32.5402 27.6619 32.6013C27.6637 38.2176 32.218 42.7689 37.8342 42.7671C43.4504 42.7653 48.0017 38.211 48 32.5948C47.9996 31.8251 47.912 31.0579 47.7388 30.308ZM14.1162 7.37929C15.7229 7.37929 17.0702 8.65519 17.2031 10.2601C15.4809 9.05335 13.3154 8.66434 11.2807 9.1961C11.7848 8.0843 12.8954 7.37266 14.1162 7.37929ZM8.29054 14.5805C8.29528 14.5676 8.2998 14.5547 8.30401 14.5418C9.17291 11.8928 12.0248 10.4497 14.6738 11.3186C15.7481 11.671 16.673 12.3738 17.3002 13.3144C17.32 13.3492 17.3419 13.3828 17.3656 13.4152C17.8688 14.2078 18.1357 15.1274 18.135 16.0661L18.2005 26.3691C15.0145 22.2569 9.23603 21.2177 4.81692 23.9622L8.29054 14.5805ZM17.4161 36.1501C16.0621 38.9155 13.2516 40.6687 10.1725 40.6684V40.668C5.71686 40.6666 2.10606 37.0535 2.10743 32.5979C2.10764 31.9243 2.19221 31.2534 2.35916 30.6009L2.93036 29.0581C4.88877 25.0579 9.71908 23.4028 13.7192 25.3612C17.7193 27.3196 19.3745 32.1501 17.4161 36.1501ZM27.6975 26.5228H20.3055L20.295 24.9449H27.7081L27.6975 26.5228ZM27.7217 22.841H20.2821L20.247 17.2657H27.7563L27.7217 22.841ZM33.887 7.32806C35.1302 7.32122 36.2565 8.05958 36.7461 9.20231C34.7038 8.66108 32.5268 9.04893 30.7972 10.2621C30.9039 8.63226 32.2623 7.32806 33.887 7.32806ZM29.8682 16.0586C29.8682 13.306 32.1305 11.0667 34.9114 11.0667C35.807 11.0658 36.6867 11.3042 37.4594 11.7572C37.5108 11.7955 37.5656 11.829 37.6232 11.8574C38.6051 12.4846 39.3389 13.4331 39.6992 14.5412C39.7034 14.5546 39.7079 14.5675 39.7126 14.5804L43.1863 23.9621C38.7677 21.2178 32.9899 22.2563 29.8035 26.3676L29.8682 16.0586ZM39.8277 40.4161C39.1752 40.5831 38.5043 40.6676 37.8307 40.6679L37.8309 40.6681C33.3767 40.6694 29.7647 37.0596 29.7634 32.6053C29.762 28.1511 33.3718 24.5391 37.8261 24.5378C40.9067 24.5368 43.7188 26.2909 45.0728 29.058L45.644 30.6007C46.7484 34.9173 44.1444 39.3118 39.8277 40.4161Z" fill="#208EE2"/>
<path d="M10.1746 25.3971C6.19496 25.3971 2.96875 28.6232 2.96875 32.6029C2.96875 36.5825 6.19496 39.8087 10.1746 39.8087C14.1543 39.8087 17.3804 36.5825 17.3804 32.6029C17.3761 28.6251 14.1525 25.4015 10.1746 25.3971ZM10.1746 37.7049C7.35683 37.7049 5.07264 35.4208 5.07264 32.603C5.07264 29.7853 7.35683 27.5011 10.1746 27.5011C12.9923 27.5011 15.2765 29.7853 15.2765 32.603C15.2734 35.4194 12.991 37.7018 10.1746 37.7049Z" fill="#0867D6"/>
<path d="M10.1746 25.3971C6.19496 25.3971 2.96875 28.6232 2.96875 32.6029C2.96875 36.5825 6.19496 39.8087 10.1746 39.8087C14.1543 39.8087 17.3804 36.5825 17.3804 32.6029C17.3761 28.6251 14.1525 25.4015 10.1746 25.3971ZM10.1746 37.7049C7.35683 37.7049 5.07264 35.4208 5.07264 32.603C5.07264 29.7853 7.35683 27.5011 10.1746 27.5011C12.9923 27.5011 15.2765 29.7853 15.2765 32.603C15.2734 35.4194 12.991 37.7018 10.1746 37.7049Z" fill="#0696E7"/>
<path d="M10.1746 25.3971C6.19496 25.3971 2.96875 28.6232 2.96875 32.6029C2.96875 36.5825 6.19496 39.8087 10.1746 39.8087C14.1543 39.8087 17.3804 36.5825 17.3804 32.6029C17.3761 28.6251 14.1525 25.4015 10.1746 25.3971ZM10.1746 37.7049C7.35683 37.7049 5.07264 35.4208 5.07264 32.603C5.07264 29.7853 7.35683 27.5011 10.1746 27.5011C12.9923 27.5011 15.2765 29.7853 15.2765 32.603C15.2734 35.4194 12.991 37.7018 10.1746 37.7049Z" fill="#208EE2"/>
<path d="M37.7019 25.3971C33.7222 25.3971 30.4961 28.6232 30.4961 32.6029C30.4961 36.5825 33.7222 39.8087 37.7019 39.8087C41.6815 39.8087 44.9077 36.5825 44.9077 32.6029C44.9033 28.6251 41.6797 25.4015 37.7019 25.3971ZM37.7019 37.7049C34.8842 37.7049 32.6 35.4208 32.6 32.603C32.6 29.7853 34.8842 27.5011 37.7019 27.5011C40.5196 27.5011 42.8038 29.7853 42.8038 32.603C42.8008 35.4194 40.5183 37.7019 37.7019 37.7049Z" fill="#0867D6"/>
<path d="M37.7019 25.3971C33.7222 25.3971 30.4961 28.6232 30.4961 32.6029C30.4961 36.5825 33.7222 39.8087 37.7019 39.8087C41.6815 39.8087 44.9077 36.5825 44.9077 32.6029C44.9033 28.6251 41.6797 25.4015 37.7019 25.3971ZM37.7019 37.7049C34.8842 37.7049 32.6 35.4208 32.6 32.603C32.6 29.7853 34.8842 27.5011 37.7019 27.5011C40.5196 27.5011 42.8038 29.7853 42.8038 32.603C42.8008 35.4194 40.5183 37.7019 37.7019 37.7049Z" fill="#0696E7"/>
<path d="M37.7019 25.3971C33.7222 25.3971 30.4961 28.6232 30.4961 32.6029C30.4961 36.5825 33.7222 39.8087 37.7019 39.8087C41.6815 39.8087 44.9077 36.5825 44.9077 32.6029C44.9033 28.6251 41.6797 25.4015 37.7019 25.3971ZM37.7019 37.7049C34.8842 37.7049 32.6 35.4208 32.6 32.603C32.6 29.7853 34.8842 27.5011 37.7019 27.5011C40.5196 27.5011 42.8038 29.7853 42.8038 32.603C42.8008 35.4194 40.5183 37.7019 37.7019 37.7049Z" fill="#208EE2"/>
</svg>
