<svg width="48" height="48" viewBox="0 0 48 48" fill="none" xmlns="http://www.w3.org/2000/svg">
<path d="M30 16H38.646C39.464 16 40.2 16.498 40.502 17.258L43.714 25.286C43.902 25.758 44 26.262 44 26.77V38.666C44 39.77 43.104 40.666 42 40.666H38.338" stroke="#0867D6" stroke-width="2" stroke-linecap="round" stroke-linejoin="round"/>
<path d="M30 16H38.646C39.464 16 40.2 16.498 40.502 17.258L43.714 25.286C43.902 25.758 44 26.262 44 26.77V38.666C44 39.77 43.104 40.666 42 40.666H38.338" stroke="#0696E7" stroke-width="2" stroke-linecap="round" stroke-linejoin="round"/>
<path d="M30 16H38.646C39.464 16 40.2 16.498 40.502 17.258L43.714 25.286C43.902 25.758 44 26.262 44 26.77V38.666C44 39.77 43.104 40.666 42 40.666H38.338" stroke="#208EE2" stroke-width="2" stroke-linecap="round" stroke-linejoin="round"/>
<path d="M31.9998 40.84H16.3398" stroke="#0867D6" stroke-width="2" stroke-linecap="round" stroke-linejoin="round"/>
<path d="M31.9998 40.84H16.3398" stroke="#0696E7" stroke-width="2" stroke-linecap="round" stroke-linejoin="round"/>
<path d="M31.9998 40.84H16.3398" stroke="#208EE2" stroke-width="2" stroke-linecap="round" stroke-linejoin="round"/>
<path d="M44 30H36V22H42.4" stroke="#0867D6" stroke-width="2" stroke-linecap="round" stroke-linejoin="round"/>
<path d="M44 30H36V22H42.4" stroke="#0696E7" stroke-width="2" stroke-linecap="round" stroke-linejoin="round"/>
<path d="M44 30H36V22H42.4" stroke="#208EE2" stroke-width="2" stroke-linecap="round" stroke-linejoin="round"/>
<path d="M25.112 12H28C29.104 12 30 12.896 30 14V32H4" stroke="#0867D6" stroke-width="2" stroke-linecap="round" stroke-linejoin="round"/>
<path d="M25.112 12H28C29.104 12 30 12.896 30 14V32H4" stroke="#0696E7" stroke-width="2" stroke-linecap="round" stroke-linejoin="round"/>
<path d="M25.112 12H28C29.104 12 30 12.896 30 14V32H4" stroke="#208EE2" stroke-width="2" stroke-linecap="round" stroke-linejoin="round"/>
<path fill-rule="evenodd" clip-rule="evenodd" d="M15.4793 4.1C11.9773 4.636 9.11329 7.5 8.57729 11.002C7.71729 16.622 12.4893 21.394 18.1093 20.534C21.6113 19.998 24.4753 17.134 25.0113 13.632C25.8733 8.012 21.0993 3.24 15.4793 4.1Z" stroke="#0867D6" stroke-width="2" stroke-linecap="round" stroke-linejoin="round"/>
<path fill-rule="evenodd" clip-rule="evenodd" d="M15.4793 4.1C11.9773 4.636 9.11329 7.5 8.57729 11.002C7.71729 16.622 12.4893 21.394 18.1093 20.534C21.6113 19.998 24.4753 17.134 25.0113 13.632C25.8733 8.012 21.0993 3.24 15.4793 4.1Z" stroke="#0696E7" stroke-width="2" stroke-linecap="round" stroke-linejoin="round"/>
<path fill-rule="evenodd" clip-rule="evenodd" d="M15.4793 4.1C11.9773 4.636 9.11329 7.5 8.57729 11.002C7.71729 16.622 12.4893 21.394 18.1093 20.534C21.6113 19.998 24.4753 17.134 25.0113 13.632C25.8733 8.012 21.0993 3.24 15.4793 4.1Z" stroke="#208EE2" stroke-width="2" stroke-linecap="round" stroke-linejoin="round"/>
<path d="M37.4081 38.5918C38.6453 39.829 38.6453 41.8349 37.4081 43.072C36.1709 44.3092 34.1651 44.3092 32.9279 43.072C31.6907 41.8349 31.6907 39.829 32.9279 38.5918C34.1651 37.3546 36.1709 37.3546 37.4081 38.5918" stroke="#0867D6" stroke-width="2" stroke-linecap="round" stroke-linejoin="round"/>
<path d="M37.4081 38.5918C38.6453 39.829 38.6453 41.8349 37.4081 43.072C36.1709 44.3092 34.1651 44.3092 32.9279 43.072C31.6907 41.8349 31.6907 39.829 32.9279 38.5918C34.1651 37.3546 36.1709 37.3546 37.4081 38.5918" stroke="#0696E7" stroke-width="2" stroke-linecap="round" stroke-linejoin="round"/>
<path d="M37.4081 38.5918C38.6453 39.829 38.6453 41.8349 37.4081 43.072C36.1709 44.3092 34.1651 44.3092 32.9279 43.072C31.6907 41.8349 31.6907 39.829 32.9279 38.5918C34.1651 37.3546 36.1709 37.3546 37.4081 38.5918" stroke="#208EE2" stroke-width="2" stroke-linecap="round" stroke-linejoin="round"/>
<path d="M15.4081 38.5918C16.6453 39.829 16.6453 41.8349 15.4081 43.072C14.1709 44.3092 12.1651 44.3092 10.9279 43.072C9.69071 41.8349 9.69071 39.829 10.9279 38.5918C12.1651 37.3546 14.1709 37.3546 15.4081 38.5918" stroke="#0867D6" stroke-width="2" stroke-linecap="round" stroke-linejoin="round"/>
<path d="M15.4081 38.5918C16.6453 39.829 16.6453 41.8349 15.4081 43.072C14.1709 44.3092 12.1651 44.3092 10.9279 43.072C9.69071 41.8349 9.69071 39.829 10.9279 38.5918C12.1651 37.3546 14.1709 37.3546 15.4081 38.5918" stroke="#0696E7" stroke-width="2" stroke-linecap="round" stroke-linejoin="round"/>
<path d="M15.4081 38.5918C16.6453 39.829 16.6453 41.8349 15.4081 43.072C14.1709 44.3092 12.1651 44.3092 10.9279 43.072C9.69071 41.8349 9.69071 39.829 10.9279 38.5918C12.1651 37.3546 14.1709 37.3546 15.4081 38.5918" stroke="#208EE2" stroke-width="2" stroke-linecap="round" stroke-linejoin="round"/>
<path d="M10 40.832H6C4.896 40.832 4 39.936 4 38.832V14C4 12.896 4.896 12 6 12H8.476" stroke="#0867D6" stroke-width="2" stroke-linecap="round" stroke-linejoin="round"/>
<path d="M10 40.832H6C4.896 40.832 4 39.936 4 38.832V14C4 12.896 4.896 12 6 12H8.476" stroke="#0696E7" stroke-width="2" stroke-linecap="round" stroke-linejoin="round"/>
<path d="M10 40.832H6C4.896 40.832 4 39.936 4 38.832V14C4 12.896 4.896 12 6 12H8.476" stroke="#208EE2" stroke-width="2" stroke-linecap="round" stroke-linejoin="round"/>
<path d="M20 12H16V8.31799" stroke="#0867D6" stroke-width="2" stroke-linecap="round" stroke-linejoin="round"/>
<path d="M20 12H16V8.31799" stroke="#0696E7" stroke-width="2" stroke-linecap="round" stroke-linejoin="round"/>
<path d="M20 12H16V8.31799" stroke="#208EE2" stroke-width="2" stroke-linecap="round" stroke-linejoin="round"/>
</svg>
