<svg width="48" height="48" viewBox="0 0 48 48" fill="none" xmlns="http://www.w3.org/2000/svg">
<path d="M42 42H36" stroke="#0867D6" stroke-width="2" stroke-linecap="round" stroke-linejoin="round"/>
<path d="M42 42H36" stroke="#0696E7" stroke-width="2" stroke-linecap="round" stroke-linejoin="round"/>
<path d="M42 42H36" stroke="#208EE2" stroke-width="2" stroke-linecap="round" stroke-linejoin="round"/>
<path d="M6 42H12" stroke="#0867D6" stroke-width="2" stroke-linecap="round" stroke-linejoin="round"/>
<path d="M6 42H12" stroke="#0696E7" stroke-width="2" stroke-linecap="round" stroke-linejoin="round"/>
<path d="M6 42H12" stroke="#208EE2" stroke-width="2" stroke-linecap="round" stroke-linejoin="round"/>
<path d="M36 42V24H12V42" stroke="#0867D6" stroke-width="2" stroke-linecap="round" stroke-linejoin="round"/>
<path d="M36 42V24H12V42" stroke="#0696E7" stroke-width="2" stroke-linecap="round" stroke-linejoin="round"/>
<path d="M36 42V24H12V42" stroke="#208EE2" stroke-width="2" stroke-linecap="round" stroke-linejoin="round"/>
<path d="M20 16H28" stroke="#0867D6" stroke-width="2" stroke-linecap="round" stroke-linejoin="round"/>
<path d="M20 16H28" stroke="#0696E7" stroke-width="2" stroke-linecap="round" stroke-linejoin="round"/>
<path d="M20 16H28" stroke="#208EE2" stroke-width="2" stroke-linecap="round" stroke-linejoin="round"/>
<path d="M42 42V16C42 14.548 41.212 13.208 39.942 12.504L25.942 4.72605C24.734 4.05405 23.264 4.05405 22.056 4.72605L8.056 12.504C6.788 13.208 6 14.548 6 16V42" stroke="#0867D6" stroke-width="2" stroke-linecap="round" stroke-linejoin="round"/>
<path d="M42 42V16C42 14.548 41.212 13.208 39.942 12.504L25.942 4.72605C24.734 4.05405 23.264 4.05405 22.056 4.72605L8.056 12.504C6.788 13.208 6 14.548 6 16V42" stroke="#0696E7" stroke-width="2" stroke-linecap="round" stroke-linejoin="round"/>
<path d="M42 42V16C42 14.548 41.212 13.208 39.942 12.504L25.942 4.72605C24.734 4.05405 23.264 4.05405 22.056 4.72605L8.056 12.504C6.788 13.208 6 14.548 6 16V42" stroke="#208EE2" stroke-width="2" stroke-linecap="round" stroke-linejoin="round"/>
<path fill-rule="evenodd" clip-rule="evenodd" d="M28.666 42H25.332C24.596 42 24 41.404 24 40.666V37.332C24 36.596 24.596 36 25.334 36H28.668C29.404 36 30 36.596 30 37.334V40.668C30 41.404 29.404 42 28.666 42Z" stroke="#0867D6" stroke-width="2" stroke-linecap="round" stroke-linejoin="round"/>
<path fill-rule="evenodd" clip-rule="evenodd" d="M28.666 42H25.332C24.596 42 24 41.404 24 40.666V37.332C24 36.596 24.596 36 25.334 36H28.668C29.404 36 30 36.596 30 37.334V40.668C30 41.404 29.404 42 28.666 42Z" stroke="#0696E7" stroke-width="2" stroke-linecap="round" stroke-linejoin="round"/>
<path fill-rule="evenodd" clip-rule="evenodd" d="M28.666 42H25.332C24.596 42 24 41.404 24 40.666V37.332C24 36.596 24.596 36 25.334 36H28.668C29.404 36 30 36.596 30 37.334V40.668C30 41.404 29.404 42 28.666 42Z" stroke="#208EE2" stroke-width="2" stroke-linecap="round" stroke-linejoin="round"/>
<path fill-rule="evenodd" clip-rule="evenodd" d="M22.666 42H19.334C18.596 42 18 41.404 18 40.666V37.332C18 36.596 18.596 36 19.334 36H22.668C23.404 36 24 36.596 24 37.334V40.668C24 41.404 23.404 42 22.666 42Z" stroke="#0867D6" stroke-width="2" stroke-linecap="round" stroke-linejoin="round"/>
<path fill-rule="evenodd" clip-rule="evenodd" d="M22.666 42H19.334C18.596 42 18 41.404 18 40.666V37.332C18 36.596 18.596 36 19.334 36H22.668C23.404 36 24 36.596 24 37.334V40.668C24 41.404 23.404 42 22.666 42Z" stroke="#0696E7" stroke-width="2" stroke-linecap="round" stroke-linejoin="round"/>
<path fill-rule="evenodd" clip-rule="evenodd" d="M22.666 42H19.334C18.596 42 18 41.404 18 40.666V37.332C18 36.596 18.596 36 19.334 36H22.668C23.404 36 24 36.596 24 37.334V40.668C24 41.404 23.404 42 22.666 42Z" stroke="#208EE2" stroke-width="2" stroke-linecap="round" stroke-linejoin="round"/>
<path fill-rule="evenodd" clip-rule="evenodd" d="M25.6641 36H22.3301C21.5941 36 20.9961 35.404 20.9961 34.666V31.332C20.9961 30.596 21.5921 29.998 22.3301 29.998H25.6641C26.4001 29.998 26.9981 30.594 26.9981 31.332V34.666C26.9981 35.404 26.4021 36 25.6641 36Z" stroke="#0867D6" stroke-width="2" stroke-linecap="round" stroke-linejoin="round"/>
<path fill-rule="evenodd" clip-rule="evenodd" d="M25.6641 36H22.3301C21.5941 36 20.9961 35.404 20.9961 34.666V31.332C20.9961 30.596 21.5921 29.998 22.3301 29.998H25.6641C26.4001 29.998 26.9981 30.594 26.9981 31.332V34.666C26.9981 35.404 26.4021 36 25.6641 36Z" stroke="#0696E7" stroke-width="2" stroke-linecap="round" stroke-linejoin="round"/>
<path fill-rule="evenodd" clip-rule="evenodd" d="M25.6641 36H22.3301C21.5941 36 20.9961 35.404 20.9961 34.666V31.332C20.9961 30.596 21.5921 29.998 22.3301 29.998H25.6641C26.4001 29.998 26.9981 30.594 26.9981 31.332V34.666C26.9981 35.404 26.4021 36 25.6641 36Z" stroke="#208EE2" stroke-width="2" stroke-linecap="round" stroke-linejoin="round"/>
</svg>
