<svg width="48" height="48" viewBox="0 0 48 48" fill="none" xmlns="http://www.w3.org/2000/svg">
<path d="M25.962 28.0016H41.0057C42.6632 28.0016 44.0069 26.6579 44.0069 25.0004V12.9954C44.0069 11.3378 42.6632 9.99414 41.0057 9.99414H20.9973C19.3398 9.99414 17.9961 11.3378 17.9961 12.9954V26.0008" stroke="#0867D6" stroke-width="2" stroke-linecap="round" stroke-linejoin="round"/>
<path d="M25.962 28.0016H41.0057C42.6632 28.0016 44.0069 26.6579 44.0069 25.0004V12.9954C44.0069 11.3378 42.6632 9.99414 41.0057 9.99414H20.9973C19.3398 9.99414 17.9961 11.3378 17.9961 12.9954V26.0008" stroke="#0696E7" stroke-width="2" stroke-linecap="round" stroke-linejoin="round"/>
<path d="M25.962 28.0016H41.0057C42.6632 28.0016 44.0069 26.6579 44.0069 25.0004V12.9954C44.0069 11.3378 42.6632 9.99414 41.0057 9.99414H20.9973C19.3398 9.99414 17.9961 11.3378 17.9961 12.9954V26.0008" stroke="#208EE2" stroke-width="2" stroke-linecap="round" stroke-linejoin="round"/>
<path d="M28.8789 16.8759C30.0524 15.7134 31.9447 15.7179 33.1127 16.8859C34.2807 18.0539 34.2852 19.9462 33.1227 21.1197" stroke="#0867D6" stroke-width="2" stroke-linecap="round" stroke-linejoin="round"/>
<path d="M28.8789 16.8759C30.0524 15.7134 31.9447 15.7179 33.1127 16.8859C34.2807 18.0539 34.2852 19.9462 33.1227 21.1197" stroke="#0696E7" stroke-width="2" stroke-linecap="round" stroke-linejoin="round"/>
<path d="M28.8789 16.8759C30.0524 15.7134 31.9447 15.7179 33.1127 16.8859C34.2807 18.0539 34.2852 19.9462 33.1227 21.1197" stroke="#208EE2" stroke-width="2" stroke-linecap="round" stroke-linejoin="round"/>
<path d="M17.9941 15.9967H13.4086C12.4767 15.9967 11.5577 16.2136 10.7242 16.6304L9.55334 17.2158C8.53234 17.7263 7.67808 18.5173 7.09077 19.4962L3.98828 24.6669" stroke="#0867D6" stroke-width="2" stroke-linecap="round" stroke-linejoin="round"/>
<path d="M17.9941 15.9967H13.4086C12.4767 15.9967 11.5577 16.2136 10.7242 16.6304L9.55334 17.2158C8.53234 17.7263 7.67808 18.5173 7.09077 19.4962L3.98828 24.6669" stroke="#0696E7" stroke-width="2" stroke-linecap="round" stroke-linejoin="round"/>
<path d="M17.9941 15.9967H13.4086C12.4767 15.9967 11.5577 16.2136 10.7242 16.6304L9.55334 17.2158C8.53234 17.7263 7.67808 18.5173 7.09077 19.4962L3.98828 24.6669" stroke="#208EE2" stroke-width="2" stroke-linecap="round" stroke-linejoin="round"/>
<path d="M5.99219 42.0075L17.5207 37.8418C19.1298 37.2604 20.5102 36.1786 21.4594 34.7552L27.4477 25.7754C28.3186 24.4694 28.1466 22.7301 27.0365 21.6201V21.6201C25.7508 20.3343 23.6662 20.3341 22.3802 21.6196L17.9972 26.0009H13.9955" stroke="#0867D6" stroke-width="2" stroke-linecap="round" stroke-linejoin="round"/>
<path d="M5.99219 42.0075L17.5207 37.8418C19.1298 37.2604 20.5102 36.1786 21.4594 34.7552L27.4477 25.7754C28.3186 24.4694 28.1466 22.7301 27.0365 21.6201V21.6201C25.7508 20.3343 23.6662 20.3341 22.3802 21.6196L17.9972 26.0009H13.9955" stroke="#0696E7" stroke-width="2" stroke-linecap="round" stroke-linejoin="round"/>
<path d="M5.99219 42.0075L17.5207 37.8418C19.1298 37.2604 20.5102 36.1786 21.4594 34.7552L27.4477 25.7754C28.3186 24.4694 28.1466 22.7301 27.0365 21.6201V21.6201C25.7508 20.3343 23.6662 20.3341 22.3802 21.6196L17.9972 26.0009H13.9955" stroke="#208EE2" stroke-width="2" stroke-linecap="round" stroke-linejoin="round"/>
</svg>
