<svg width="48" height="48" viewBox="0 0 48 48" fill="none" xmlns="http://www.w3.org/2000/svg">
<path d="M44.7714 29.1659C44.7645 29.0844 44.7467 29.0041 44.7185 28.9272L44.6953 28.8645C44.5546 28.341 44.3661 27.8317 44.1319 27.3429L39.4809 14.7812C39.0665 13.5191 38.26 12.4221 37.1788 11.6501L37.0131 10.4747C37.0053 10.4194 36.9925 10.3649 36.9748 10.3119C36.3511 8.45622 34.6083 7.2091 32.6507 7.21757C30.1978 7.21757 28.1565 9.22949 28.1004 11.7025V11.743L28.1396 13.5615C27.7162 14.283 27.4438 15.0829 27.3388 15.9129H20.663C20.5578 15.0839 20.2859 14.2848 19.8633 13.5639L19.9022 11.7771C19.9022 11.7635 19.9022 11.7554 19.9022 11.7418C19.846 9.2688 17.8046 7.25964 15.3518 7.25964C13.3939 7.25172 11.6512 8.4993 11.0277 10.3553C11.0106 10.4068 10.998 10.4599 10.9902 10.5136L10.8236 11.65C9.74273 12.4221 8.93642 13.5188 8.52194 14.7807L3.87117 27.3428C3.63701 27.8316 3.44841 28.341 3.30777 28.8645L3.28457 28.9271C3.25631 29.0042 3.23855 29.0847 3.23164 29.1665C2.12232 33.9541 5.10412 38.7345 9.89175 39.8438C14.6794 40.9531 19.4597 37.9712 20.5691 33.1837C20.7218 32.5247 20.7988 31.8505 20.7987 31.1741C20.7987 31.0774 20.7966 30.9808 20.7936 30.8852C20.7972 30.8498 20.7989 30.8141 20.7987 30.7784L20.7791 27.6949H27.2247L27.2041 30.9625C27.2041 30.978 27.2055 30.996 27.2062 31.0112C27.2053 31.0645 27.2041 31.1191 27.2041 31.1726C27.2057 36.0868 31.1907 40.0692 36.1049 40.0676C41.0191 40.0661 45.0015 36.0811 45 31.1669C44.9997 30.4934 44.923 29.8221 44.7714 29.1659ZM15.3517 9.1033C16.7576 9.1033 17.9364 10.2197 18.0527 11.624C16.5458 10.5681 14.6509 10.2277 12.8706 10.693C13.3117 9.72019 14.2835 9.0975 15.3517 9.1033ZM10.2542 15.4043C10.2584 15.3931 10.2623 15.3818 10.266 15.3705C11.0263 13.0526 13.5217 11.7899 15.8396 12.5502C16.7796 12.8586 17.5888 13.4735 18.1377 14.2965C18.155 14.327 18.1742 14.3564 18.1949 14.3848C18.6352 15.0782 18.8687 15.8829 18.8681 16.7043L18.9254 25.7194C16.1377 22.1212 11.0815 21.2119 7.2148 23.6134L10.2542 15.4043ZM18.239 34.2777C17.0543 36.6975 14.5952 38.2315 11.9009 38.2313V38.2309C8.00225 38.2297 4.8428 35.0682 4.844 31.1696C4.84418 30.5802 4.91819 29.9931 5.06426 29.4222L5.56407 28.0722C7.27767 24.5721 11.5042 23.1239 15.0043 24.8375C18.5044 26.5511 19.9527 30.7777 18.239 34.2777ZM27.2354 25.8539H20.7673L20.7581 24.4732H27.2446L27.2354 25.8539ZM27.2565 22.6323H20.7468L20.7162 17.7539H27.2868L27.2565 22.6323ZM32.6511 9.05847C33.7389 9.05249 34.7244 9.69856 35.1528 10.6984C33.3658 10.2249 31.461 10.5642 29.9476 11.6258C30.0409 10.1996 31.2296 9.05847 32.6511 9.05847ZM29.1347 16.6977C29.1347 14.2892 31.1142 12.3298 33.5474 12.3298C34.3311 12.329 35.1009 12.5376 35.777 12.9339C35.822 12.9674 35.8699 12.9968 35.9203 13.0217C36.7795 13.5704 37.4215 14.4004 37.7368 15.37C37.7405 15.3817 37.7444 15.393 37.7486 15.4042L40.788 23.6133C36.9217 21.212 31.8661 22.1207 29.0781 25.7181L29.1347 16.6977ZM37.8493 38.0105C37.2783 38.1566 36.6912 38.2306 36.1019 38.2308L36.1021 38.231C32.2046 38.2322 29.0441 35.0736 29.0429 31.1761C29.0417 27.2786 32.2004 24.1182 36.0978 24.117C38.7934 24.1161 41.2539 25.651 42.4387 28.0721L42.9385 29.4221C43.9048 33.1991 41.6263 37.0442 37.8493 38.0105Z" fill="#0867D6"/>
<path d="M44.7714 29.1659C44.7645 29.0844 44.7467 29.0041 44.7185 28.9272L44.6953 28.8645C44.5546 28.341 44.3661 27.8317 44.1319 27.3429L39.4809 14.7812C39.0665 13.5191 38.26 12.4221 37.1788 11.6501L37.0131 10.4747C37.0053 10.4194 36.9925 10.3649 36.9748 10.3119C36.3511 8.45622 34.6083 7.2091 32.6507 7.21757C30.1978 7.21757 28.1565 9.22949 28.1004 11.7025V11.743L28.1396 13.5615C27.7162 14.283 27.4438 15.0829 27.3388 15.9129H20.663C20.5578 15.0839 20.2859 14.2848 19.8633 13.5639L19.9022 11.7771C19.9022 11.7635 19.9022 11.7554 19.9022 11.7418C19.846 9.2688 17.8046 7.25964 15.3518 7.25964C13.3939 7.25172 11.6512 8.4993 11.0277 10.3553C11.0106 10.4068 10.998 10.4599 10.9902 10.5136L10.8236 11.65C9.74273 12.4221 8.93642 13.5188 8.52194 14.7807L3.87117 27.3428C3.63701 27.8316 3.44841 28.341 3.30777 28.8645L3.28457 28.9271C3.25631 29.0042 3.23855 29.0847 3.23164 29.1665C2.12232 33.9541 5.10412 38.7345 9.89175 39.8438C14.6794 40.9531 19.4597 37.9712 20.5691 33.1837C20.7218 32.5247 20.7988 31.8505 20.7987 31.1741C20.7987 31.0774 20.7966 30.9808 20.7936 30.8852C20.7972 30.8498 20.7989 30.8141 20.7987 30.7784L20.7791 27.6949H27.2247L27.2041 30.9625C27.2041 30.978 27.2055 30.996 27.2062 31.0112C27.2053 31.0645 27.2041 31.1191 27.2041 31.1726C27.2057 36.0868 31.1907 40.0692 36.1049 40.0676C41.0191 40.0661 45.0015 36.0811 45 31.1669C44.9997 30.4934 44.923 29.8221 44.7714 29.1659ZM15.3517 9.1033C16.7576 9.1033 17.9364 10.2197 18.0527 11.624C16.5458 10.5681 14.6509 10.2277 12.8706 10.693C13.3117 9.72019 14.2835 9.0975 15.3517 9.1033ZM10.2542 15.4043C10.2584 15.3931 10.2623 15.3818 10.266 15.3705C11.0263 13.0526 13.5217 11.7899 15.8396 12.5502C16.7796 12.8586 17.5888 13.4735 18.1377 14.2965C18.155 14.327 18.1742 14.3564 18.1949 14.3848C18.6352 15.0782 18.8687 15.8829 18.8681 16.7043L18.9254 25.7194C16.1377 22.1212 11.0815 21.2119 7.2148 23.6134L10.2542 15.4043ZM18.239 34.2777C17.0543 36.6975 14.5952 38.2315 11.9009 38.2313V38.2309C8.00225 38.2297 4.8428 35.0682 4.844 31.1696C4.84418 30.5802 4.91819 29.9931 5.06426 29.4222L5.56407 28.0722C7.27767 24.5721 11.5042 23.1239 15.0043 24.8375C18.5044 26.5511 19.9527 30.7777 18.239 34.2777ZM27.2354 25.8539H20.7673L20.7581 24.4732H27.2446L27.2354 25.8539ZM27.2565 22.6323H20.7468L20.7162 17.7539H27.2868L27.2565 22.6323ZM32.6511 9.05847C33.7389 9.05249 34.7244 9.69856 35.1528 10.6984C33.3658 10.2249 31.461 10.5642 29.9476 11.6258C30.0409 10.1996 31.2296 9.05847 32.6511 9.05847ZM29.1347 16.6977C29.1347 14.2892 31.1142 12.3298 33.5474 12.3298C34.3311 12.329 35.1009 12.5376 35.777 12.9339C35.822 12.9674 35.8699 12.9968 35.9203 13.0217C36.7795 13.5704 37.4215 14.4004 37.7368 15.37C37.7405 15.3817 37.7444 15.393 37.7486 15.4042L40.788 23.6133C36.9217 21.212 31.8661 22.1207 29.0781 25.7181L29.1347 16.6977ZM37.8493 38.0105C37.2783 38.1566 36.6912 38.2306 36.1019 38.2308L36.1021 38.231C32.2046 38.2322 29.0441 35.0736 29.0429 31.1761C29.0417 27.2786 32.2004 24.1182 36.0978 24.117C38.7934 24.1161 41.2539 25.651 42.4387 28.0721L42.9385 29.4221C43.9048 33.1991 41.6263 37.0442 37.8493 38.0105Z" fill="#0696E7"/>
<path d="M44.7714 29.1659C44.7645 29.0844 44.7467 29.0041 44.7185 28.9272L44.6953 28.8645C44.5546 28.341 44.3661 27.8317 44.1319 27.3429L39.4809 14.7812C39.0665 13.5191 38.26 12.4221 37.1788 11.6501L37.0131 10.4747C37.0053 10.4194 36.9925 10.3649 36.9748 10.3119C36.3511 8.45622 34.6083 7.2091 32.6507 7.21757C30.1978 7.21757 28.1565 9.22949 28.1004 11.7025V11.743L28.1396 13.5615C27.7162 14.283 27.4438 15.0829 27.3388 15.9129H20.663C20.5578 15.0839 20.2859 14.2848 19.8633 13.5639L19.9022 11.7771C19.9022 11.7635 19.9022 11.7554 19.9022 11.7418C19.846 9.2688 17.8046 7.25964 15.3518 7.25964C13.3939 7.25172 11.6512 8.4993 11.0277 10.3553C11.0106 10.4068 10.998 10.4599 10.9902 10.5136L10.8236 11.65C9.74273 12.4221 8.93642 13.5188 8.52194 14.7807L3.87117 27.3428C3.63701 27.8316 3.44841 28.341 3.30777 28.8645L3.28457 28.9271C3.25631 29.0042 3.23855 29.0847 3.23164 29.1665C2.12232 33.9541 5.10412 38.7345 9.89175 39.8438C14.6794 40.9531 19.4597 37.9712 20.5691 33.1837C20.7218 32.5247 20.7988 31.8505 20.7987 31.1741C20.7987 31.0774 20.7966 30.9808 20.7936 30.8852C20.7972 30.8498 20.7989 30.8141 20.7987 30.7784L20.7791 27.6949H27.2247L27.2041 30.9625C27.2041 30.978 27.2055 30.996 27.2062 31.0112C27.2053 31.0645 27.2041 31.1191 27.2041 31.1726C27.2057 36.0868 31.1907 40.0692 36.1049 40.0676C41.0191 40.0661 45.0015 36.0811 45 31.1669C44.9997 30.4934 44.923 29.8221 44.7714 29.1659ZM15.3517 9.1033C16.7576 9.1033 17.9364 10.2197 18.0527 11.624C16.5458 10.5681 14.6509 10.2277 12.8706 10.693C13.3117 9.72019 14.2835 9.0975 15.3517 9.1033ZM10.2542 15.4043C10.2584 15.3931 10.2623 15.3818 10.266 15.3705C11.0263 13.0526 13.5217 11.7899 15.8396 12.5502C16.7796 12.8586 17.5888 13.4735 18.1377 14.2965C18.155 14.327 18.1742 14.3564 18.1949 14.3848C18.6352 15.0782 18.8687 15.8829 18.8681 16.7043L18.9254 25.7194C16.1377 22.1212 11.0815 21.2119 7.2148 23.6134L10.2542 15.4043ZM18.239 34.2777C17.0543 36.6975 14.5952 38.2315 11.9009 38.2313V38.2309C8.00225 38.2297 4.8428 35.0682 4.844 31.1696C4.84418 30.5802 4.91819 29.9931 5.06426 29.4222L5.56407 28.0722C7.27767 24.5721 11.5042 23.1239 15.0043 24.8375C18.5044 26.5511 19.9527 30.7777 18.239 34.2777ZM27.2354 25.8539H20.7673L20.7581 24.4732H27.2446L27.2354 25.8539ZM27.2565 22.6323H20.7468L20.7162 17.7539H27.2868L27.2565 22.6323ZM32.6511 9.05847C33.7389 9.05249 34.7244 9.69856 35.1528 10.6984C33.3658 10.2249 31.461 10.5642 29.9476 11.6258C30.0409 10.1996 31.2296 9.05847 32.6511 9.05847ZM29.1347 16.6977C29.1347 14.2892 31.1142 12.3298 33.5474 12.3298C34.3311 12.329 35.1009 12.5376 35.777 12.9339C35.822 12.9674 35.8699 12.9968 35.9203 13.0217C36.7795 13.5704 37.4215 14.4004 37.7368 15.37C37.7405 15.3817 37.7444 15.393 37.7486 15.4042L40.788 23.6133C36.9217 21.212 31.8661 22.1207 29.0781 25.7181L29.1347 16.6977ZM37.8493 38.0105C37.2783 38.1566 36.6912 38.2306 36.1019 38.2308L36.1021 38.231C32.2046 38.2322 29.0441 35.0736 29.0429 31.1761C29.0417 27.2786 32.2004 24.1182 36.0978 24.117C38.7934 24.1161 41.2539 25.651 42.4387 28.0721L42.9385 29.4221C43.9048 33.1991 41.6263 37.0442 37.8493 38.0105Z" fill="#208EE2"/>
<path d="M11.9008 24.8689C8.41863 24.8689 5.5957 27.6917 5.5957 31.174C5.5957 34.6561 8.41863 37.4791 11.9008 37.4791C15.383 37.4791 18.2059 34.6561 18.2059 31.174C18.2021 27.6934 15.3815 24.8728 11.9008 24.8689ZM11.9008 35.6383C9.43527 35.6383 7.43661 33.6396 7.43661 31.1741C7.43661 28.7086 9.43527 26.7099 11.9008 26.7099C14.3663 26.7099 16.365 28.7086 16.365 31.1741C16.3623 33.6384 14.3652 35.6355 11.9008 35.6383Z" fill="#0867D6"/>
<path d="M11.9008 24.8689C8.41863 24.8689 5.5957 27.6917 5.5957 31.174C5.5957 34.6561 8.41863 37.4791 11.9008 37.4791C15.383 37.4791 18.2059 34.6561 18.2059 31.174C18.2021 27.6934 15.3815 24.8728 11.9008 24.8689ZM11.9008 35.6383C9.43527 35.6383 7.43661 33.6396 7.43661 31.1741C7.43661 28.7086 9.43527 26.7099 11.9008 26.7099C14.3663 26.7099 16.365 28.7086 16.365 31.1741C16.3623 33.6384 14.3652 35.6355 11.9008 35.6383Z" fill="#0696E7"/>
<path d="M11.9008 24.8689C8.41863 24.8689 5.5957 27.6917 5.5957 31.174C5.5957 34.6561 8.41863 37.4791 11.9008 37.4791C15.383 37.4791 18.2059 34.6561 18.2059 31.174C18.2021 27.6934 15.3815 24.8728 11.9008 24.8689ZM11.9008 35.6383C9.43527 35.6383 7.43661 33.6396 7.43661 31.1741C7.43661 28.7086 9.43527 26.7099 11.9008 26.7099C14.3663 26.7099 16.365 28.7086 16.365 31.1741C16.3623 33.6384 14.3652 35.6355 11.9008 35.6383Z" fill="#208EE2"/>
<path d="M35.9897 24.8689C32.5074 24.8689 29.6846 27.6917 29.6846 31.174C29.6846 34.6561 32.5074 37.4791 35.9897 37.4791C39.4718 37.4791 42.2947 34.6561 42.2947 31.174C42.2909 27.6934 39.4703 24.8728 35.9897 24.8689ZM35.9897 35.6383C33.5241 35.6383 31.5255 33.6396 31.5255 31.1741C31.5255 28.7086 33.5241 26.7099 35.9897 26.7099C38.4552 26.7099 40.4538 28.7086 40.4538 31.1741C40.4512 33.6384 38.454 35.6356 35.9897 35.6383Z" fill="#0867D6"/>
<path d="M35.9897 24.8689C32.5074 24.8689 29.6846 27.6917 29.6846 31.174C29.6846 34.6561 32.5074 37.4791 35.9897 37.4791C39.4718 37.4791 42.2947 34.6561 42.2947 31.174C42.2909 27.6934 39.4703 24.8728 35.9897 24.8689ZM35.9897 35.6383C33.5241 35.6383 31.5255 33.6396 31.5255 31.1741C31.5255 28.7086 33.5241 26.7099 35.9897 26.7099C38.4552 26.7099 40.4538 28.7086 40.4538 31.1741C40.4512 33.6384 38.454 35.6356 35.9897 35.6383Z" fill="#0696E7"/>
<path d="M35.9897 24.8689C32.5074 24.8689 29.6846 27.6917 29.6846 31.174C29.6846 34.6561 32.5074 37.4791 35.9897 37.4791C39.4718 37.4791 42.2947 34.6561 42.2947 31.174C42.2909 27.6934 39.4703 24.8728 35.9897 24.8689ZM35.9897 35.6383C33.5241 35.6383 31.5255 33.6396 31.5255 31.1741C31.5255 28.7086 33.5241 26.7099 35.9897 26.7099C38.4552 26.7099 40.4538 28.7086 40.4538 31.1741C40.4512 33.6384 38.454 35.6356 35.9897 35.6383Z" fill="#208EE2"/>
</svg>
