<svg width="48" height="48" viewBox="0 0 48 48" fill="none" xmlns="http://www.w3.org/2000/svg">
<path d="M32.9712 8.632V20.6128C32.9712 21.5152 32.2416 22.2448 31.3392 22.2448H16.632C16.1992 22.2448 15.7841 22.0729 15.478 21.7668C15.1719 21.4607 15 21.0456 15 20.6128V8.632C15 7.7296 15.7296 7 16.632 7H31.3584C32.2416 7 32.9712 7.7488 32.9712 8.632Z" stroke="#0867D6" stroke-width="2" stroke-miterlimit="10" stroke-linecap="round"/>
<path d="M32.9712 8.632V20.6128C32.9712 21.5152 32.2416 22.2448 31.3392 22.2448H16.632C16.1992 22.2448 15.7841 22.0729 15.478 21.7668C15.1719 21.4607 15 21.0456 15 20.6128V8.632C15 7.7296 15.7296 7 16.632 7H31.3584C32.2416 7 32.9712 7.7488 32.9712 8.632Z" stroke="#0696E7" stroke-width="2" stroke-miterlimit="10" stroke-linecap="round"/>
<path d="M32.9712 8.632V20.6128C32.9712 21.5152 32.2416 22.2448 31.3392 22.2448H16.632C16.1992 22.2448 15.7841 22.0729 15.478 21.7668C15.1719 21.4607 15 21.0456 15 20.6128V8.632C15 7.7296 15.7296 7 16.632 7H31.3584C32.2416 7 32.9712 7.7488 32.9712 8.632Z" stroke="#208EE2" stroke-width="2" stroke-miterlimit="10" stroke-linecap="round"/>
<path d="M15 11.5312H32.9712M29.7072 23.3201V39.5057C29.7072 40.8689 28.824 41.9824 27.7488 41.9824H20.2416C19.1664 41.9824 18.2832 40.8689 18.2832 39.5057V23.3201C18.2832 21.9569 19.1664 22.2832 20.2416 22.2832H27.7488C28.8432 22.2832 29.7072 21.9569 29.7072 23.3201Z" stroke="#0867D6" stroke-width="2" stroke-miterlimit="10" stroke-linecap="round"/>
<path d="M15 11.5312H32.9712M29.7072 23.3201V39.5057C29.7072 40.8689 28.824 41.9824 27.7488 41.9824H20.2416C19.1664 41.9824 18.2832 40.8689 18.2832 39.5057V23.3201C18.2832 21.9569 19.1664 22.2832 20.2416 22.2832H27.7488C28.8432 22.2832 29.7072 21.9569 29.7072 23.3201Z" stroke="#0696E7" stroke-width="2" stroke-miterlimit="10" stroke-linecap="round"/>
<path d="M15 11.5312H32.9712M29.7072 23.3201V39.5057C29.7072 40.8689 28.824 41.9824 27.7488 41.9824H20.2416C19.1664 41.9824 18.2832 40.8689 18.2832 39.5057V23.3201C18.2832 21.9569 19.1664 22.2832 20.2416 22.2832H27.7488C28.8432 22.2832 29.7072 21.9569 29.7072 23.3201Z" stroke="#208EE2" stroke-width="2" stroke-miterlimit="10" stroke-linecap="round"/>
</svg>
