<svg width="48" height="48" viewBox="0 0 48 48" fill="none" xmlns="http://www.w3.org/2000/svg">
<path d="M43.5731 27.0543L30.8051 32.5647C30.3896 32.7418 29.9212 32.7484 29.501 32.5832C29.0807 32.4179 28.7422 32.0941 28.5587 31.6815L23.0291 18.9135C22.6643 18.0495 23.0483 17.0511 23.9123 16.6671L36.6803 11.1375C37.5443 10.7727 38.5427 11.1567 38.9267 12.0207L44.4563 24.7887C44.8211 25.6719 44.4179 26.6703 43.5731 27.0543Z" stroke="#0867D6" stroke-width="2" stroke-miterlimit="10" stroke-linecap="round"/>
<path d="M43.5731 27.0543L30.8051 32.5647C30.3896 32.7418 29.9212 32.7484 29.501 32.5832C29.0807 32.4179 28.7422 32.0941 28.5587 31.6815L23.0291 18.9135C22.6643 18.0495 23.0483 17.0511 23.9123 16.6671L36.6803 11.1375C37.5443 10.7727 38.5427 11.1567 38.9267 12.0207L44.4563 24.7887C44.8211 25.6719 44.4179 26.6703 43.5731 27.0543Z" stroke="#0696E7" stroke-width="2" stroke-miterlimit="10" stroke-linecap="round"/>
<path d="M43.5731 27.0543L30.8051 32.5647C30.3896 32.7418 29.9212 32.7484 29.501 32.5832C29.0807 32.4179 28.7422 32.0941 28.5587 31.6815L23.0291 18.9135C22.6643 18.0495 23.0483 17.0511 23.9123 16.6671L36.6803 11.1375C37.5443 10.7727 38.5427 11.1567 38.9267 12.0207L44.4563 24.7887C44.8211 25.6719 44.4179 26.6703 43.5731 27.0543Z" stroke="#208EE2" stroke-width="2" stroke-miterlimit="10" stroke-linecap="round"/>
<path d="M26.4082 31.0094L18.2482 34.5422C17.8328 34.7193 17.3644 34.726 16.9441 34.5608C16.5238 34.3955 16.1854 34.0716 16.0018 33.659L13.0066 26.7086C12.6418 25.8446 13.0258 24.827 13.8898 24.4622L22.0498 20.9294C22.9138 20.5646 23.9122 20.9486 24.2962 21.8126L27.3106 28.7631C27.6754 29.6463 27.2722 30.6446 26.4082 31.0094Z" stroke="#0867D6" stroke-width="2" stroke-miterlimit="10" stroke-linecap="round"/>
<path d="M26.4082 31.0094L18.2482 34.5422C17.8328 34.7193 17.3644 34.726 16.9441 34.5608C16.5238 34.3955 16.1854 34.0716 16.0018 33.659L13.0066 26.7086C12.6418 25.8446 13.0258 24.827 13.8898 24.4622L22.0498 20.9294C22.9138 20.5646 23.9122 20.9486 24.2962 21.8126L27.3106 28.7631C27.6754 29.6463 27.2722 30.6446 26.4082 31.0094Z" stroke="#0696E7" stroke-width="2" stroke-miterlimit="10" stroke-linecap="round"/>
<path d="M26.4082 31.0094L18.2482 34.5422C17.8328 34.7193 17.3644 34.726 16.9441 34.5608C16.5238 34.3955 16.1854 34.0716 16.0018 33.659L13.0066 26.7086C12.6418 25.8446 13.0258 24.827 13.8898 24.4622L22.0498 20.9294C22.9138 20.5646 23.9122 20.9486 24.2962 21.8126L27.3106 28.7631C27.6754 29.6463 27.2722 30.6446 26.4082 31.0094Z" stroke="#208EE2" stroke-width="2" stroke-miterlimit="10" stroke-linecap="round"/>
<path d="M33.9727 12.9614L40.5007 27.899M14.0431 33.371L6.20946 36.7502C5.79404 36.9273 5.32564 36.934 4.90536 36.7687C4.48508 36.6035 4.14663 36.2796 3.96306 35.867L3.13746 33.947C2.77266 33.083 3.15666 32.0846 4.02066 31.7006L11.8543 28.3406C12.7183 27.9758 13.7167 28.3598 14.1007 29.2238L14.9263 31.1438C15.2911 31.9886 14.8879 33.0062 14.0431 33.371V33.371Z" stroke="#0867D6" stroke-width="2" stroke-miterlimit="10" stroke-linecap="round"/>
<path d="M33.9727 12.9614L40.5007 27.899M14.0431 33.371L6.20946 36.7502C5.79404 36.9273 5.32564 36.934 4.90536 36.7687C4.48508 36.6035 4.14663 36.2796 3.96306 35.867L3.13746 33.947C2.77266 33.083 3.15666 32.0846 4.02066 31.7006L11.8543 28.3406C12.7183 27.9758 13.7167 28.3598 14.1007 29.2238L14.9263 31.1438C15.2911 31.9886 14.8879 33.0062 14.0431 33.371V33.371Z" stroke="#0696E7" stroke-width="2" stroke-miterlimit="10" stroke-linecap="round"/>
<path d="M33.9727 12.9614L40.5007 27.899M14.0431 33.371L6.20946 36.7502C5.79404 36.9273 5.32564 36.934 4.90536 36.7687C4.48508 36.6035 4.14663 36.2796 3.96306 35.867L3.13746 33.947C2.77266 33.083 3.15666 32.0846 4.02066 31.7006L11.8543 28.3406C12.7183 27.9758 13.7167 28.3598 14.1007 29.2238L14.9263 31.1438C15.2911 31.9886 14.8879 33.0062 14.0431 33.371V33.371Z" stroke="#208EE2" stroke-width="2" stroke-miterlimit="10" stroke-linecap="round"/>
</svg>
