<svg width="48" height="48" viewBox="0 0 48 48" fill="none" xmlns="http://www.w3.org/2000/svg">
<path d="M28.2908 31.6128C35.3636 31.6128 41.0972 25.8792 41.0972 18.8064C41.0972 11.7336 35.3636 6 28.2908 6C21.218 6 15.4844 11.7336 15.4844 18.8064C15.4844 25.8792 21.218 31.6128 28.2908 31.6128Z" stroke="#0867D6" stroke-width="2" stroke-miterlimit="10" stroke-linecap="round"/>
<path d="M28.2908 31.6128C35.3636 31.6128 41.0972 25.8792 41.0972 18.8064C41.0972 11.7336 35.3636 6 28.2908 6C21.218 6 15.4844 11.7336 15.4844 18.8064C15.4844 25.8792 21.218 31.6128 28.2908 31.6128Z" stroke="#0696E7" stroke-width="2" stroke-miterlimit="10" stroke-linecap="round"/>
<path d="M28.2908 31.6128C35.3636 31.6128 41.0972 25.8792 41.0972 18.8064C41.0972 11.7336 35.3636 6 28.2908 6C21.218 6 15.4844 11.7336 15.4844 18.8064C15.4844 25.8792 21.218 31.6128 28.2908 31.6128Z" stroke="#208EE2" stroke-width="2" stroke-miterlimit="10" stroke-linecap="round"/>
<path d="M19.3055 21.4945C19.0559 20.6497 18.9023 19.7281 18.9023 18.8065C18.905 16.5023 19.7565 14.2799 21.2943 12.564C22.8321 10.848 24.9482 9.75891 27.2383 9.50472C29.5284 9.25053 31.8319 9.84911 33.7085 11.1861C35.5851 12.523 36.9033 14.5046 37.4111 16.7521M37.3919 20.9569C36.9864 22.6596 36.112 24.2146 34.8679 25.4458C33.6238 26.677 32.0597 27.5351 30.3529 27.9228C28.6461 28.3105 26.8647 28.2124 25.2108 27.6396C23.5569 27.0667 22.0965 26.0421 20.9951 24.6817" stroke="#0867D6" stroke-width="2" stroke-miterlimit="10" stroke-linecap="round"/>
<path d="M19.3055 21.4945C19.0559 20.6497 18.9023 19.7281 18.9023 18.8065C18.905 16.5023 19.7565 14.2799 21.2943 12.564C22.8321 10.848 24.9482 9.75891 27.2383 9.50472C29.5284 9.25053 31.8319 9.84911 33.7085 11.1861C35.5851 12.523 36.9033 14.5046 37.4111 16.7521M37.3919 20.9569C36.9864 22.6596 36.112 24.2146 34.8679 25.4458C33.6238 26.677 32.0597 27.5351 30.3529 27.9228C28.6461 28.3105 26.8647 28.2124 25.2108 27.6396C23.5569 27.0667 22.0965 26.0421 20.9951 24.6817" stroke="#0696E7" stroke-width="2" stroke-miterlimit="10" stroke-linecap="round"/>
<path d="M19.3055 21.4945C19.0559 20.6497 18.9023 19.7281 18.9023 18.8065C18.905 16.5023 19.7565 14.2799 21.2943 12.564C22.8321 10.848 24.9482 9.75891 27.2383 9.50472C29.5284 9.25053 31.8319 9.84911 33.7085 11.1861C35.5851 12.523 36.9033 14.5046 37.4111 16.7521M37.3919 20.9569C36.9864 22.6596 36.112 24.2146 34.8679 25.4458C33.6238 26.677 32.0597 27.5351 30.3529 27.9228C28.6461 28.3105 26.8647 28.2124 25.2108 27.6396C23.5569 27.0667 22.0965 26.0421 20.9951 24.6817" stroke="#208EE2" stroke-width="2" stroke-miterlimit="10" stroke-linecap="round"/>
<path d="M33.36 15.3503C33.8016 16.0031 34.1088 16.7135 34.2816 17.5007M20.4576 29.9999L10.0512 40.4063C9.1296 41.3279 7.6128 41.3279 6.6912 40.4063C5.7696 39.4847 5.7696 37.9679 6.6912 37.0463L17.0592 26.6207" stroke="#0867D6" stroke-width="2" stroke-miterlimit="10" stroke-linecap="round"/>
<path d="M33.36 15.3503C33.8016 16.0031 34.1088 16.7135 34.2816 17.5007M20.4576 29.9999L10.0512 40.4063C9.1296 41.3279 7.6128 41.3279 6.6912 40.4063C5.7696 39.4847 5.7696 37.9679 6.6912 37.0463L17.0592 26.6207" stroke="#0696E7" stroke-width="2" stroke-miterlimit="10" stroke-linecap="round"/>
<path d="M33.36 15.3503C33.8016 16.0031 34.1088 16.7135 34.2816 17.5007M20.4576 29.9999L10.0512 40.4063C9.1296 41.3279 7.6128 41.3279 6.6912 40.4063C5.7696 39.4847 5.7696 37.9679 6.6912 37.0463L17.0592 26.6207" stroke="#208EE2" stroke-width="2" stroke-miterlimit="10" stroke-linecap="round"/>
</svg>
