<svg width="48" height="48" viewBox="0 0 48 48" fill="none" xmlns="http://www.w3.org/2000/svg">
<path d="M23.6416 24.7744C24.2672 24.7744 24.7744 24.2672 24.7744 23.6416C24.7744 23.016 24.2672 22.5088 23.6416 22.5088C23.016 22.5088 22.5088 23.016 22.5088 23.6416C22.5088 24.2672 23.016 24.7744 23.6416 24.7744Z" fill="#0867D6"/>
<path d="M23.6416 24.7744C24.2672 24.7744 24.7744 24.2672 24.7744 23.6416C24.7744 23.016 24.2672 22.5088 23.6416 22.5088C23.016 22.5088 22.5088 23.016 22.5088 23.6416C22.5088 24.2672 23.016 24.7744 23.6416 24.7744Z" fill="#0696E7"/>
<path d="M23.6416 24.7744C24.2672 24.7744 24.7744 24.2672 24.7744 23.6416C24.7744 23.016 24.2672 22.5088 23.6416 22.5088C23.016 22.5088 22.5088 23.016 22.5088 23.6416C22.5088 24.2672 23.016 24.7744 23.6416 24.7744Z" fill="#208EE2"/>
<path d="M13.3887 23.6416H18.7647M28.5183 23.6416H33.8943" stroke="#0867D6" stroke-width="2" stroke-miterlimit="10" stroke-linecap="round"/>
<path d="M13.3887 23.6416H18.7647M28.5183 23.6416H33.8943" stroke="#0696E7" stroke-width="2" stroke-miterlimit="10" stroke-linecap="round"/>
<path d="M13.3887 23.6416H18.7647M28.5183 23.6416H33.8943" stroke="#208EE2" stroke-width="2" stroke-miterlimit="10" stroke-linecap="round"/>
<path d="M23.6416 13.3887V18.7647M23.6416 28.5183V33.8943" stroke="#0867D6" stroke-width="2" stroke-miterlimit="10" stroke-linecap="round"/>
<path d="M23.6416 13.3887V18.7647M23.6416 28.5183V33.8943" stroke="#0696E7" stroke-width="2" stroke-miterlimit="10" stroke-linecap="round"/>
<path d="M23.6416 13.3887V18.7647M23.6416 28.5183V33.8943" stroke="#208EE2" stroke-width="2" stroke-miterlimit="10" stroke-linecap="round"/>
<path d="M23.642 40.9983C33.2279 40.9983 40.9988 33.2274 40.9988 23.6415C40.9988 14.0556 33.2279 6.28467 23.642 6.28467C14.0561 6.28467 6.28516 14.0556 6.28516 23.6415C6.28516 33.2274 14.0561 40.9983 23.642 40.9983Z" stroke="#0867D6" stroke-width="2" stroke-miterlimit="10"/>
<path d="M23.642 40.9983C33.2279 40.9983 40.9988 33.2274 40.9988 23.6415C40.9988 14.0556 33.2279 6.28467 23.642 6.28467C14.0561 6.28467 6.28516 14.0556 6.28516 23.6415C6.28516 33.2274 14.0561 40.9983 23.642 40.9983Z" stroke="#0696E7" stroke-width="2" stroke-miterlimit="10"/>
<path d="M23.642 40.9983C33.2279 40.9983 40.9988 33.2274 40.9988 23.6415C40.9988 14.0556 33.2279 6.28467 23.642 6.28467C14.0561 6.28467 6.28516 14.0556 6.28516 23.6415C6.28516 33.2274 14.0561 40.9983 23.642 40.9983Z" stroke="#208EE2" stroke-width="2" stroke-miterlimit="10"/>
<path d="M23.6423 37.5805C31.3407 37.5805 37.5815 31.3398 37.5815 23.6413C37.5815 15.9429 31.3407 9.70215 23.6423 9.70215C15.9439 9.70215 9.70312 15.9429 9.70312 23.6413C9.70312 31.3398 15.9439 37.5805 23.6423 37.5805Z" stroke="#0867D6" stroke-width="2" stroke-miterlimit="10"/>
<path d="M23.6423 37.5805C31.3407 37.5805 37.5815 31.3398 37.5815 23.6413C37.5815 15.9429 31.3407 9.70215 23.6423 9.70215C15.9439 9.70215 9.70312 15.9429 9.70312 23.6413C9.70312 31.3398 15.9439 37.5805 23.6423 37.5805Z" stroke="#0696E7" stroke-width="2" stroke-miterlimit="10"/>
<path d="M23.6423 37.5805C31.3407 37.5805 37.5815 31.3398 37.5815 23.6413C37.5815 15.9429 31.3407 9.70215 23.6423 9.70215C15.9439 9.70215 9.70312 15.9429 9.70312 23.6413C9.70312 31.3398 15.9439 37.5805 23.6423 37.5805Z" stroke="#208EE2" stroke-width="2" stroke-miterlimit="10"/>
<path d="M43.2832 23.6416H41.6512M5.632 23.6416H4" stroke="#0867D6" stroke-width="2" stroke-miterlimit="10" stroke-linecap="round"/>
<path d="M43.2832 23.6416H41.6512M5.632 23.6416H4" stroke="#0696E7" stroke-width="2" stroke-miterlimit="10" stroke-linecap="round"/>
<path d="M43.2832 23.6416H41.6512M5.632 23.6416H4" stroke="#208EE2" stroke-width="2" stroke-miterlimit="10" stroke-linecap="round"/>
<path d="M23.6416 4V5.632M23.6416 41.6512V43.2832" stroke="#0867D6" stroke-width="2" stroke-miterlimit="10" stroke-linecap="round"/>
<path d="M23.6416 4V5.632M23.6416 41.6512V43.2832" stroke="#0696E7" stroke-width="2" stroke-miterlimit="10" stroke-linecap="round"/>
<path d="M23.6416 4V5.632M23.6416 41.6512V43.2832" stroke="#208EE2" stroke-width="2" stroke-miterlimit="10" stroke-linecap="round"/>
</svg>
