<svg width="48" height="48" viewBox="0 0 48 48" fill="none" xmlns="http://www.w3.org/2000/svg">
<path d="M22.9473 6H45.7761V42.4224H22.9473V6Z" fill="#0867D6"/>
<path d="M22.9473 6H45.7761V42.4224H22.9473V6Z" fill="#0696E7"/>
<path d="M22.9473 6H45.7761V42.4224H22.9473V6Z" fill="#208EE2"/>
<path d="M40.5917 24.3809C40.5917 30.4097 35.6957 35.3057 29.6669 35.3057H16.3613C10.3325 35.3057 5.43652 30.4097 5.43652 24.3809C5.43652 18.3521 10.3325 13.4561 16.3613 13.4561H29.6669C35.7149 13.4561 40.5917 18.3521 40.5917 24.3809Z" stroke="#0867D6" stroke-width="0.85" stroke-miterlimit="10" stroke-linecap="round"/>
<path d="M40.5917 24.3809C40.5917 30.4097 35.6957 35.3057 29.6669 35.3057H16.3613C10.3325 35.3057 5.43652 30.4097 5.43652 24.3809C5.43652 18.3521 10.3325 13.4561 16.3613 13.4561H29.6669C35.7149 13.4561 40.5917 18.3521 40.5917 24.3809Z" stroke="#0696E7" stroke-width="0.85" stroke-miterlimit="10" stroke-linecap="round"/>
<path d="M40.5917 24.3809C40.5917 30.4097 35.6957 35.3057 29.6669 35.3057H16.3613C10.3325 35.3057 5.43652 30.4097 5.43652 24.3809C5.43652 18.3521 10.3325 13.4561 16.3613 13.4561H29.6669C35.7149 13.4561 40.5917 18.3521 40.5917 24.3809Z" stroke="#208EE2" stroke-width="0.85" stroke-miterlimit="10" stroke-linecap="round"/>
<path d="M44.048 24.3808C44.048 32.3296 38.192 38.7616 30.9728 38.7616H15.0752C7.856 38.7616 2 32.3296 2 24.3808C2 16.432 7.856 10 15.0752 10H30.992C38.192 10 44.048 16.432 44.048 24.3808Z" stroke="#0867D6" stroke-width="0.85" stroke-miterlimit="10" stroke-linecap="round"/>
<path d="M44.048 24.3808C44.048 32.3296 38.192 38.7616 30.9728 38.7616H15.0752C7.856 38.7616 2 32.3296 2 24.3808C2 16.432 7.856 10 15.0752 10H30.992C38.192 10 44.048 16.432 44.048 24.3808Z" stroke="#0696E7" stroke-width="0.85" stroke-miterlimit="10" stroke-linecap="round"/>
<path d="M44.048 24.3808C44.048 32.3296 38.192 38.7616 30.9728 38.7616H15.0752C7.856 38.7616 2 32.3296 2 24.3808C2 16.432 7.856 10 15.0752 10H30.992C38.192 10 44.048 16.432 44.048 24.3808Z" stroke="#208EE2" stroke-width="0.85" stroke-miterlimit="10" stroke-linecap="round"/>
<path d="M8.87402 24.3232H12.618M19.434 24.3232H26.6148M33.5844 24.3232H37.3284" stroke="#0867D6" stroke-width="0.85" stroke-miterlimit="10" stroke-linecap="round"/>
<path d="M8.87402 24.3232H12.618M19.434 24.3232H26.6148M33.5844 24.3232H37.3284" stroke="#0696E7" stroke-width="0.85" stroke-miterlimit="10" stroke-linecap="round"/>
<path d="M8.87402 24.3232H12.618M19.434 24.3232H26.6148M33.5844 24.3232H37.3284" stroke="#208EE2" stroke-width="0.85" stroke-miterlimit="10" stroke-linecap="round"/>
<path d="M16.0166 17.1807V20.9247M16.0166 27.7215V31.4847" stroke="#0867D6" stroke-width="0.85" stroke-miterlimit="10" stroke-linecap="round"/>
<path d="M16.0166 17.1807V20.9247M16.0166 27.7215V31.4847" stroke="#0696E7" stroke-width="0.85" stroke-miterlimit="10" stroke-linecap="round"/>
<path d="M16.0166 17.1807V20.9247M16.0166 27.7215V31.4847" stroke="#208EE2" stroke-width="0.85" stroke-miterlimit="10" stroke-linecap="round"/>
<path d="M30.1855 17.1807V20.9247M30.1855 27.7215V31.4847" stroke="#0867D6" stroke-width="0.85" stroke-miterlimit="10" stroke-linecap="round"/>
<path d="M30.1855 17.1807V20.9247M30.1855 27.7215V31.4847" stroke="#0696E7" stroke-width="0.85" stroke-miterlimit="10" stroke-linecap="round"/>
<path d="M30.1855 17.1807V20.9247M30.1855 27.7215V31.4847" stroke="#208EE2" stroke-width="0.85" stroke-miterlimit="10" stroke-linecap="round"/>
<path d="M23.0049 13.4561H29.6673C35.6961 13.4561 40.5921 18.3521 40.5921 24.3809C40.5921 30.4097 35.6961 35.3057 29.6673 35.3057H22.9473" stroke="white" stroke-width="0.709" stroke-miterlimit="10"/>
<path d="M23.0049 10H30.9729C38.1921 10 44.0481 16.432 44.0481 24.3808C44.0481 32.3296 38.1921 38.7616 30.9729 38.7616H22.9473" stroke="white" stroke-width="0.709" stroke-miterlimit="10"/>
<path d="M23.0244 24.3232H26.6148" stroke="white" stroke-width="0.709" stroke-miterlimit="10"/>
<path d="M24.8486 24.3232H26.615M33.5846 24.3232H37.3286" stroke="white" stroke-width="0.709" stroke-miterlimit="10" stroke-linecap="round"/>
<path d="M30.1855 17.1807V20.9247M30.1855 27.7215V31.4847" stroke="white" stroke-width="0.709" stroke-miterlimit="10" stroke-linecap="round"/>
</svg>
