<svg width="48" height="48" viewBox="0 0 48 48" fill="none" xmlns="http://www.w3.org/2000/svg">
<g clip-path="url(#clip0_1666_108289)">
<path d="M24.0954 47.8656C37.048 47.8656 47.5482 37.3655 47.5482 24.4128C47.5482 11.4602 37.048 0.960022 24.0954 0.960022C11.1428 0.960022 0.642578 11.4602 0.642578 24.4128C0.642578 37.3655 11.1428 47.8656 24.0954 47.8656Z" fill="#E0E1E3"/>
<path d="M24.2875 26.4192C29.653 26.4192 34.0027 22.0309 34.0027 16.6176C34.0027 11.2043 29.653 6.81598 24.2875 6.81598C18.9219 6.81598 14.5723 11.2043 14.5723 16.6176C14.5723 22.0309 18.9219 26.4192 24.2875 26.4192Z" fill="#9A9C9E"/>
<path d="M28.5979 31.0176H20.0059C14.3227 31.0176 9.70508 35.664 9.70508 41.4048L9.72428 42.6624C9.72428 42.6624 10.2715 43.104 10.9147 43.5456C11.5099 43.9584 12.2203 44.3424 12.5275 44.5152C13.4107 45.0144 18.4219 47.6928 23.6923 47.6256C31.0075 47.52 34.9339 45.0912 37.1611 43.6608C37.4587 43.4688 37.7563 43.2384 38.0443 43.0272C38.5147 42.6816 38.8891 42.384 38.8891 42.384L38.8987 41.4144C38.8987 35.664 34.2811 31.0176 28.5979 31.0176Z" fill="#9A9C9E"/>
</g>
<defs>
<clipPath id="clip0_1666_108289">
<rect width="48" height="48" fill="white"/>
</clipPath>
</defs>
</svg>
