<svg width="24" height="24" viewBox="0 0 24 24" fill="none" xmlns="http://www.w3.org/2000/svg">
<g clip-path="url(#clip0_1826_61273)">
<path d="M23.9996 12.2753C23.9996 11.4595 23.9321 10.6394 23.7881 9.83691H12.2402V14.4579H18.8532C18.5788 15.9482 17.697 17.2666 16.4059 18.1044V21.1028H20.3512C22.668 19.0127 23.9996 15.9262 23.9996 12.2753Z" fill="#4285F4"/>
<path d="M12.2414 24.0003C15.5433 24.0003 18.328 22.9377 20.3568 21.1034L16.4116 18.1051C15.3139 18.837 13.8968 19.2515 12.2459 19.2515C9.05186 19.2515 6.34371 17.1394 5.37201 14.2998H1.30078V17.3907C3.37913 21.4429 7.61231 24.0003 12.2414 24.0003Z" fill="#34A853"/>
<path d="M5.36712 14.2997C4.85428 12.8094 4.85428 11.1956 5.36712 9.7052V6.61426H1.30039C-0.436067 10.005 -0.436067 13.9999 1.30039 17.3907L5.36712 14.2997Z" fill="#FBBC04"/>
<path d="M12.2404 4.74868C13.9858 4.72223 15.6728 5.36599 16.9369 6.54769L20.4323 3.12164C18.219 1.08453 15.2814 -0.0354426 12.2404 -0.000167897C7.61133 -0.000167897 3.37816 2.55725 1.2998 6.61383L5.36653 9.70477C6.33373 6.86075 9.04639 4.74868 12.2404 4.74868Z" fill="#EA4335"/>
</g>
<defs>
<clipPath id="clip0_1826_61273">
<rect width="24" height="24" fill="white"/>
</clipPath>
</defs>
</svg>
