<svg width="152" height="48" viewBox="0 0 152 48" fill="none" xmlns="http://www.w3.org/2000/svg">
<g clip-path="url(#clip0_2_3478)">
<path d="M60.9033 14.2306H57.1376V11.6782H67.5745V14.2306H63.8087V24.7722H60.9016V14.2306H60.9033Z" fill="#333333"/>
<path d="M75.1999 23.2175C74.7527 23.7849 74.1876 24.2219 73.5031 24.5301C72.8203 24.8384 72.1119 24.9925 71.3778 24.9925C70.6814 24.9925 70.0259 24.8807 69.4113 24.6588C68.7968 24.437 68.2625 24.1203 67.8084 23.707C67.3543 23.2937 66.9975 22.7975 66.7364 22.2182C66.4752 21.639 66.3455 20.992 66.3455 20.2773C66.3455 19.5625 66.4752 18.9155 66.7364 18.3363C66.9975 17.757 67.3543 17.2608 67.8084 16.8475C68.2625 16.4343 68.7968 16.1175 69.4113 15.8957C70.0259 15.6738 70.6814 15.562 71.3778 15.562C72.0231 15.562 72.6103 15.6738 73.1395 15.8957C73.667 16.1175 74.1142 16.4343 74.4812 16.8475C74.8483 17.2608 75.1299 17.757 75.3297 18.3363C75.5277 18.9155 75.6284 19.5625 75.6284 20.2773V21.1461H69.1416C69.2543 21.6763 69.495 22.098 69.8688 22.413C70.2409 22.728 70.7018 22.8838 71.2481 22.8838C71.7073 22.8838 72.0965 22.7822 72.4123 22.579C72.7281 22.3757 73.0047 22.1132 73.2419 21.7931L75.1999 23.2175ZM72.8322 19.261C72.8442 18.7919 72.6889 18.3922 72.3662 18.0585C72.0436 17.7266 71.6271 17.5589 71.1167 17.5589C70.806 17.5589 70.5328 17.608 70.2973 17.7062C70.0617 17.8045 69.8586 17.9315 69.6913 18.0856C69.524 18.2397 69.3925 18.4176 69.3004 18.6225C69.2082 18.8275 69.1536 19.0392 69.1416 19.261H72.8322Z" fill="#333333"/>
<path d="M77.3608 10.7908H80.157V24.7705H77.3608V10.7908Z" fill="#333333"/>
<path d="M90.7444 23.2175C90.2971 23.7849 89.7321 24.2219 89.0475 24.5301C88.3647 24.8384 87.6563 24.9925 86.9223 24.9925C86.2258 24.9925 85.5703 24.8807 84.9558 24.6588C84.3412 24.437 83.8069 24.1203 83.3528 23.707C82.8988 23.2937 82.542 22.7975 82.2808 22.2182C82.0196 21.639 81.8899 20.992 81.8899 20.2773C81.8899 19.5625 82.0196 18.9155 82.2808 18.3363C82.542 17.757 82.8988 17.2608 83.3528 16.8475C83.8069 16.4343 84.3412 16.1175 84.9558 15.8957C85.5703 15.6738 86.2258 15.562 86.9223 15.562C87.5675 15.562 88.1548 15.6738 88.6839 15.8957C89.2114 16.1175 89.6587 16.4343 90.0257 16.8475C90.3927 17.2608 90.6744 17.757 90.8741 18.3363C91.0721 18.9155 91.1728 19.5625 91.1728 20.2773V21.1461H84.686C84.7987 21.6763 85.0394 22.098 85.4132 22.413C85.7854 22.728 86.2463 22.8838 86.7925 22.8838C87.2517 22.8838 87.6409 22.7822 87.9567 22.579C88.2725 22.3757 88.5491 22.1132 88.7864 21.7931L90.7444 23.2175ZM88.3767 19.261C88.3886 18.7919 88.2333 18.3922 87.9107 18.0585C87.588 17.7266 87.1715 17.5589 86.6611 17.5589C86.3504 17.5589 86.0773 17.608 85.8417 17.7062C85.6061 17.8045 85.403 17.9315 85.2357 18.0856C85.0684 18.2397 84.937 18.4176 84.8448 18.6225C84.7526 18.8275 84.698 19.0392 84.686 19.261H88.3767Z" fill="#333333"/>
<path d="M96.9305 21.2764H92.3453V19.0576H96.9305V21.2764Z" fill="#333333"/>
<path d="M105.15 25.1041C104.143 25.1041 103.218 24.9279 102.373 24.5773C101.528 24.2267 100.804 23.7424 100.201 23.1259C99.5987 22.5093 99.1259 21.7828 98.7845 20.9444C98.443 20.106 98.2723 19.1999 98.2723 18.226C98.2723 17.2521 98.443 16.346 98.7845 15.5076C99.1259 14.6692 99.5987 13.9426 100.201 13.3261C100.804 12.7096 101.528 12.2252 102.373 11.8746C103.218 11.5224 104.143 11.3479 105.15 11.3479C106.157 11.3479 107.082 11.524 107.927 11.8746C108.772 12.2252 109.496 12.7096 110.099 13.3261C110.701 13.9426 111.174 14.6692 111.516 15.5076C111.857 16.346 112.028 17.2521 112.028 18.226C112.028 19.1999 111.857 20.106 111.516 20.9444C111.174 21.7828 110.701 22.511 110.099 23.1259C109.496 23.7424 108.772 24.2267 107.927 24.5773C107.082 24.9279 106.157 25.1041 105.15 25.1041ZM105.15 23.4392C105.908 23.4392 106.591 23.3003 107.2 23.0225C107.81 22.7448 108.33 22.3722 108.766 21.903C109.201 21.4338 109.535 20.8834 109.773 20.2483C110.008 19.6131 110.126 18.939 110.126 18.2226C110.126 17.5079 110.008 16.8321 109.773 16.1969C109.537 15.5618 109.201 15.0097 108.766 14.5422C108.33 14.0731 107.808 13.7004 107.2 13.4227C106.591 13.1449 105.908 13.006 105.15 13.006C104.392 13.006 103.708 13.1449 103.1 13.4227C102.49 13.7004 101.97 14.0731 101.535 14.5422C101.099 15.0114 100.765 15.5618 100.527 16.1969C100.292 16.8321 100.172 17.5062 100.172 18.2226C100.172 18.9373 100.29 19.6131 100.527 20.2483C100.763 20.8834 101.099 21.4355 101.535 21.903C101.97 22.3722 102.49 22.7448 103.1 23.0225C103.709 23.3003 104.392 23.4392 105.15 23.4392Z" fill="#333333"/>
<path d="M114.172 16.0056H115.85V17.2623H115.887C116.21 16.7948 116.654 16.4307 117.221 16.1715C117.786 15.9124 118.366 15.7837 118.963 15.7837C119.646 15.7837 120.264 15.9006 120.817 16.1343C121.37 16.368 121.842 16.6949 122.234 17.1149C122.625 17.535 122.927 18.0244 123.139 18.5851C123.351 19.1457 123.456 19.7469 123.456 20.3888C123.456 21.0426 123.351 21.649 123.139 22.2096C122.927 22.7702 122.627 23.258 122.234 23.6695C121.843 24.0828 121.37 24.4063 120.817 24.64C120.264 24.8738 119.646 24.9923 118.963 24.9923C118.33 24.9923 117.733 24.8602 117.174 24.5943C116.616 24.3284 116.186 23.9693 115.889 23.512H115.851V29.9853H114.173V16.0056H114.172ZM118.757 17.3368C118.31 17.3368 117.905 17.4147 117.545 17.5672C117.185 17.7213 116.881 17.9313 116.632 18.1955C116.382 18.4614 116.191 18.7815 116.055 19.1575C115.918 19.5335 115.85 19.9434 115.85 20.3871C115.85 20.8309 115.918 21.2408 116.055 21.6168C116.191 21.9928 116.384 22.3129 116.632 22.5788C116.881 22.8447 117.185 23.053 117.545 23.2072C117.905 23.3613 118.31 23.4392 118.757 23.4392C119.204 23.4392 119.609 23.363 119.969 23.2072C120.329 23.053 120.633 22.843 120.882 22.5788C121.131 22.3146 121.323 21.9928 121.459 21.6168C121.596 21.2408 121.664 20.8309 121.664 20.3871C121.664 19.9434 121.596 19.5335 121.459 19.1575C121.323 18.7815 121.13 18.4614 120.882 18.1955C120.633 17.9313 120.329 17.7213 119.969 17.5672C119.607 17.4147 119.204 17.3368 118.757 17.3368Z" fill="#333333"/>
<path d="M130.293 17.4487H127.89V21.4254C127.89 21.6727 127.897 21.9149 127.908 22.1554C127.92 22.3959 127.967 22.611 128.048 22.8024C128.129 22.9938 128.253 23.1479 128.421 23.2648C128.588 23.3817 128.834 23.4409 129.156 23.4409C129.354 23.4409 129.559 23.4223 129.771 23.3851C129.983 23.3478 130.175 23.28 130.348 23.1818V24.6977C130.148 24.8095 129.892 24.8857 129.575 24.928C129.257 24.9703 129.013 24.9924 128.839 24.9924C128.192 24.9924 127.693 24.9026 127.338 24.7248C126.985 24.5469 126.724 24.3149 126.556 24.032C126.389 23.7492 126.288 23.4308 126.258 23.0802C126.227 22.7279 126.212 22.3739 126.212 22.0165V17.4487H124.272V16.0056H126.212V13.5464H127.89V16.0056H130.293V17.4487Z" fill="#333333"/>
<path d="M132.195 12.8623C132.195 12.5303 132.316 12.2424 132.559 12.0019C132.801 11.7614 133.089 11.6411 133.426 11.6411C133.76 11.6411 134.051 11.7614 134.293 12.0019C134.535 12.2424 134.657 12.5286 134.657 12.8623C134.657 13.1959 134.535 13.4822 134.293 13.7227C134.051 13.9632 133.762 14.0834 133.426 14.0834C133.089 14.0834 132.801 13.9632 132.559 13.7227C132.316 13.4822 132.195 13.1942 132.195 12.8623ZM132.586 16.0058H134.264V24.7706H132.586V16.0058Z" fill="#333333"/>
<path d="M143.248 18.3363C142.937 18.0162 142.611 17.7723 142.27 17.6063C141.929 17.4403 141.521 17.3573 141.049 17.3573C140.59 17.3573 140.189 17.4403 139.848 17.6063C139.506 17.7723 139.219 18.0009 138.991 18.2905C138.76 18.5802 138.586 18.9138 138.468 19.2898C138.351 19.6658 138.291 20.0571 138.291 20.4636C138.291 20.87 138.359 21.2562 138.496 21.6187C138.632 21.9828 138.825 22.2995 139.073 22.5705C139.322 22.8415 139.619 23.0549 139.967 23.209C140.315 23.3632 140.706 23.4411 141.142 23.4411C141.614 23.4411 142.017 23.3581 142.354 23.1921C142.688 23.0261 142.999 22.7822 143.286 22.4621L144.479 23.646C144.044 24.127 143.538 24.4725 142.96 24.6809C142.381 24.8892 141.77 24.9959 141.125 24.9959C140.442 24.9959 139.817 24.8841 139.252 24.6622C138.687 24.4403 138.199 24.1287 137.789 23.729C137.379 23.3293 137.062 22.8483 136.838 22.286C136.615 21.7254 136.502 21.1055 136.502 20.428C136.502 19.7505 136.615 19.1272 136.838 18.5598C137.062 17.9925 137.376 17.5064 137.779 17.0982C138.182 16.6917 138.666 16.3733 139.233 16.1463C139.798 15.9177 140.428 15.8042 141.125 15.8042C141.77 15.8042 142.389 15.9177 142.978 16.1463C143.569 16.375 144.081 16.7222 144.516 17.1913L143.248 18.3363Z" fill="#333333"/>
<path d="M150.611 18.2057C150.411 17.9584 150.167 17.7517 149.875 17.5858C149.583 17.4198 149.226 17.3368 148.803 17.3368C148.405 17.3368 148.06 17.4198 147.768 17.5858C147.476 17.7517 147.33 17.9956 147.33 18.3157C147.33 18.5749 147.413 18.7849 147.581 18.9441C147.748 19.105 147.948 19.2337 148.176 19.332C148.407 19.4302 148.651 19.5047 148.912 19.5538C149.173 19.603 149.397 19.647 149.583 19.6826C149.943 19.7689 150.281 19.8739 150.599 19.9976C150.916 20.1212 151.189 20.2804 151.418 20.4786C151.648 20.6768 151.828 20.9156 151.959 21.2001C152.089 21.4846 152.155 21.8285 152.155 22.235C152.155 22.7278 152.05 23.1512 151.838 23.5018C151.626 23.8541 151.353 24.1404 151.019 24.3622C150.682 24.5841 150.302 24.745 149.873 24.8432C149.445 24.9415 149.013 24.9906 148.577 24.9906C147.843 24.9906 147.202 24.8788 146.648 24.6569C146.095 24.4351 145.602 24.0286 145.167 23.4358L146.433 22.4009C146.707 22.6719 147.01 22.9124 147.347 23.1225C147.683 23.3325 148.093 23.4375 148.577 23.4375C148.789 23.4375 149.002 23.4155 149.221 23.3731C149.438 23.3308 149.631 23.2613 149.798 23.1699C149.965 23.0767 150.102 22.9599 150.208 22.8176C150.314 22.6753 150.366 22.5127 150.366 22.3281C150.366 22.0808 150.288 21.8776 150.133 21.7184C149.977 21.5575 149.791 21.4321 149.573 21.339C149.356 21.2458 149.125 21.173 148.883 21.1171C148.641 21.0612 148.427 21.0155 148.239 20.9782C147.879 20.8918 147.538 20.7936 147.213 20.6818C146.891 20.57 146.604 20.4227 146.357 20.2381C146.107 20.0535 145.909 19.8197 145.761 19.5352C145.612 19.2524 145.537 18.9001 145.537 18.4817C145.537 18.0261 145.633 17.6281 145.826 17.2894C146.019 16.9506 146.273 16.6695 146.59 16.4476C146.908 16.2257 147.268 16.0597 147.671 15.948C148.074 15.8362 148.482 15.782 148.892 15.782C149.487 15.782 150.059 15.8938 150.605 16.1139C151.152 16.3358 151.587 16.705 151.91 17.2233L150.611 18.2057Z" fill="#333333"/>
<path d="M57.979 32.8936H58.7164L59.6382 35.6475L60.5685 32.8936H61.306L61.9734 36.8416H61.2411L60.8144 34.3484L59.9694 36.8416H59.3019L58.4638 34.3484L58.0267 36.8416H57.2876L57.979 32.8936Z" fill="#5499D1"/>
<path d="M63.7931 32.8936H64.5612L66.0925 36.8416H65.3055L64.9948 36.0286H63.3714L63.0471 36.8416H62.2601L63.7931 32.8936ZM64.1806 33.9403L63.6463 35.2952H64.7115L64.1806 33.9403Z" fill="#5499D1"/>
<path d="M66.6747 32.8936H68.6497V33.6286H67.4275V36.8416H66.6747V32.8936Z" fill="#5499D1"/>
<path d="M70.4558 32.8936H71.224L72.7552 36.8416H71.9682L71.6575 36.0286H70.0341L69.7098 36.8416H68.9229L70.4558 32.8936ZM70.845 33.9403L70.3107 35.2952H71.3759L70.845 33.9403Z" fill="#5499D1"/>
<path d="M73.5285 35.8135C73.73 36.0913 73.9638 36.2301 74.2335 36.2301C74.4128 36.2301 74.5579 36.1793 74.6671 36.0794C74.7764 35.9795 74.8327 35.8457 74.8327 35.6797C74.8327 35.5171 74.7798 35.3816 74.6722 35.2749C74.5647 35.1682 74.3428 35.114 74.0048 35.114H73.8426V34.4433H74.0048C74.2045 34.4433 74.3564 34.3976 74.4606 34.3061C74.5647 34.2146 74.6159 34.0927 74.6159 33.9386C74.6159 33.798 74.5732 33.6845 74.4862 33.6032C74.3991 33.5219 74.2847 33.4796 74.1413 33.4796C73.9706 33.4796 73.7965 33.5626 73.6173 33.7286L73.17 33.234C73.4107 33.0189 73.6105 32.8902 73.7709 32.8495C73.9314 32.8072 74.0799 32.7869 74.2147 32.7869C74.5408 32.7869 74.8122 32.88 75.0341 33.068C75.256 33.256 75.3653 33.5101 75.3653 33.8285C75.3653 33.9691 75.3397 34.1079 75.2902 34.2417C75.2407 34.3755 75.1024 34.5178 74.8754 34.6686C75.3414 34.8735 75.5736 35.2258 75.5736 35.7237C75.5736 36.0913 75.4489 36.386 75.2014 36.6078C74.9539 36.8314 74.6347 36.9415 74.2438 36.9415C73.998 36.9415 73.7777 36.8975 73.5831 36.8094C73.3885 36.7213 73.1752 36.5299 72.9464 36.2369L73.5285 35.8135Z" fill="#5499D1"/>
<path d="M79.1974 32.8936V36.8416H78.4395V34.3688L76.956 36.8416H76.2971V32.8936H77.055V35.446L78.559 32.8936H79.1974Z" fill="#5499D1"/>
<path d="M80.1039 32.8936H80.8721V34.3823H82.2001V32.8936H82.9666V36.8416H82.2001V35.1106H80.8721V36.8416H80.1039V32.8936Z" fill="#5499D1"/>
<path d="M87.3043 32.7937C87.8676 32.7937 88.3507 32.9953 88.757 33.4C89.1616 33.8048 89.3647 34.2977 89.3647 34.8786C89.3647 35.4545 89.165 35.9423 88.7655 36.342C88.3661 36.7417 87.8813 36.9399 87.3111 36.9399C86.7137 36.9399 86.2169 36.7349 85.8226 36.3251C85.4265 35.9152 85.2302 35.4291 85.2302 34.8651C85.2302 34.4874 85.3224 34.1402 85.5068 33.8235C85.6911 33.5067 85.9438 33.2561 86.2664 33.0698C86.5856 32.8869 86.9321 32.7937 87.3043 32.7937ZM87.2957 33.5288C86.927 33.5288 86.6181 33.6558 86.3671 33.9098C86.1162 34.1639 85.9899 34.4874 85.9899 34.8786C85.9899 35.3156 86.1486 35.6611 86.4644 35.9152C86.7102 36.1133 86.9919 36.2133 87.3094 36.2133C87.6679 36.2133 87.9752 36.0846 88.2278 35.8271C88.4804 35.5697 88.6068 35.2513 88.6068 34.8736C88.6068 34.4976 88.4787 34.1791 88.2244 33.92C87.97 33.6609 87.6611 33.5288 87.2957 33.5288Z" fill="#5499D1"/>
<path d="M90.0765 32.8936H92.9393V36.8416H92.1728V33.5964H90.8447V36.8416H90.0765V32.8936Z" fill="#5499D1"/>
<path d="M93.4547 32.8936H95.6534V33.6337H94.9279V36.8416H94.1597V33.6337H93.453V32.8936H93.4547Z" fill="#5499D1"/>
<path d="M99.0712 32.8936V36.8416H98.3133V34.3688L96.8298 36.8416H96.1709V32.8936H96.9288V35.446L98.4327 32.8936H99.0712Z" fill="#5499D1"/>
<path d="M101.722 35.1106H101.468C101.102 35.1106 100.831 35.092 100.657 35.0547C100.483 35.0174 100.315 34.9378 100.158 34.8142C99.9997 34.6923 99.8887 34.5432 99.8222 34.3688C99.7573 34.1943 99.7249 33.964 99.7249 33.676V32.8936H100.493V33.6642C100.493 33.9318 100.543 34.1198 100.64 34.2248C100.737 34.3298 100.945 34.3823 101.263 34.3823H101.722V32.8936H102.485V36.8416H101.722V35.1106Z" fill="#5499D1"/>
<path d="M103.397 32.8936H105.57V33.6286H104.15V34.3434H105.57V35.0649H104.15V36.1031H105.57V36.8416H103.397V32.8936Z" fill="#5499D1"/>
<path d="M109.933 33.5863L109.404 34.0876C109.044 33.7099 108.637 33.5203 108.187 33.5203C107.806 33.5203 107.487 33.649 107.226 33.9064C106.964 34.1638 106.835 34.4823 106.835 34.86C106.835 35.1225 106.893 35.3579 107.007 35.5612C107.123 35.7661 107.285 35.9253 107.497 36.0422C107.709 36.159 107.943 36.2166 108.2 36.2166C108.421 36.2166 108.62 36.176 108.803 36.0947C108.986 36.0134 109.185 35.8643 109.404 35.6492L109.918 36.181C109.624 36.4656 109.346 36.6637 109.085 36.7738C108.823 36.8839 108.525 36.9381 108.188 36.9381C107.57 36.9381 107.063 36.7433 106.669 36.3538C106.275 35.9642 106.078 35.4663 106.078 34.8566C106.078 34.4636 106.169 34.113 106.348 33.8065C106.527 33.4999 106.785 33.2543 107.12 33.068C107.454 32.8817 107.815 32.7886 108.2 32.7886C108.528 32.7886 108.844 32.858 109.148 32.9952C109.452 33.1375 109.713 33.3339 109.933 33.5863Z" fill="#5499D1"/>
<path d="M110.602 32.8936H111.369V34.2553L112.449 32.8936H113.359L111.97 34.655L113.494 36.8416H112.596L111.369 35.0869V36.8416H110.602V32.8936Z" fill="#5499D1"/>
<path d="M116.93 32.8936V36.8416H116.172V34.3688L114.689 36.8416H114.03V32.8936H114.788V35.446L116.292 32.8936H116.93Z" fill="#5499D1"/>
<path d="M117.581 32.8936H118.433L119.269 34.1604L120.107 32.8936H120.959L119.696 34.8074L121.037 36.8416H120.186L119.269 35.4527L118.354 36.8416H117.497L118.844 34.8057L117.581 32.8936Z" fill="#5499D1"/>
<path d="M123.154 32.8936H126.017V36.8416H125.25V33.5964H123.922V36.8416H123.154V32.8936Z" fill="#5499D1"/>
<path d="M126.923 32.8936H127.727C128.162 32.8936 128.475 32.9325 128.668 33.0138C128.859 33.0934 129.011 33.2221 129.122 33.4C129.233 33.5778 129.287 33.7912 129.287 34.0402C129.287 34.3163 129.214 34.5449 129.069 34.7278C128.924 34.9107 128.727 35.0378 128.478 35.1089C128.331 35.1496 128.065 35.1716 127.679 35.1716V36.8432H126.921V32.8936H126.923ZM127.681 34.4365H127.922C128.111 34.4365 128.243 34.423 128.316 34.3959C128.389 34.3688 128.447 34.3247 128.49 34.2621C128.533 34.1994 128.553 34.1249 128.553 34.0368C128.553 33.8844 128.494 33.7726 128.374 33.7031C128.287 33.6506 128.127 33.6252 127.893 33.6252H127.679V34.4365H127.681Z" fill="#5499D1"/>
<path d="M132.927 32.8936V36.8416H132.169V34.3688L130.686 36.8416H130.027V32.8936H130.785V35.446L132.289 32.8936H132.927Z" fill="#5499D1"/>
<path d="M133.833 36.8416V32.8936H135.914V33.6269H134.591V34.384H134.757C135.093 34.384 135.366 34.4213 135.58 34.4941C135.793 34.5669 135.969 34.7058 136.111 34.909C136.252 35.1123 136.322 35.3528 136.322 35.6306C136.322 35.9066 136.269 36.1251 136.162 36.2894C136.054 36.4537 135.909 36.5858 135.721 36.6891C135.534 36.7924 135.276 36.8432 134.946 36.8432H133.833V36.8416ZM134.591 35.0547V36.1251H134.781C135.127 36.1251 135.346 36.0811 135.438 35.9913C135.53 35.9016 135.576 35.7813 135.576 35.6289C135.576 35.2461 135.3 35.0547 134.748 35.0547H134.591Z" fill="#5499D1"/>
<path d="M138.866 32.7937C139.429 32.7937 139.912 32.9953 140.319 33.4C140.723 33.8048 140.926 34.2977 140.926 34.8786C140.926 35.4545 140.726 35.9423 140.327 36.342C139.928 36.7417 139.443 36.9399 138.873 36.9399C138.275 36.9399 137.778 36.7349 137.384 36.3251C136.988 35.9152 136.792 35.4291 136.792 34.8651C136.792 34.4874 136.884 34.1402 137.068 33.8235C137.253 33.5067 137.505 33.2561 137.828 33.0698C138.147 32.8869 138.495 32.7937 138.866 32.7937ZM138.859 33.5288C138.49 33.5288 138.181 33.6558 137.93 33.9098C137.679 34.1639 137.553 34.4874 137.553 34.8786C137.553 35.3156 137.712 35.6611 138.028 35.9152C138.273 36.1133 138.555 36.2133 138.873 36.2133C139.231 36.2133 139.538 36.0846 139.791 35.8271C140.044 35.5697 140.17 35.2513 140.17 34.8736C140.17 34.4976 140.042 34.1791 139.788 33.92C139.533 33.6609 139.223 33.5288 138.859 33.5288Z" fill="#5499D1"/>
<path d="M141.638 32.8936H142.442C142.877 32.8936 143.19 32.9325 143.383 33.0138C143.574 33.0934 143.726 33.2221 143.837 33.4C143.948 33.5778 144.002 33.7912 144.002 34.0402C144.002 34.3163 143.929 34.5449 143.784 34.7278C143.639 34.9107 143.442 35.0378 143.193 35.1089C143.046 35.1496 142.78 35.1716 142.394 35.1716V36.8432H141.636V32.8936H141.638ZM142.396 34.4365H142.637C142.826 34.4365 142.957 34.423 143.031 34.3959C143.104 34.3688 143.162 34.3247 143.205 34.2621C143.248 34.1994 143.268 34.1249 143.268 34.0368C143.268 33.8844 143.208 33.7726 143.089 33.7031C143.002 33.6506 142.841 33.6252 142.608 33.6252H142.394V34.4365H142.396Z" fill="#5499D1"/>
<path d="M146.623 32.7937C147.186 32.7937 147.669 32.9953 148.075 33.4C148.48 33.8048 148.683 34.2977 148.683 34.8786C148.683 35.4545 148.483 35.9423 148.084 36.342C147.684 36.7417 147.2 36.9399 146.629 36.9399C146.032 36.9399 145.535 36.7349 145.141 36.3251C144.745 35.9152 144.548 35.4291 144.548 34.8651C144.548 34.4874 144.641 34.1402 144.825 33.8235C145.009 33.5067 145.262 33.2561 145.585 33.0698C145.904 32.8869 146.25 32.7937 146.623 32.7937ZM146.614 33.5288C146.245 33.5288 145.936 33.6558 145.685 33.9098C145.434 34.1639 145.308 34.4874 145.308 34.8786C145.308 35.3156 145.467 35.6611 145.783 35.9152C146.028 36.1133 146.31 36.2133 146.628 36.2133C146.986 36.2133 147.293 36.0846 147.546 35.8271C147.799 35.5697 147.925 35.2513 147.925 34.8736C147.925 34.4976 147.797 34.1791 147.543 33.92C147.288 33.6609 146.979 33.5288 146.614 33.5288Z" fill="#5499D1"/>
<path d="M149.396 36.8416V32.8936H150.023C150.386 32.8936 150.651 32.9173 150.82 32.963C151.059 33.0257 151.249 33.1425 151.388 33.3119C151.53 33.4813 151.6 33.6828 151.6 33.9132C151.6 34.0639 151.568 34.1994 151.505 34.323C151.44 34.445 151.337 34.5601 151.192 34.6685C151.435 34.782 151.61 34.9226 151.723 35.092C151.836 35.2613 151.89 35.4612 151.89 35.6915C151.89 35.9134 151.832 36.115 151.716 36.2979C151.6 36.4808 151.452 36.6163 151.269 36.7078C151.086 36.7975 150.835 36.8432 150.513 36.8432H149.396V36.8416ZM150.154 33.61V34.4416H150.32C150.504 34.4416 150.642 34.4026 150.731 34.3264C150.822 34.2502 150.866 34.1452 150.866 34.0131C150.866 33.8894 150.823 33.7912 150.738 33.7184C150.653 33.6456 150.523 33.61 150.349 33.61H150.154ZM150.154 35.1123V36.1234H150.344C150.658 36.1234 150.87 36.0845 150.98 36.0049C151.09 35.927 151.144 35.8118 151.144 35.661C151.144 35.4917 151.08 35.3562 150.951 35.2579C150.823 35.1597 150.61 35.1106 150.311 35.1106H150.154V35.1123Z" fill="#5499D1"/>
<path d="M11.4638 35.9761C12.5781 35.9761 13.4815 35.0798 13.4815 33.9741C13.4815 32.8685 12.5781 31.9722 11.4638 31.9722C10.3494 31.9722 9.44604 32.8685 9.44604 33.9741C9.44604 35.0798 10.3494 35.9761 11.4638 35.9761Z" fill="#F9E585"/>
<path d="M42.4158 35.1004C34.2185 43.2336 21.0026 43.3504 12.6602 35.451C12.3052 35.6458 11.8972 35.7576 11.4636 35.7576C10.0962 35.7576 8.98836 34.6584 8.98836 33.3017C8.98836 32.7123 9.19832 32.172 9.54656 31.7486C7.63637 28.866 6.51313 25.6208 6.17514 22.3114C6.02492 22.3622 5.86275 22.391 5.69375 22.391C4.87095 22.391 4.2035 21.7287 4.2035 20.9124C4.2035 20.096 4.87095 19.4338 5.69375 19.4338C5.82519 19.4338 5.95322 19.4524 6.07442 19.4846C6.24001 14.3053 8.31578 9.17507 12.3 5.22199C13.85 3.68412 15.5776 2.43417 17.4195 1.47046C13.623 2.5341 10.0399 4.5479 7.05256 7.51186C-2.26964 16.7611 -2.26964 31.7571 7.05256 41.008C16.3748 50.259 31.489 50.2573 40.8129 41.008C44.9217 36.9313 47.2194 31.7385 47.7059 26.4118C46.7159 29.5875 44.9542 32.5836 42.4158 35.1004Z" fill="#F9E585"/>
<path d="M5.69372 22.452C6.35178 22.452 6.88524 21.9228 6.88524 21.2698C6.88524 20.6169 6.35178 20.0876 5.69372 20.0876C5.03566 20.0876 4.5022 20.6169 4.5022 21.2698C4.5022 21.9228 5.03566 22.452 5.69372 22.452Z" fill="#F9E585"/>
<path d="M47.7043 5.44897C47.921 6.86998 49.046 7.98613 50.4782 8.20123C49.046 8.41633 47.921 9.53247 47.7043 10.9535C47.4875 9.53247 46.3625 8.41633 44.9303 8.20123C46.3625 7.98782 47.4875 6.87168 47.7043 5.44897Z" fill="#F9E585"/>
<path d="M18.635 7.40186C18.7459 8.12845 19.3212 8.69922 20.0535 8.80931C19.3212 8.9194 18.7459 9.49018 18.635 10.2168C18.524 9.49018 17.9488 8.9194 17.2164 8.80931C17.9488 8.70092 18.524 8.13014 18.635 7.40186Z" fill="#F9E585"/>
<path d="M4.25474 0.0595703C4.3657 0.786165 4.94097 1.35694 5.6733 1.46703C4.94097 1.57712 4.3657 2.14789 4.25474 2.87449C4.14378 2.14789 3.56851 1.57712 2.83618 1.46703C3.56851 1.35694 4.14207 0.786165 4.25474 0.0595703Z" fill="#F9E585"/>
<path d="M48.8531 38.6521C49.0665 40.0494 50.171 41.1452 51.5793 41.3569C50.171 41.5686 49.0665 42.6645 48.8531 44.0618C48.6397 42.6645 47.5353 41.5686 46.127 41.3569C47.5353 41.1452 48.6397 40.0494 48.8531 38.6521Z" fill="#F9E585"/>
<path d="M47.7044 16.9644C47.8273 17.7706 48.4657 18.404 49.2783 18.5259C48.4657 18.6479 47.8273 19.2813 47.7044 20.0875C47.5815 19.2813 46.943 18.6479 46.1305 18.5259C46.943 18.4023 47.5815 17.7706 47.7044 16.9644Z" fill="#F9E585"/>
<path d="M43.7866 19.2576L40.941 11.0568C40.8829 10.8891 40.6969 10.7993 40.5279 10.8569L39.5019 11.2075C39.3961 11.2431 39.3227 11.3278 39.2937 11.4277L32.0626 13.8988L31.4976 12.2712L33.867 11.4616C33.9472 11.5801 34.1008 11.6377 34.2425 11.5886L35.2429 11.2465C35.4119 11.1889 35.5023 11.0043 35.4443 10.8366L34.6061 8.42139C34.5481 8.25372 34.362 8.16395 34.193 8.22154L33.1944 8.56366C33.0254 8.62125 32.9349 8.80586 32.993 8.97354L28.3788 10.5504C28.2644 10.5893 28.1876 10.6876 28.1671 10.7976C28.1535 10.801 28.1381 10.8027 28.1245 10.8078L26.0487 11.5175C25.8797 11.575 25.7892 11.7597 25.8473 11.9273L26.3952 13.5042C26.4533 13.6718 26.6393 13.7616 26.8083 13.704L28.8841 12.9944C28.8978 12.9893 28.9114 12.9825 28.9234 12.9757C29.0087 13.0503 29.1299 13.0807 29.2443 13.0418L29.3723 12.9978L29.9374 14.6254L25.7602 16.0532C25.3369 16.1971 25.1098 16.6595 25.2566 17.0796L25.3795 17.4352L23.8159 17.9687L14.9034 21.014C14.5193 21.1461 14.3127 21.5645 14.4459 21.9472L14.7719 22.8889L14.7753 22.9008L14.3213 23.0566L8.14687 25.1653C8.05469 25.1229 7.94544 25.1128 7.84302 25.1483L6.51152 25.6039L6.09329 24.3963C6.05062 24.2727 5.94307 24.1897 5.82016 24.1677C5.82016 24.1626 5.81846 24.1592 5.81675 24.1541C5.84406 24.1338 5.85943 24.1152 5.8526 24.0999C5.84748 24.0864 5.82699 24.0796 5.79627 24.0796L5.76383 23.9864C5.78773 23.9678 5.80139 23.9492 5.79627 23.9356C5.79114 23.9221 5.76895 23.9153 5.73823 23.9153L5.48046 23.1701C5.41559 22.9821 5.21416 22.8957 5.03151 22.977L4.97005 23.0041C4.78911 23.0854 4.48184 23.1904 4.28723 23.2378L4.21554 23.2548C4.02093 23.3022 3.9168 23.4936 3.98167 23.6816L4.24114 24.4285C4.22066 24.4454 4.21042 24.4624 4.21383 24.4742C4.21895 24.4861 4.23773 24.4928 4.26334 24.4928L4.29748 24.5928C4.27699 24.6097 4.26504 24.6267 4.27016 24.6385C4.27529 24.6521 4.29577 24.6588 4.32479 24.6588C4.3265 24.6639 4.3282 24.669 4.33162 24.6724C4.24968 24.7638 4.21554 24.896 4.25821 25.0196L4.67815 26.2272C4.67815 26.2289 4.67986 26.2289 4.67986 26.2306C4.48525 26.3119 4.38283 26.5321 4.45282 26.7336L5.30805 29.1979C5.38145 29.408 5.61361 29.5214 5.82699 29.4486L8.96455 28.3765C9.06868 28.3409 9.1472 28.2681 9.19329 28.1766L15.3677 26.0663L15.8218 25.9105L16.1529 26.864C16.2861 27.2451 16.7077 27.45 17.0935 27.3179L21.5574 25.7919V27.76H19.7702C19.5448 27.76 19.3622 27.9429 19.3622 28.1648V28.7525C19.3622 28.9761 19.5448 29.1573 19.7702 29.1573H21.8818L16.7163 42.5629C16.7094 42.5798 16.706 42.5967 16.7026 42.612L14.6507 47.9353H16.1751L21.0829 35.2072L21.0744 35.2038L23.1228 29.8873V34.4772V38.9587V47.9336H24.5465V34.484H24.5448V29.9601L29.5959 43.0727C29.6079 43.1032 29.625 43.1286 29.6454 43.1506L31.4925 47.942H33.0169L27.9145 34.7075L27.8974 34.7143L25.7585 29.1624H27.8957C28.121 29.1624 28.3037 28.9795 28.3037 28.7576V28.1699C28.3037 27.9463 28.1193 27.7651 27.8957 27.7651H26.2109V24.2032L27.0405 23.9204L27.4826 23.7696L27.5663 23.7408L27.5628 23.7324L27.6892 24.0965C27.8343 24.5166 28.3003 24.7418 28.7236 24.5962L42.2588 19.9707C42.3425 20.0317 42.4534 20.0537 42.5593 20.0181L43.5852 19.6675C43.7542 19.6099 43.8447 19.4253 43.7866 19.2576Z" fill="#5499D1"/>
</g>
<defs>
<clipPath id="clip0_2_3478">
<rect width="152" height="48" fill="white"/>
</clipPath>
</defs>
</svg>
