<svg width="30" height="30" viewBox="0 0 30 30" fill="none" xmlns="http://www.w3.org/2000/svg">
<path fill-rule="evenodd" clip-rule="evenodd" d="M15 0C23.2843 0 30 6.71573 30 15C30 23.2843 23.2843 30 15 30C6.71573 30 0 23.2843 0 15C0 6.71573 6.71573 0 15 0Z" fill="#F7F8FB"/>
<path d="M19.1999 12.998C19.129 12.4221 18.952 11.97 18.6377 11.5695C18.2295 11.0538 17.7079 10.7449 16.9357 10.5617C16.4325 10.4396 16.2292 10.4537 16.0471 10.6199C15.8776 10.7757 15.8445 11.0879 15.9741 11.2902C16.0652 11.4369 16.1703 11.4895 16.4626 11.5469C16.8519 11.6185 17.121 11.7115 17.3657 11.8514C17.8852 12.1514 18.1271 12.6207 18.153 13.3806C18.1651 13.7374 18.1959 13.8471 18.3205 13.9736C18.5515 14.2049 18.9625 14.1599 19.1369 13.8831C19.2009 13.7788 19.2106 13.7334 19.2174 13.4911C19.2218 13.3411 19.2154 13.1179 19.1999 12.998Z" fill="#0867D6"/>
<path d="M19.1999 12.998C19.129 12.4221 18.952 11.97 18.6377 11.5695C18.2295 11.0538 17.7079 10.7449 16.9357 10.5617C16.4325 10.4396 16.2292 10.4537 16.0471 10.6199C15.8776 10.7757 15.8445 11.0879 15.9741 11.2902C16.0652 11.4369 16.1703 11.4895 16.4626 11.5469C16.8519 11.6185 17.121 11.7115 17.3657 11.8514C17.8852 12.1514 18.1271 12.6207 18.153 13.3806C18.1651 13.7374 18.1959 13.8471 18.3205 13.9736C18.5515 14.2049 18.9625 14.1599 19.1369 13.8831C19.2009 13.7788 19.2106 13.7334 19.2174 13.4911C19.2218 13.3411 19.2154 13.1179 19.1999 12.998Z" fill="#EEEE36"/>
<path d="M19.1999 12.998C19.129 12.4221 18.952 11.97 18.6377 11.5695C18.2295 11.0538 17.7079 10.7449 16.9357 10.5617C16.4325 10.4396 16.2292 10.4537 16.0471 10.6199C15.8776 10.7757 15.8445 11.0879 15.9741 11.2902C16.0652 11.4369 16.1703 11.4895 16.4626 11.5469C16.8519 11.6185 17.121 11.7115 17.3657 11.8514C17.8852 12.1514 18.1271 12.6207 18.153 13.3806C18.1651 13.7374 18.1959 13.8471 18.3205 13.9736C18.5515 14.2049 18.9625 14.1599 19.1369 13.8831C19.2009 13.7788 19.2106 13.7334 19.2174 13.4911C19.2218 13.3411 19.2154 13.1179 19.1999 12.998Z" fill="#7F4DA0"/>
<path d="M21.2355 13.6471C21.1329 11.8828 20.4429 10.4634 19.2079 9.46474C18.5121 8.90359 17.671 8.51772 16.749 8.33006C16.4113 8.26295 15.7895 8.20855 15.6828 8.23966C15.5822 8.26848 15.4398 8.37747 15.3763 8.47604C15.3092 8.58293 15.2941 8.82157 15.3514 8.95962C15.4437 9.19039 15.6156 9.27191 16.097 9.31403C16.8391 9.37896 17.6046 9.63968 18.1829 10.0257C18.8432 10.4651 19.368 11.0663 19.7076 11.7726C20.001 12.3795 20.1814 13.2541 20.1764 14.0373C20.1747 14.3206 20.2185 14.4806 20.3324 14.5975C20.5043 14.7773 20.755 14.8167 20.9762 14.6972C21.2213 14.5683 21.2787 14.342 21.2355 13.6471Z" fill="#0867D6"/>
<path d="M21.2355 13.6471C21.1329 11.8828 20.4429 10.4634 19.2079 9.46474C18.5121 8.90359 17.671 8.51772 16.749 8.33006C16.4113 8.26295 15.7895 8.20855 15.6828 8.23966C15.5822 8.26848 15.4398 8.37747 15.3763 8.47604C15.3092 8.58293 15.2941 8.82157 15.3514 8.95962C15.4437 9.19039 15.6156 9.27191 16.097 9.31403C16.8391 9.37896 17.6046 9.63968 18.1829 10.0257C18.8432 10.4651 19.368 11.0663 19.7076 11.7726C20.001 12.3795 20.1814 13.2541 20.1764 14.0373C20.1747 14.3206 20.2185 14.4806 20.3324 14.5975C20.5043 14.7773 20.755 14.8167 20.9762 14.6972C21.2213 14.5683 21.2787 14.342 21.2355 13.6471Z" fill="#EEEE36"/>
<path d="M21.2355 13.6471C21.1329 11.8828 20.4429 10.4634 19.2079 9.46474C18.5121 8.90359 17.671 8.51772 16.749 8.33006C16.4113 8.26295 15.7895 8.20855 15.6828 8.23966C15.5822 8.26848 15.4398 8.37747 15.3763 8.47604C15.3092 8.58293 15.2941 8.82157 15.3514 8.95962C15.4437 9.19039 15.6156 9.27191 16.097 9.31403C16.8391 9.37896 17.6046 9.63968 18.1829 10.0257C18.8432 10.4651 19.368 11.0663 19.7076 11.7726C20.001 12.3795 20.1814 13.2541 20.1764 14.0373C20.1747 14.3206 20.2185 14.4806 20.3324 14.5975C20.5043 14.7773 20.755 14.8167 20.9762 14.6972C21.2213 14.5683 21.2787 14.342 21.2355 13.6471Z" fill="#7F4DA0"/>
<path d="M23.4861 20.4414C23.4516 20.3406 23.3711 20.185 23.3136 20.0957C22.9512 19.5484 21.0039 18.0245 20.0317 17.5262C19.4766 17.241 19.0653 17.1459 18.7604 17.2352C18.4325 17.3274 18.2599 17.4801 17.7105 18.1628C17.4891 18.4365 17.2619 18.6929 17.2014 18.7332C17.0519 18.8369 16.7585 18.9204 16.5514 18.9204C16.0711 18.9175 15.1995 18.6064 14.5294 18.1974C14.0087 17.8805 13.3415 17.313 12.8295 16.7513C12.2254 16.0916 11.8142 15.5097 11.4891 14.8529C11.0692 14.0089 10.9628 13.4933 11.1382 13.1159C11.1813 13.0208 11.2389 12.92 11.2647 12.8883C11.2906 12.8595 11.561 12.6377 11.8601 12.3957C12.4469 11.9291 12.5418 11.8225 12.6511 11.5027C12.7892 11.0965 12.7518 10.6817 12.539 10.264C12.375 9.94716 11.9464 9.2558 11.6358 8.80931C11.2245 8.22168 10.2005 6.96571 9.99627 6.79571C9.62811 6.49615 9.15644 6.44426 8.63578 6.64595C8.08646 6.85912 7.05671 7.68874 6.61663 8.26776C6.21969 8.79203 6.0673 9.16362 6.04427 9.65334C6.02415 10.0566 6.05865 10.2237 6.2715 10.7394C7.93688 14.7838 10.422 18.013 13.8362 20.5768C15.6195 21.9163 17.4689 22.9361 19.3874 23.6332C20.5063 24.0394 20.9924 24.0595 21.5648 23.7254C21.8064 23.5813 22.4047 22.9677 22.7383 22.5213C23.2906 21.778 23.4948 21.4352 23.5523 21.1616C23.5926 20.9743 23.5609 20.6488 23.4861 20.4414Z" fill="#0867D6"/>
<path d="M23.4861 20.4414C23.4516 20.3406 23.3711 20.185 23.3136 20.0957C22.9512 19.5484 21.0039 18.0245 20.0317 17.5262C19.4766 17.241 19.0653 17.1459 18.7604 17.2352C18.4325 17.3274 18.2599 17.4801 17.7105 18.1628C17.4891 18.4365 17.2619 18.6929 17.2014 18.7332C17.0519 18.8369 16.7585 18.9204 16.5514 18.9204C16.0711 18.9175 15.1995 18.6064 14.5294 18.1974C14.0087 17.8805 13.3415 17.313 12.8295 16.7513C12.2254 16.0916 11.8142 15.5097 11.4891 14.8529C11.0692 14.0089 10.9628 13.4933 11.1382 13.1159C11.1813 13.0208 11.2389 12.92 11.2647 12.8883C11.2906 12.8595 11.561 12.6377 11.8601 12.3957C12.4469 11.9291 12.5418 11.8225 12.6511 11.5027C12.7892 11.0965 12.7518 10.6817 12.539 10.264C12.375 9.94716 11.9464 9.2558 11.6358 8.80931C11.2245 8.22168 10.2005 6.96571 9.99627 6.79571C9.62811 6.49615 9.15644 6.44426 8.63578 6.64595C8.08646 6.85912 7.05671 7.68874 6.61663 8.26776C6.21969 8.79203 6.0673 9.16362 6.04427 9.65334C6.02415 10.0566 6.05865 10.2237 6.2715 10.7394C7.93688 14.7838 10.422 18.013 13.8362 20.5768C15.6195 21.9163 17.4689 22.9361 19.3874 23.6332C20.5063 24.0394 20.9924 24.0595 21.5648 23.7254C21.8064 23.5813 22.4047 22.9677 22.7383 22.5213C23.2906 21.778 23.4948 21.4352 23.5523 21.1616C23.5926 20.9743 23.5609 20.6488 23.4861 20.4414Z" fill="#EEEE36"/>
<path d="M23.4861 20.4414C23.4516 20.3406 23.3711 20.185 23.3136 20.0957C22.9512 19.5484 21.0039 18.0245 20.0317 17.5262C19.4766 17.241 19.0653 17.1459 18.7604 17.2352C18.4325 17.3274 18.2599 17.4801 17.7105 18.1628C17.4891 18.4365 17.2619 18.6929 17.2014 18.7332C17.0519 18.8369 16.7585 18.9204 16.5514 18.9204C16.0711 18.9175 15.1995 18.6064 14.5294 18.1974C14.0087 17.8805 13.3415 17.313 12.8295 16.7513C12.2254 16.0916 11.8142 15.5097 11.4891 14.8529C11.0692 14.0089 10.9628 13.4933 11.1382 13.1159C11.1813 13.0208 11.2389 12.92 11.2647 12.8883C11.2906 12.8595 11.561 12.6377 11.8601 12.3957C12.4469 11.9291 12.5418 11.8225 12.6511 11.5027C12.7892 11.0965 12.7518 10.6817 12.539 10.264C12.375 9.94716 11.9464 9.2558 11.6358 8.80931C11.2245 8.22168 10.2005 6.96571 9.99627 6.79571C9.62811 6.49615 9.15644 6.44426 8.63578 6.64595C8.08646 6.85912 7.05671 7.68874 6.61663 8.26776C6.21969 8.79203 6.0673 9.16362 6.04427 9.65334C6.02415 10.0566 6.05865 10.2237 6.2715 10.7394C7.93688 14.7838 10.422 18.013 13.8362 20.5768C15.6195 21.9163 17.4689 22.9361 19.3874 23.6332C20.5063 24.0394 20.9924 24.0595 21.5648 23.7254C21.8064 23.5813 22.4047 22.9677 22.7383 22.5213C23.2906 21.778 23.4948 21.4352 23.5523 21.1616C23.5926 20.9743 23.5609 20.6488 23.4861 20.4414Z" fill="#7F4DA0"/>
<path d="M23.3053 14.0524C23.2684 13.0544 23.1004 12.2359 22.75 11.3232C22.4041 10.4255 22.0541 9.83967 21.3929 9.04733C20.7678 8.30442 20.2823 7.88023 19.5123 7.40805C18.4381 6.75017 17.1307 6.31481 15.6655 6.13172C15.1659 6.06773 15.0528 6.0723 14.8995 6.17458C14.6025 6.36834 14.6065 6.85163 14.9044 7.04249C15.0031 7.1032 15.0906 7.12532 15.4903 7.17763C16.1038 7.26023 16.4983 7.33808 16.9665 7.4658C18.8022 7.96761 20.2138 8.99333 21.1576 10.516C21.9474 11.7851 22.2752 13.0543 22.2287 14.6753C22.2125 15.2233 22.2242 15.3198 22.308 15.4514C22.4684 15.6968 22.8915 15.7454 23.1085 15.5417C23.2436 15.4176 23.269 15.3245 23.2956 14.8554C23.3084 14.6107 23.3111 14.2495 23.3053 14.0524Z" fill="#0867D6"/>
<path d="M23.3053 14.0524C23.2684 13.0544 23.1004 12.2359 22.75 11.3232C22.4041 10.4255 22.0541 9.83967 21.3929 9.04733C20.7678 8.30442 20.2823 7.88023 19.5123 7.40805C18.4381 6.75017 17.1307 6.31481 15.6655 6.13172C15.1659 6.06773 15.0528 6.0723 14.8995 6.17458C14.6025 6.36834 14.6065 6.85163 14.9044 7.04249C15.0031 7.1032 15.0906 7.12532 15.4903 7.17763C16.1038 7.26023 16.4983 7.33808 16.9665 7.4658C18.8022 7.96761 20.2138 8.99333 21.1576 10.516C21.9474 11.7851 22.2752 13.0543 22.2287 14.6753C22.2125 15.2233 22.2242 15.3198 22.308 15.4514C22.4684 15.6968 22.8915 15.7454 23.1085 15.5417C23.2436 15.4176 23.269 15.3245 23.2956 14.8554C23.3084 14.6107 23.3111 14.2495 23.3053 14.0524Z" fill="#EEEE36"/>
<path d="M23.3053 14.0524C23.2684 13.0544 23.1004 12.2359 22.75 11.3232C22.4041 10.4255 22.0541 9.83967 21.3929 9.04733C20.7678 8.30442 20.2823 7.88023 19.5123 7.40805C18.4381 6.75017 17.1307 6.31481 15.6655 6.13172C15.1659 6.06773 15.0528 6.0723 14.8995 6.17458C14.6025 6.36834 14.6065 6.85163 14.9044 7.04249C15.0031 7.1032 15.0906 7.12532 15.4903 7.17763C16.1038 7.26023 16.4983 7.33808 16.9665 7.4658C18.8022 7.96761 20.2138 8.99333 21.1576 10.516C21.9474 11.7851 22.2752 13.0543 22.2287 14.6753C22.2125 15.2233 22.2242 15.3198 22.308 15.4514C22.4684 15.6968 22.8915 15.7454 23.1085 15.5417C23.2436 15.4176 23.269 15.3245 23.2956 14.8554C23.3084 14.6107 23.3111 14.2495 23.3053 14.0524Z" fill="#7F4DA0"/>
</svg>
