<svg width="25" height="24" viewBox="0 0 25 24" fill="none" xmlns="http://www.w3.org/2000/svg">
<rect x="0.5" width="24" height="24" rx="12" fill="#5181B8"/>
<path fill-rule="evenodd" clip-rule="evenodd" d="M19.6558 8.6094C19.7602 8.25816 19.6558 8 19.1596 8H17.5185C17.1013 8 16.909 8.22299 16.8047 8.46895C16.8047 8.46895 15.9701 10.5239 14.7879 11.8587C14.4054 12.2452 14.2316 12.368 14.023 12.368C13.9186 12.368 13.7677 12.2452 13.7677 11.8939V8.6094C13.7677 8.18782 13.6466 8 13.2988 8H10.7201C10.4594 8 10.3026 8.19563 10.3026 8.38108C10.3026 8.78075 10.8936 8.87288 10.9545 9.99693V12.4384C10.9545 12.9737 10.8589 13.0708 10.6502 13.0708C10.0939 13.0708 8.74079 11.0065 7.93811 8.64457C7.78081 8.18545 7.62303 8 7.20364 8H5.56263C5.09377 8 5 8.22299 5 8.46895C5 8.90805 5.55642 11.0861 7.59045 13.9665C8.94662 15.9335 10.857 17 12.5955 17C13.6387 17 13.7677 16.7632 13.7677 16.3552V14.8684C13.7677 14.3947 13.8665 14.3002 14.1967 14.3002C14.4403 14.3002 14.8574 14.4232 15.8311 15.3716C16.9437 16.4955 17.1271 17 17.753 17H19.394C19.8628 17 20.0973 16.7632 19.962 16.2957C19.8141 15.8299 19.2829 15.1542 18.5779 14.3529C18.1955 13.8962 17.6217 13.4044 17.448 13.1585C17.2045 12.8424 17.274 12.7019 17.448 12.421C17.448 12.421 19.4472 9.57559 19.6558 8.60951V8.6094Z" fill="white"/>
</svg>
